<svg xmlns="http://www.w3.org/2000/svg" viewBox="0 0 730 914"><defs><style>.cls-1{isolation:isolate;}.cls-2{fill:#e6e6e6;}.cls-15,.cls-28,.cls-3,.cls-41,.cls-46{mix-blend-mode:multiply;}.cls-4{fill:#c4c1c1;}.cls-5{opacity:0.22;}.cls-6{fill:#fff;}.cls-7{fill:#101427;}.cls-8{fill:#19223c;}.cls-9{fill:#f6b49a;}.cls-10{fill:#e58c80;}.cls-11,.cls-28{fill:#e4dfdd;}.cls-12{fill:#f4b39e;}.cls-13{fill:#1a253f;}.cls-14{fill:#11182c;}.cls-15{fill:#d4cecc;}.cls-16{fill:#0b0f1f;}.cls-17{fill:#1f2d52;}.cls-18{fill:#f39b85;}.cls-19{fill:#c8c2bd;}.cls-20{fill:#c4c1bf;}.cls-21{fill:#f4f4f4;}.cls-22{fill:#f6bcb5;}.cls-23{fill:#1b8fa2;}.cls-24{fill:#d7d3d9;}.cls-25{fill:#39a4af;}.cls-26{fill:#e6e1e8;}.cls-27{fill:#8fbcc1;}.cls-29{fill:#83abb0;}.cls-30{fill:#72402c;}.cls-31{fill:#f4aba0;}.cls-32{fill:#f6c0ab;}.cls-33{fill:#e0dfe6;}.cls-34{fill:#490600;}.cls-35{fill:#630c00;}.cls-36{fill:#ccd0cd;}.cls-37{fill:#8e1003;}.cls-38{fill:#6ba4a4;}.cls-39{fill:#5b8c8c;}.cls-40{fill:#f7baa5;}.cls-41{fill:#cbc9c7;}.cls-42{fill:#7d0f00;}.cls-43{fill:#f5ae96;}.cls-44{fill:#f3a099;}.cls-45{fill:#8b4c37;}.cls-46{fill:#d8d4d3;}.cls-47{fill:#f7ba9b;}.cls-48{fill:#6c0d00;}.cls-49{fill:#540800;}.cls-50{fill:#eba985;}.cls-51{fill:#f3a497;}.cls-52{fill:none;stroke:#72402c;stroke-linecap:round;stroke-linejoin:round;stroke-width:1.11px;}.cls-53{fill:#73283d;}.cls-54{fill:#f4ae92;}</style></defs><title>Zeichenfläche 1</title><g class="cls-1"><g id="Ebene_1" data-name="Ebene 1"><polygon class="cls-2" points="415.29 729.85 384.92 729.85 447.48 593.17 477.86 593.17 415.29 729.85"/><g class="cls-3"><path class="cls-4" d="M80.46,337s0,0,0,0a0,0,0,0,0,0,0Z"/><path class="cls-4" d="M80.35,337.83c-6.64,20.6-3.71,43.2,4,63.12a.14.14,0,0,0,.27-.07c-5.48-20-10-42.58-4.06-63a.12.12,0,0,0-.23-.07Z"/><path class="cls-4" d="M93.84,409.42c-3.15-6.2-3.86-13-6.28-19.47a.37.37,0,0,0-.72.2c1.14,6.72,3,13.66,6.34,19.66.24.43.88.05.66-.39Z"/><path class="cls-4" d="M99.38,375.26c-3.58-22,1.38-44.85,1.46-67,0-.17-.27-.17-.28,0-.55,11.53-2.16,22.94-3,34.44a133.43,133.43,0,0,0,1.7,32.56c0,.05.08,0,.07,0Z"/></g><g class="cls-5"><path class="cls-6" d="M101.36,390.77c-2.93-11.31-6.44-22-7.88-33.7-1.37-11.13-.86-21.93-.74-33.07,0-.35-.55-.44-.62-.09-2.31,10.68-1.54,22.6-.07,33.35,1.53,11.2,3.9,23.48,9.19,33.56,0,.07.14,0,.12-.05Z"/><path class="cls-6" d="M84.66,372.1c-.54-9.18-1.32-18.3-1.13-27.5s1.34-18.65.85-28a.23.23,0,0,0-.45,0c-.6,9.29-1,18.64-1.22,28s.76,18.31,1.38,27.5c0,.36.59.36.57,0Z"/><path class="cls-6" d="M75.21,389.89c-3.15-10.77-3.14-22.41-2.1-33.5.54-5.71,1.38-11.38,2.29-17,.8-4.94,2.1-9.92,2.1-14.94a.51.51,0,0,0-1-.13c-1.63,5.24-2.06,10.93-2.86,16.35s-1.55,11.06-2,16.63c-.88,11.21-.46,22,3.17,32.74a.2.2,0,0,0,.38-.11Z"/><path class="cls-6" d="M91.28,290.4c.18-9.52,1.54-19,1-28.57a.35.35,0,0,0-.69,0c-.63,9.5-.77,19.05-.71,28.57a.19.19,0,0,0,.38,0Z"/></g><path class="cls-7" d="M539.93,874.16s-24.44,19.71-31.65,24c-6.95,4.12-12.5,8.16-12.95,10.15-1.26,5.82,8.23,6.22,12.68,5.73,11.33-1.25,21.73-6.25,32.42-8.68,5.46-1.24,17.49-2.86,21-7.8,3.75-5.29,2.27-16-1-21.15C548.07,883.44,539.93,874.16,539.93,874.16Z"/><path class="cls-7" d="M635.17,874.16s24.44,19.71,31.64,24c7,4.12,12.51,8.16,12.94,10.15,1.29,5.82-8.21,6.22-12.66,5.73-11.32-1.25-21.72-6.25-32.41-8.68-5.47-1.24-17.5-2.86-21-7.8-3.75-5.29-2.27-16,1-21.15C627.05,883.44,635.17,874.16,635.17,874.16Z"/><path class="cls-8" d="M516.31,635.45c3.13,18.35,15.12,24.9,29.3,25.74s24.39-7.57,26.1-21.93c-.12-7,21.58-182.52,21.58-182.52V385.22H515.37s-4.88,43.86-4.88,87.7C510.49,540.7,515.19,625,516.31,635.45Z"/><path class="cls-8" d="M516.31,635.45c3,22.58,6.28,244.26,6.28,244.26,6.82,1.26,34.5,2.84,40.36-4.13,0,0,8.91-123.28,11.41-160.11s-4.49-50.69-2.65-76.21C570.82,623.82,516.31,635.45,516.31,635.45Z"/><path class="cls-8" d="M656.62,635.45c-3.13,18.35-15.15,24.9-29.3,25.74s-24.4-7.57-26.11-21.93c.11-7-21.58-182.52-21.58-182.52V385.22h77.92s4.86,43.86,4.86,87.7C662.41,540.7,657.73,625,656.62,635.45Z"/><path class="cls-8" d="M656.62,635.45c-3,22.58-2.57,244.26-2.57,244.26-6.82,1.26-38.21,2.84-44.06-4.13,0,0-8.92-123.28-11.42-160.11s4.49-50.69,2.64-76.21C602.12,623.82,656.62,635.45,656.62,635.45Z"/><path class="cls-9" d="M604.18,123h-34.6c1.29,3,1.94,33.72-8.44,47.67,0,0-2.72,38.75,26.39,38.75S614,170.68,614,170.68C602.6,156.56,603.76,126.77,604.18,123Z"/><path class="cls-10" d="M648.82,175.71c-5.89-2.09-23.22-1.3-37-8.08,0,0-3.95,15.21-22.69,16.49a31.93,31.93,0,0,1-26-16.49c-13.77,6.78-31.94,6-37.82,8.08C519,178,501.59,447.46,504.7,449.94c14.64,11.71,55.25,16.65,84.42,17.67,29.18-1,66.66-6,81.32-17.67C673.53,447.46,655.1,178,648.82,175.71Z"/><path class="cls-9" d="M463,429.73a56,56,0,0,1-1.49,6c-1.83,4.1-3.23,8.84-7,13.18-4.35,5-7.19,9.76-8.73,16.21-.58,2.38-1,7,.44,7.72,2.59,1.22,3.36-1.05,4.36-5,.28-1.09,2.09-3.95,2.51-6.2.48,6.85-5.54,17.95-4.36,26.18.7,5,2.51,7.91,7.9,6.69,6.61-1.49,5.17-7,8.64-11.37,1.4-1.78,5.29-3.13,7-10.33a57.56,57.56,0,0,0,1.47-13c-.1-5.2-.5-12.2,0-16.18.17-1.29-.05-.62,3.59-11Z"/><path class="cls-10" d="M456.35,433.53c2.12-9.52,19.84-113.39,20.26-115.11,5.74-24.29,35.52-8.11,31.44,12.85-1.87,9.52-26.58,107.36-27.7,110.66C473.87,440.65,461.69,437.3,456.35,433.53Z"/><path class="cls-10" d="M477,317.06c.25-1.2,11.27-69.71,14.49-91.85s14.64-47.44,34.8-49.5c0,0,10.05,7,7.68,29-2.08,19.25-19.42,107.29-26.28,127.82C506.18,337,472.52,337.87,477,317.06Z"/><path class="cls-9" d="M712.07,429.73a50.43,50.43,0,0,0,1.5,6c1.8,4.1,3.21,8.84,7,13.18,4.37,5,7.21,9.76,8.74,16.21.57,2.38,1.05,7-.43,7.72-2.6,1.22-3.35-1.05-4.36-5-.28-1.09-2.1-3.95-2.52-6.2-.47,6.85,5.55,17.95,4.37,26.18-.7,5-2.53,7.91-7.91,6.69-6.6-1.49-5.15-7-8.64-11.37-1.39-1.78-5.28-3.13-7-10.33a55.91,55.91,0,0,1-1.47-13c.11-5.2.5-12.2,0-16.18-.16-1.29.06-.62-3.58-11Z"/><path class="cls-10" d="M718.72,433.53c-2.11-9.52-19.83-113.39-20.25-115.11-5.73-24.29-35.51-8.11-31.43,12.85,1.86,9.52,26.57,107.36,27.7,110.66C701.22,440.65,713.4,437.3,718.72,433.53Z"/><path class="cls-10" d="M698.11,317.06c-.24-1.2-11.28-69.71-14.5-91.85s-14.65-47.44-34.79-49.5c0,0-10.06,7-7.7,29,2.09,19.25,19.43,107.29,26.3,127.82C668.89,337,702.58,337.87,698.11,317.06Z"/><g class="cls-3"><path class="cls-11" d="M569.2,147.52c1.08,0,24.68-5.08,38.06,9.21-3.87-14.4-3.32-31.52-3.08-33.72h-34.6C570,124,571.45,138.15,569.2,147.52Z"/></g><path class="cls-12" d="M538.17,43.71a120.4,120.4,0,0,0,.64,31.88c1.75,11.81,2.44,25.6,4.78,37.35,5.93,29.53,14.44,30.94,33.13,28.66,38.63-4.71,34.17-38.95,34.17-38.95s5.5,8,12.07-.22c2.78-3.46,6.55-15,1.08-37.39C614.45,26,538.17,43.71,538.17,43.71Z"/><path class="cls-13" d="M640.16,54.81c-13.8-3.85-5.48-11.3-16.06-23.41-8.42-9.61-25.53-.25-42.93-24C569.83-8.12,528.32,2.28,539.93,40.7l3.21,10.07c18.22-6,20.45.64,36.39,10.71C600.46,74.7,622.1,71.73,640.16,54.81Z"/><path class="cls-14" d="M607.63,69.7c4.83,5.88-2.56,8.41,1.42,15.9a42.56,42.56,0,0,1,1.78,5.59c1.44-1.5,3.14-2.7,4.89-2.7a8.38,8.38,0,1,1,0,16.75c-1.7,0-3.43-1.14-4.83-2.59-.86,4.91-2.47,14.53-5.23,22.87,0,0,18.44-3.73,23.91-46.16A130.18,130.18,0,0,0,630,62.62,45.71,45.71,0,0,1,607.63,69.7Z"/><path class="cls-14" d="M539.93,40.7s-5.17.55-5.17,10.87a53.83,53.83,0,0,0,3.51,19.9l4.87-20.7Z"/><path class="cls-14" d="M575.77,109.91c-12.31,3.23-21.07,1.9-25.37,2.06-5.57.22-5.26,16.4,1.57,26.51,5,7.44,21.33,9.43,37.62,0,1.47-.85,5-6.48,1.07-23C589.27,109.77,582.08,108.26,575.77,109.91Z"/><path class="cls-15" d="M612.3,98.63a29.8,29.8,0,0,0,2.52-2.94c1.84-2.31,4.66-.18,3.17,2.37C616.73,100.24,612.3,98.63,612.3,98.63Z"/><path class="cls-16" d="M550,90.6c2.71,0,2.72-4.22,0-4.22s-2.72,4.22,0,4.22Z"/><path class="cls-17" d="M555.33,76.18c-3.73-5-13.83-5.84-16.48.65-1.14,2.77,2.37,4.32,4.46,3.42a11.64,11.64,0,0,1,9.24-.45c1.91.61,4.09-1.87,2.78-3.62Z"/><path class="cls-16" d="M580,90.6c2.72,0,2.72-4.22,0-4.22s-2.72,4.22,0,4.22Z"/><path class="cls-17" d="M574.33,78.84a14.11,14.11,0,0,1,7-.29c2.35.4,4.54,1.76,6.85,2A2.85,2.85,0,0,0,591,77.66c-.95-7.56-14.89-7.35-19.07-2.88-1.58,1.69,0,4.83,2.36,4.06Z"/><path class="cls-18" d="M592.31,93.65c-6.45-3.48-21.71,8.3-11.6,13.9S598.75,97.13,592.31,93.65Z"/><path class="cls-18" d="M540.89,93.6c.54,5.09,1.18,10.23,2.1,15.15a11.59,11.59,0,0,0,4.16-1.17C554.76,103.37,547.46,95.67,540.89,93.6Z"/><g class="cls-3"><path class="cls-19" d="M554.62,79.29c.62,1.19,1.39,2.29,2,3.47a40,40,0,0,1,1.79,4.08c0,.13.28.13.27,0-.22-2.79-2.16-5.59-4.07-7.53,0,0,0,0,0,0Z"/></g><g class="cls-3"><path class="cls-19" d="M559.63,90.76A31.08,31.08,0,0,1,558.51,102c-.43,1.6-2,5-1.42,6.78,1,3.17,6.77,2.13,8.85,1.19.11,0,0-.23-.07-.18-2.58,1-8,1.45-8-2.59,0-1.8.87-3.83,1.3-5.57a26.76,26.76,0,0,0,.63-10.87c0-.1-.18-.08-.17,0Z"/></g><g class="cls-3"><path class="cls-20" d="M566.43,133.21a9.62,9.62,0,0,1,4.3-1,.31.31,0,0,0,.16-.58c-1.58-1.17-3.68-.17-4.94,1-.35.31.09.85.48.63Z"/></g><path class="cls-21" d="M556,115.46c7.23,1.07,19.71-1.83,19.71-1.83,1,10.15-12.27,15.29-14.48,9.81C558.91,117.65,556,115.46,556,115.46Z"/><path class="cls-22" d="M135.84,858.23c1.57,6.17,2.27,21.64,2.27,21.64-.74,6.38-8.41,13.7-21.67,21.44,0,0-7.07,6.65-6.43,8.15,1.69,3.93,3.5,3.66,7.08,3.27,9.09-1,10-4.84,18.62-6.79,4.37-1,13.06-2,15.87-6,3.44-4.83.36-10.21-.09-16.12l.24-27.38Z"/><path class="cls-8" d="M116.44,901.31c-5.58,3.3-10,6.54-10.38,8.14-1,4.67,6.6,5,10.15,4.58,9.11-1,36.1-13.21,36.1-13.21,3-4.24,2.07-10.7-.55-14.81C147.92,895.7,122.68,907.92,116.44,901.31Z"/><path class="cls-23" d="M136.21,876.8C134.35,870.17,124.3,821,116.63,780c-10.49-56.13-.88-82.72-4.86-100,4.37-34,49.48-29.27,52.25,2.85,2.18,73.07-10.84,194.28-10.84,194.28s-2.52,1.51-8.13,1.46A23.71,23.71,0,0,1,136.21,876.8Z"/><path class="cls-23" d="M168.42,463.92l-78-3.12c-19.63,54.22-9.21,119.25,7.07,182,4.44,17.09,14,31.47,15.26,51.49,1.18,19.28,49.46,24.23,51,5.16,3.57-44.58.43-81.71,5.46-149.35Z"/><path class="cls-22" d="M85.79,375.32c-14.46-7.89-18.29,9.34-22.58,19.06-5.82,13.19-33,64.52-35.86,67.71S21.89,469.14,17.2,472c-5.39,3.26-9.34,6.72-12.6,12.09-1.21,2-3,6-1.84,7.1,2,1.86,3.33,0,5.41-3.26.56-.9,3-3,4.06-4.87C10.66,489.34,2,497.6.66,505.37c-.81,4.72,0,7.89,5.19,8.35,6.39.58,6.69-4.78,11.12-7.75,1.76-1.19,5.68-1.28,9.28-7.29a54.13,54.13,0,0,0,5.14-11.35c1.42-4.72,3.1-11.16,4.73-14.6s43-55.24,48.43-67.48C91,390.76,91.6,378.5,85.79,375.32Z"/><path class="cls-24" d="M22.17,459.58c23.48-33.41,28.84-75.5,42.67-83.31,3.17-8.12,9.81-10.76,22.22-3.27s10.37,7.65,7.73,26C92.22,417.07,67,443.52,55.3,458.78c-2.84,3.72-9.85,11.19-11.81,13.84C37.38,470.8,25.89,464.54,22.17,459.58Z"/><path class="cls-24" d="M61.18,378.21C63.81,357.34,75,356.63,92,297.92c7.17-24.84,21.86-39.95,40.92-37.52a18.9,18.9,0,0,1,2.18.4,2.66,2.66,0,0,1,1.09.54c.47.38,20,11.65,15.38,32.15-2.73,12-15.44,38.36-31.63,61.79-13.36,19.34-18.84,44-27.15,45.76-18.3,3.91-21.07,1.71-23.69-1C61.94,392.54,58.35,400.78,61.18,378.21Z"/><path class="cls-22" d="M251,375.32c14.47-7.89,18.29,9.34,22.58,19.06,5.85,13.19,33,64.52,35.87,67.71s5.48,7.05,10.15,9.87c5.39,3.26,9.34,6.72,12.6,12.09,1.21,2,3,6,1.87,7.1-2,1.86-3.35,0-5.42-3.26-.56-.9-3-3-4.09-4.87,1.58,6.32,10.26,14.58,11.59,22.35.79,4.72,0,7.89-5.2,8.35-6.39.58-6.69-4.78-11.09-7.75-1.8-1.19-5.7-1.28-9.32-7.29a53.09,53.09,0,0,1-5.13-11.35c-1.41-4.72-3.09-11.16-4.73-14.6s-43-55.24-48.42-67.48C245.83,390.76,245.23,378.5,251,375.32Z"/><path class="cls-24" d="M314.68,459.58c-23.5-33.41-28.84-75.5-42.69-83.31-3.15-8.12-9.78-10.76-22.2-3.27s-10.35,7.65-7.74,26c2.58,18.05,27.84,44.5,39.51,59.76,2.81,3.72,9.83,11.19,11.8,13.84C299.44,470.8,311,464.54,314.68,459.58Z"/><path class="cls-24" d="M275.66,378.21c-2.62-20.87-13.85-21.58-30.79-80.29C237.71,273.08,223,258,204,260.4a19.06,19.06,0,0,0-2.19.4,2.58,2.58,0,0,0-1.07.54c-.48.38-20,11.65-15.38,32.15,2.71,12,15.45,38.36,31.61,61.79,13.35,19.34,18.85,44,27.15,45.76,18.32,3.91,21.08,1.71,23.7-1C274.9,392.54,278.51,400.78,275.66,378.21Z"/><path class="cls-22" d="M201.68,858.23c-1.54,6.17-2.25,21.64-2.25,21.64.74,6.38,8.4,13.7,21.65,21.44,0,0,7.09,6.65,6.44,8.15-1.69,3.93-3.5,3.66-7.06,3.27-9.12-1-10.06-4.84-18.64-6.79-4.38-1-13.07-2-15.88-6-3.42-4.83-.36-10.21.1-16.12l-.23-27.38Z"/><path class="cls-8" d="M221.08,901.31c5.59,3.3,10,6.54,10.39,8.14,1,4.67-6.59,5-10.16,4.58-9.1-1-36.07-13.21-36.07-13.21-3-4.24-2.1-10.7.52-14.81C189.61,895.7,214.86,907.92,221.08,901.31Z"/><path class="cls-25" d="M201.31,876.8c1.87-6.63,11.9-55.78,19.58-96.84,10.51-56.13.9-82.72,4.87-100-4.37-34-49.48-29.27-52.25,2.85-2.19,73.07,10.83,194.28,10.83,194.28s2.53,1.51,8.14,1.46A23.75,23.75,0,0,0,201.31,876.8Z"/><path class="cls-25" d="M89.79,463.92l157.33-3.12c19.63,54.22,9.22,119.25-7.05,182-4.45,17.09-14.06,31.47-15.29,51.49-1.17,19.28-49.45,24.23-51,5.16-3.59-44.58-.45-81.71-5.47-149.35,0,0-27.27-21.88-40.88-36.36S89.79,463.92,89.79,463.92Z"/><path class="cls-26" d="M257.13,472.62c-6.6-68.21-22.89-182.17-46.35-211.28,0,0-26.71-7.67-34.08-14-5.42-4.69-5.09,1.21-8.21-2.82v-.16a.46.46,0,0,1-.07.07l-.07-.07v.16c-3.1,4-2.79-1.87-8.2,2.82-7.37,6.37-34.08,14-34.08,14C102.6,290.45,86.3,404.41,79.72,472.62c23.94,9.65,72.84,10.21,88.7,9C184.28,482.83,233.19,482.27,257.13,472.62Z"/><path class="cls-27" d="M199.94,117.79c-14.52-18.16-51-22.56-68,3.4-19.68,30.06-19.07,89.39,35.86,89.39S223.36,147.1,199.94,117.79Z"/><path class="cls-22" d="M191.75,254.94c-1.51-3.29-8.1-15.13-7.1-25,1.48-14.75,4.29-31.24,8.17-36.76l-6.18-5c-6.16,1-12.44,1.95-18.52,3.25-6.09-1.3-12.37-2.26-18.53-3.25l-6.19,5c3.79,5.36,6.54,21.12,8.07,35.53,1.1,10.68-5.95,23.71-7.12,26.56-7.87,3-15.83,5.39-17.81,6a55.08,55.08,0,0,0,2.64,5.35,40.1,40.1,0,0,0,13.91,13.79c9.44,5.6,20.7,8.43,31.66,6.18,15.47-3.18,26.25-13.19,34.58-25.6C206.29,260,198.9,257.71,191.75,254.94Z"/><path class="cls-28" d="M186.64,188.18c-6.16,1-12.44,1.95-18.52,3.25l-20,16.1c3.82,12,20.84,13.5,21.28,13.56,11.88,1.76,15.49,6.29,15.49,6.29,1.43-15.18,3.86-28.49,7.9-34.24Z"/><path class="cls-29" d="M172,110.42c-5.16-3.71-6-13.13-4.45-18.63,2.08-7.42,9.17-11.38,16.64-11.52a39.81,39.81,0,0,1,16,2.79c4.23,1.83,10.35,4.33,12.66,8.51,1.77,3.21.84,8.37-.48,11.57-2.83,6.91-10.48,12.44-17,15.59Z"/><path class="cls-29" d="M166.61,89.15a22.77,22.77,0,0,1,13.83-10.1,15.15,15.15,0,0,1,8.39,0c3.37,1.12,4.6,3.83,7.1,6a.53.53,0,0,0,.87-.51c-1-6.28-9.32-8.42-14.64-7.42a22.13,22.13,0,0,0-15.59,12s0,0,0,0Z"/><path class="cls-29" d="M208.2,113.72c4.3-4.55,8-9.89,7.22-16.45-.56-5-3.93-9.63-8.95-10.75a.48.48,0,0,0-.37.88c4.4,3.15,7.83,6.07,7.86,12,0,5.66-2.93,9.72-5.82,14.27,0,0,0,.09.06.06Z"/><path class="cls-29" d="M217,100.83c.59-6.25-.92-13.43-6.73-16.86-3.83-2.26-11.46-4.62-15.42-1.63a.29.29,0,0,0,.22.52c4.92-.66,9.63-.49,14.12,2,5.41,3,7.45,10.28,7.76,16,0,0,0,0,0,0Z"/><path class="cls-22" d="M197.29,146.5c-6.9-16.27-20.39-18.3-20.39-18.3a80.36,80.36,0,0,0-8.21-1.45v-.3c-.54,0-1.09.1-1.62.15s-1.09-.11-1.64-.15v.3a79.7,79.7,0,0,0-8.2,1.45s-13.48,2-20.39,18.3c-4.4,10.38-2.13,15.2-1.53,25,.6,9.31.28,11.17,1.95,18.74,2.17,9.64,10.27,17.64,18.58,23.66a20.57,20.57,0,0,0,22.44,0c8.31-6,16.43-14,18.57-23.66,1.69-7.57,1.37-9.43,2-18.74C199.41,161.7,201.68,156.88,197.29,146.5Z"/><path class="cls-27" d="M195.71,175.7c1.29.16,9.18,5.76,9.18,5.76,13-38.33,1.35-70.4-24.81-76.48-37.93-8.82-64.69,18.32-59.67,62.88.61,5.33,9.07,20.32,15.5,20.32.34-15.34,3.9-37.61,29-49.21C183.4,130.45,192.52,156.39,195.71,175.7Z"/><path class="cls-22" d="M195.71,175.7c1.64-6.62,11.86-12.62,13.14-2.2,1.09,8.58-8.8,26.31-13.23,10.11Z"/><path class="cls-27" d="M138.47,180.35a47.71,47.71,0,0,1,12.23-27.41c6.94-7.5,15.8-11.54,24.07-17.2a.52.52,0,0,0-.4-.94c-19.82,5.5-35.53,25.32-36.89,45.55,0,.64.92.62,1,0Z"/><path class="cls-27" d="M170.63,137.24c1.29,1.62,3.12,2.77,4.53,4.34a43.24,43.24,0,0,1,4.84,6.93c2.37,4,4.14,8.28,6.39,12.34.32.57,1.14.16,1-.43a45.43,45.43,0,0,0-6.57-15.4c-2.06-3.19-5.62-8.63-9.91-8.52a.44.44,0,0,0-.3.74Z"/><path class="cls-27" d="M173.65,136.7c1.22,2.74,4.34,4.54,6.34,6.76a44.42,44.42,0,0,1,6.21,8.76c4.23,7.91,4.22,15.6,4.89,24.28a.46.46,0,0,0,.89.12c2.12-7.93-.36-17.5-3.95-24.66-2.5-5-8.2-14.63-14.33-15.36,0,0-.07.06,0,.1Z"/><path class="cls-21" d="M157.77,196.39a61.15,61.15,0,0,0,15.85-.1s-1,5.67-7.87,5.67S157.77,196.39,157.77,196.39Z"/><g class="cls-3"><path class="cls-11" d="M163.94,205.45a8.37,8.37,0,0,1,3.77-.9.28.28,0,0,0,.14-.52c-1.38-1-3.24-.14-4.34.87-.3.27.09.75.43.55Z"/></g><path class="cls-30" d="M182.8,176.68a1.86,1.86,0,0,0,0-3.72,1.86,1.86,0,0,0,0,3.72Z"/><path class="cls-29" d="M177.34,167.92c1.87.06,3.28-1.42,5.26-1.22,1.78.19,3.65,1.5,5.38.79a1.07,1.07,0,0,0,.63-1.55c-1-1.88-4.48-2.61-6.47-2.47s-4.92,1.36-5.55,3.45a.79.79,0,0,0,.75,1Z"/><path class="cls-31" d="M190.61,178.76c-5.69-3.07-19.16,7.33-10.24,12.26S196.29,181.83,190.61,178.76Z"/><path class="cls-30" d="M148.67,176.68a1.86,1.86,0,0,0,0-3.72,1.86,1.86,0,0,0,0,3.72Z"/><path class="cls-29" d="M154.9,166.92c-.64-2.09-3.51-3.31-5.57-3.45s-5.46.59-6.47,2.47a1.08,1.08,0,0,0,.63,1.55c1.72.71,3.62-.6,5.38-.79,2-.21,3.39,1.28,5.27,1.22a.8.8,0,0,0,.76-1Z"/><path class="cls-31" d="M140.89,178.76c5.67-3.07,19.14,7.33,10.22,12.26S135.2,181.83,140.89,178.76Z"/><g class="cls-3"><path class="cls-19" d="M157.51,167.64c1.43,2.54,3.4,4.61,4.5,7.36.05.11.25.11.24,0-.31-2.8-2.84-5.42-4.71-7.35,0,0,0,0,0,0Z"/></g><g class="cls-3"><path class="cls-19" d="M163.59,180.31a16,16,0,0,1-.59,5.91c-.22.81-1,2.48-.64,3.34.67,1.72,4.46,1.16,5.7.65.1,0,.07-.21-.05-.17a7.11,7.11,0,0,1-3.55.05c-1.87-.42-1.53-1.67-1.16-3.12a14.66,14.66,0,0,0,.44-6.68c0-.08-.15-.06-.15,0Z"/></g><path class="cls-32" d="M390,732.22c-.59,3.22-1.55,3.46-3.49,5-2.22,1.77-3.29,3.9-4.34,4.83-1.63,1.44-3.17,2.44-2.21,3.68,1.3,1.63,3.6-2,3.95-1.85.17.09-2,3.13-2.86,5.09-.49,1.08.88,2.51,1.93,1.38,1.23-1.31,2.69-4.68,3-4.35s-1.54,3.69-2.18,6.17a1.15,1.15,0,0,0,2.15.7c1-1.42,2.45-5.39,2.87-5.34.25,0-.65,2.27-1.13,4.75-.36,1.73,1.67,2.16,2.3.4,1.11-3.08,1.83-6.44,2.08-6.37.7.21.23,3.69,1.48,3.94,1.73.33,1.27-2.86,1.27-7.28,0-2.87-1-4.16,1.08-9Z"/><path class="cls-33" d="M425.72,650.87c4.54-5,14-9.29,19.54-2.28s2.37,13.24-2.58,17.09c-10.48,8.14-31.75,40.8-46.06,74.33l-10.47-4.69S394.11,685.44,425.72,650.87Z"/><path class="cls-32" d="M512.13,732.22c.58,3.22,1.57,3.46,3.5,5,2.22,1.77,3.28,3.9,4.34,4.83,1.63,1.44,3.17,2.44,2.2,3.68-1.28,1.63-3.61-2-3.94-1.85-.17.09,2,3.13,2.85,5.09.51,1.08-.87,2.51-1.93,1.38-1.22-1.31-2.68-4.68-3-4.35s1.54,3.69,2.18,6.17a1.14,1.14,0,0,1-2.14.7c-1-1.42-2.46-5.39-2.86-5.34s.63,2.27,1.12,4.75c.35,1.73-1.67,2.16-2.32.4-1.1-3.08-1.82-6.44-2.06-6.37-.71.21-.22,3.69-1.49,3.94-1.74.33-1.29-2.86-1.26-7.28,0-2.87,1-4.16-1.08-9Z"/><path class="cls-33" d="M476.38,650.87c-4.58-5-14-9.29-19.55-2.28s-2.39,13.24,2.58,17.09c10.48,8.14,31.76,40.8,46.06,74.33l10.46-4.69S508,685.44,476.38,650.87Z"/><path class="cls-34" d="M419.17,907.55l-3.74,2.4a14.57,14.57,0,0,1-.08,1.59c-.17.91.13,1.67,2.49,2.06s12.16,1.58,20.91-1.42c7.86-2.69,8.17-4,7.57-5.27s-.49-1.16-.43-1.93S419.17,907.55,419.17,907.55Z"/><path class="cls-35" d="M417.15,900.1c-3.54,3.78-1.72,9.85-1.72,9.85,6.4,2.62,24.89,1.68,30.46-5a7.31,7.31,0,0,0-5.07-9.05c-1.7-.58-3,.62-8.07,2C430,898.74,422.39,894.48,417.15,900.1Z"/><path class="cls-32" d="M443.27,898.67S443.06,901,438,901c-3.82,0-5.08-2.3-5.08-2.3s-3.39-46.28-4.26-46.92c-3.66-2.63-5.19-10-2.07-15.3.27-.46-1.07-44.75-1.07-44.75h22.13s-4.33,41.86-4.51,53.16S443.27,898.67,443.27,898.67Z"/><path class="cls-36" d="M439.64,879a37,37,0,0,1-9.74.06c1.39,9.74,3,19.68,3,19.68S434.2,901,438,901c5,0,5.25-2.35,5.25-2.35s.65-9.79.21-20.38C442.55,878.45,440.48,878.86,439.64,879Z"/><path class="cls-21" d="M443.58,877.51c0-.17-.06-.81-.25-.86a1,1,0,0,0-1.07.7c.07-.36.22-.69-.33-.79a1.41,1.41,0,0,0-1.44,1,.72.72,0,0,0-.49-.79c-.66-.2-1.19.41-1.39.87,0-.42-.21-.72-.73-.71s-.92.66-1.11.54-.11-.39-.21-.49a.9.9,0,0,0-.7-.22,1.59,1.59,0,0,0-1.22.78c-.17-.93-1.12-.82-1.53,0-.17-.17-.11-.48-.46-.57a.64.64,0,0,0-.79.54c-.16-.19-.24-.56-.56-.63-.47-.11-.53.34-.67.56-.39-.29-.54-.76-1.17-.47s-.44.64-.21,1c-.71-.45-1.64.17-.94.88.27.27,1.57.9,1.73,1.22,0,0,1.19.63,7.22.42s6.26-.92,6.26-.92a13.78,13.78,0,0,0,1.65-1.95C445.62,876.46,444.07,876.75,443.58,877.51Z"/><path class="cls-34" d="M482.91,907.55l3.76,2.4a13.05,13.05,0,0,0,.06,1.59c.16.91-.13,1.67-2.47,2.06s-12.18,1.58-20.91-1.42c-7.88-2.69-8.16-4-7.58-5.27s.48-1.16.43-1.93S482.91,907.55,482.91,907.55Z"/><path class="cls-35" d="M484.94,900.1c3.53,3.78,1.73,9.85,1.73,9.85-6.42,2.62-24.9,1.68-30.47-5a7.3,7.3,0,0,1,5.07-9.05c1.69-.58,3,.62,8.07,2C472.06,898.74,479.69,894.48,484.94,900.1Z"/><path class="cls-32" d="M458.83,898.67s.2,2.35,5.23,2.35c3.82,0,5.08-2.3,5.08-2.3s3.39-46.28,4.29-46.92c3.64-2.63,5.17-10,2.05-15.3-.28-.46,1.06-44.75,1.06-44.75H454.43s4.32,41.86,4.5,53.16S458.83,898.67,458.83,898.67Z"/><path class="cls-36" d="M462.44,879a37,37,0,0,0,9.74.06c-1.38,9.74-3,19.68-3,19.68s-1.26,2.3-5.08,2.3c-5,0-5.23-2.35-5.23-2.35s-.67-9.79-.22-20.38C459.52,878.45,461.61,878.86,462.44,879Z"/><path class="cls-21" d="M458.51,877.51c.05-.17.06-.81.25-.86a1,1,0,0,1,1.06.7c-.07-.36-.22-.69.35-.79a1.4,1.4,0,0,1,1.43,1,.71.71,0,0,1,.49-.79c.65-.2,1.19.41,1.38.87,0-.42.21-.72.74-.71s.91.66,1.11.54.1-.39.21-.49a.9.9,0,0,1,.7-.22,1.57,1.57,0,0,1,1.21.78c.18-.93,1.11-.82,1.54,0,.15-.17.1-.48.45-.57a.64.64,0,0,1,.79.54c.16-.19.24-.56.56-.63.47-.11.53.34.68.56.39-.29.53-.76,1.17-.47s.42.64.21,1c.69-.45,1.64.17.93.88-.26.27-1.57.9-1.73,1.22,0,0-1.19.63-7.23.42s-6.25-.92-6.25-.92a15.26,15.26,0,0,1-1.65-1.95C456.47,876.46,458,876.75,458.51,877.51Z"/><path class="cls-33" d="M452.29,640.45c-21.84,0-27.71,78.13-28.21,77.91,0,0,3.28,8.45,28.06,8.45s28.39-8.92,28.39-8.92S474.1,640.45,452.29,640.45Z"/><path class="cls-37" d="M481.38,725.41l-.85-7.52-5.85,1.59L470,646.19l-4.54-2.52L465.25,721s-.4,4.16-13.23,4.16S438.79,721,438.79,721l.21-77.29-5.25,2-4.15,73.69-5.47-1.42s-.84,7.56-.95,7.52-14.52,39.77-14.52,93.42c0,0,13.68,4.57,43.48,4.57s43.74-4.57,43.74-4.57C495.88,762.59,481.38,725.41,481.38,725.41Z"/><path class="cls-35" d="M480.53,717.88s-8.76,3.77-28.24,3.77-28.16-3.77-28.16-3.77l-.95,7.53s9.07,3.77,29.12,3.77,29.09-3.77,29.09-3.77Z"/><path class="cls-21" d="M441.79,640.45c-2.17-.11-6.57,1.75-7.11,4.92-.44,2.65,1.77,4,4.27,3.51a3,3,0,0,0-.93,4.87c2.94,3.3,6-.64,6.07-.61-.48,1.73-.61,4.64,2.28,5.34s4.52-1.77,4.75-3.94c.64,1.63,1.57,4.05,4.15,3.9,4.35-.26,4-5,3.71-5.65.54,1.71,3.61,3.59,5.78,2.1,3.79-2.63,1-5.66.6-6.86a3.51,3.51,0,0,0,3.78.51,3.93,3.93,0,0,0,1.48-4.25c-1.72-3.36-4.47-3.68-7.82-3.84Z"/><path class="cls-37" d="M451.36,653.32c-.94,1.09-1.16,2.64-1.78,3.92a15.91,15.91,0,0,1-2.93,4.13,7.58,7.58,0,0,1-3.31,2.28c-1.08.3-1.26-1.06-.91-1.75,1.05-2,3.81-3.37,5.75-4.41,1-.52,2-1,3-1.45a8.43,8.43,0,0,0,1.06-.59c.12-.07.73-.39.25-.2,1.33-.52.75-2.68-.61-2.17.53-.21-.42.08-.57.12a8.07,8.07,0,0,0-1.79.62,40,40,0,0,0-4.61,2.36c-2.59,1.54-5.92,3.9-5.39,7.32.6,4,5.13,3.1,7.36,1.39a18.5,18.5,0,0,0,4.24-4.84c1.08-1.63,2.78-4.17,2.21-6.21A1.2,1.2,0,0,0,451.36,653.32Z"/><path class="cls-37" d="M451.54,654c-.9,3.17-1,6.59-1.91,9.81A39.89,39.89,0,0,1,445,674.43c-.29.44.27,1,.7.7,3.05-1.73,4.37-5.55,5.45-8.68,1.12-3.31,3-9,1.65-12.47a.68.68,0,0,0-1.3,0Z"/><path class="cls-37" d="M451.11,653.84c-.49,2.26,1,4.84,2,6.81a20.76,20.76,0,0,0,4.2,6.1c2.73,2.59,6.49,1.43,7.36-2.26,1.44-6-8-9.69-12.07-11.41-1.34-.56-1.93,1.62-.61,2.17-.45-.2.64.49.81.61.85.58,1.89,1,2.8,1.48,2.2,1.22,4.61,2.72,6,4.92a2.18,2.18,0,0,1-.27,2.82c-1,1.14-2.42-.66-3.09-1.42a18.59,18.59,0,0,1-3.11-5.25c-.64-1.54-.82-3.49-1.78-4.84A1.21,1.21,0,0,0,451.11,653.84Z"/><path class="cls-37" d="M451.59,654.16c-.42,5.34,1.66,11.57,2.86,16.7.92,3.82,2.09,9.34,5.56,11.75.42.3,1-.28.7-.7-5.55-8.12-4-19.4-7.86-28.08-.29-.68-1.21-.26-1.26.33Z"/><path class="cls-27" d="M392.08,645c-6.94-5.71-11.75,10.73-23.3,12,0-.45,7.52,6.85,13.77,5.7s11.14-5,12.46-14.35C395.21,646.85,393,646.11,392.08,645Z"/><path class="cls-27" d="M397.13,606.59c.11.07,1.86-1.32,8.1-1.94,11.59-.41,8.67,11,5.36,22.77,0,0-1-2-5.3-3.63C401.43,621.56,397,610.14,397.13,606.59Z"/><path class="cls-38" d="M421.42,606.62c-.14-1.15-.31-2.29-.53-3.43-.31-3.76-3.52.7-7.13,4.91-3.17,4.62-9.4,12.36-12.12,16,0,0,2.06-.43,6.52.63C412.75,626.63,422.39,614.54,421.42,606.62Z"/><path class="cls-39" d="M398.94,616.43c.27-.54.52-1.08.77-1.65,3.08.58,11.45,9,5.49,21.27,0,0-.44-2.06-3.65-4.4C398.76,628.88,398.14,620,398.94,616.43Z"/><path class="cls-27" d="M419.1,618.23c.11-1.12.2-2.23.25-3.34-5.31,4.35-14.73,9.86-21,16.47,0,0,1.87-.12,5.43,1.68C407.32,635.59,418.28,625.87,419.1,618.23Z"/><path class="cls-38" d="M397.85,623.17c.35-.51.7-1,1-1.55,2.46,1.26,7.76,11.16-.43,21.76,0,0,.14-2-2.05-4.68C394.64,635.73,396.39,626.76,397.85,623.17Z"/><path class="cls-39" d="M414.59,628.77c.37-1,.68-2.09,1-3.14-5.45,3-14.61,6.72-21.91,12.37,0,0,1.67.13,4.31,2.34C400.49,643.23,412.28,635.87,414.59,628.77Z"/><path class="cls-27" d="M395.32,629.83c.44-.45.85-.92,1.25-1.4,2,1.4,6.09,13.31-6.24,17.2,0,0,.85,1.8-.38-.94C389.16,641.84,393.2,633.34,395.32,629.83Z"/><path class="cls-38" d="M408.35,638c.54-.93,1.07-1.87,1.55-2.82-5.57,1.93-13,1.78-20,10a14.34,14.34,0,0,1,1,1.16C392.52,649.33,404.74,644.3,408.35,638Z"/><path class="cls-27" d="M509.15,645c6.94-5.71,11.76,10.73,23.3,12,0-.45-7.51,6.85-13.78,5.7s-11.14-5-12.45-14.35C506,646.85,508.19,646.11,509.15,645Z"/><path class="cls-27" d="M504.08,606.59c-.1.07-1.84-1.32-8.08-1.94-11.6-.41-8.68,11-5.35,22.77,0,0,1-2,5.27-3.63C499.81,621.56,504.23,610.14,504.08,606.59Z"/><path class="cls-38" d="M479.81,606.62c.14-1.15.33-2.29.54-3.43.29-3.76,3.5.7,7.11,4.91,3.18,4.62,9.42,12.36,12.11,16,0,0-2-.43-6.5.63C488.49,626.63,478.82,614.54,479.81,606.62Z"/><path class="cls-39" d="M502.28,616.43c-.27-.54-.53-1.08-.77-1.65-3.07.58-11.45,9-5.49,21.27,0,0,.44-2.06,3.66-4.4C502.47,628.88,503.09,620,502.28,616.43Z"/><path class="cls-27" d="M482.14,618.23c-.13-1.12-.22-2.23-.27-3.34,5.31,4.35,14.74,9.86,21,16.47,0,0-1.88-.12-5.44,1.68C493.91,635.59,482.93,625.87,482.14,618.23Z"/><path class="cls-38" d="M503.38,623.17c-.35-.51-.69-1-1-1.55-2.44,1.26-7.75,11.16.43,21.76,0,0-.14-2,2.06-4.68C506.6,635.73,504.84,626.76,503.38,623.17Z"/><path class="cls-39" d="M486.62,628.77c-.34-1-.67-2.09-1-3.14,5.46,3,14.61,6.72,21.91,12.37,0,0-1.68.13-4.31,2.34C500.75,643.23,489,635.87,486.62,628.77Z"/><path class="cls-27" d="M505.9,629.83c-.43-.45-.85-.92-1.25-1.4-2,1.4-6.08,13.31,6.24,17.2,0,0-.85,1.8.38-.94C512.08,641.84,508,633.34,505.9,629.83Z"/><path class="cls-38" d="M492.88,638c-.55-.93-1.05-1.87-1.56-2.82,5.58,1.93,13,1.78,20,10,0,0-.66.7-1,1.16C508.68,649.33,496.47,644.3,492.88,638Z"/><path class="cls-40" d="M461.53,641.8s-.45,6.64-9.7,6.64-9.68-6.64-9.68-6.64V626.58h19.38Z"/><path class="cls-40" d="M490,537.76c-9-10.65-25.45-14.88-39.62-14.9v-.26c-14.18,0-30.69,4.24-39.71,14.91-23,27.21-10.57,98.88,40.81,98.88S513,565,490,537.76Z"/><path class="cls-27" d="M453.41,506.74c-38.25,0-60.72,18.77-59,60.68v18.1c4.49-.42,5.73-3.07,10.08-.82h.1v-9.16a38,38,0,0,1,3.7-16.3c2.62.14,1,14.39,2.79,14.39,1-.3,2-.57,3.06-.78,3.21-.66,6.44-1.24,9.7-1.64l.73-.08c1.54-.32,2.51-14.58,3.6-14.76s-.54,14.17,1.47,14.22c6.11-.54,12.25-.78,18.37-.86l5.58,0c1.57-.22,2-17.82,3.31-18s.07,17.63,2.8,18c8,.1,16,.4,24,1,1.36-.29-1.29-9.83,0-10s1.65,9.88,2.87,10.28c1.33.1,2.68.21,4,.34,1.81-.07-3.59-13.83,1.3-13.51a43.34,43.34,0,0,1,5,19.33v7.6h.1c4.36-2.25,5.6.4,10.08.82v-18.1C506.94,531.82,491.67,506.74,453.41,506.74Z"/><path class="cls-41" d="M396.5,550.88s11,8.7,54.11,2.63,50.62-14.76,50.62-14.76S437.26,516.67,396.5,550.88Z"/><path class="cls-37" d="M394.19,545.52s-14.32-23.28,8.76-35.88c17.76-9.69,41.19-4.38,41.19-4.38,37.73-16.49,64.8,0,57.51,27.59C501.65,532.85,463.89,551.33,394.19,545.52Z"/><path class="cls-42" d="M394.19,545.52l.08,5.13s51.29,6.31,108.62-12.44l-1.24-5.36S457.73,548.22,394.19,545.52Z"/><path class="cls-42" d="M442.15,506.74s-2.09-6.72-4.81-9.2l8.08-6.61s-1,12.07,0,16.1S443.38,510,442.15,506.74Z"/><path class="cls-43" d="M454.48,601a2.75,2.75,0,0,0,.94-2c0-1.94-2.31-3.51-5.17-3.51s-5.19,1.57-5.19,3.51a2.9,2.9,0,0,0,1.13,2.18"/><path class="cls-44" d="M487.1,597.84c-.77-3.37-3.43-5-6.55-5.4a7.37,7.37,0,0,0-1.94-.06c-4.74.21-9.84,3-10.75,7.3a5.82,5.82,0,0,0,.77,4.19,5.59,5.59,0,0,0,.77,1.76C474.16,613.13,489,606.23,487.1,597.84Z"/><path class="cls-45" d="M471,597.34a.68.68,0,0,0,0-1.35.68.68,0,0,0,0,1.35Z"/><path class="cls-45" d="M475.23,595.41a.64.64,0,0,0,0-1.27.64.64,0,0,0,0,1.27Z"/><path class="cls-45" d="M477.11,600.46h0c1.08-.23.63-1.89-.46-1.67l-.1,0c-1.07.23-.61,1.86.43,1.63h0a.84.84,0,0,0,0-1.62h0c-1-.22-1.5,1.41-.43,1.63l.1,0c1.09.23,1.54-1.44.46-1.67h0a.86.86,0,1,0,0,1.67Z"/><path class="cls-45" d="M473.33,600a.49.49,0,0,0,0-1,.49.49,0,0,0,0,1Z"/><path class="cls-45" d="M474.89,597.35h0c-.12-.64-1.11-.37-1,.27,0,0,0,.07,0,.1a.49.49,0,0,0,.93,0,.12.12,0,0,0,0-.1c.15-.64-.84-.91-1-.27h0c-.19.82,1.14.82,1,0Z"/><path class="cls-45" d="M469.71,599.4a.43.43,0,0,0,0-.86.43.43,0,0,0,0,.86Z"/><path class="cls-45" d="M464.17,596.15h0a.49.49,0,0,0-.26-.95h-.06a.49.49,0,0,0,0,.93h0c.64.15.88-.8.28-.95h0c-.81-.19-.81,1.15,0,.95Z"/><path class="cls-45" d="M465.67,600.67a.72.72,0,0,0,0-1.43.72.72,0,0,0,0,1.43Z"/><path class="cls-45" d="M466.73,596.54l0,.05c-.24.3.22.76.52.53l0,0a.4.4,0,1,0-.55-.55Z"/><path class="cls-45" d="M471.21,594.19l0,0a.43.43,0,0,0,.49-.06l.06,0c.31-.27,0-.81-.35-.81s-.69.68-.23.88Z"/><path class="cls-45" d="M475.25,602.33v0a.3.3,0,0,0,.43,0h0a.33.33,0,0,0-.22-.57.33.33,0,0,0-.23.56Z"/><path class="cls-45" d="M478.45,596.45s.06,0,.07,0a.34.34,0,0,0,0-.65l-.07,0c-.6-.22-.6.94,0,.72Z"/><path class="cls-45" d="M479.76,600.32a.45.45,0,0,0,0-.89.45.45,0,0,0,0,.89Z"/><path class="cls-44" d="M413.4,597.84c.78-3.37,3.45-5,6.55-5.4a7.38,7.38,0,0,1,1.94-.06c4.75.21,9.85,3,10.75,7.3a5.92,5.92,0,0,1-.76,4.19,6.37,6.37,0,0,1-.77,1.76C426.33,613.13,411.47,606.23,413.4,597.84Z"/><path class="cls-45" d="M429.47,597.34a.68.68,0,0,0,0-1.35.68.68,0,0,0,0,1.35Z"/><path class="cls-45" d="M425.28,595.41a.64.64,0,0,0,0-1.27.64.64,0,0,0,0,1.27Z"/><path class="cls-45" d="M423.39,598.79h0c-1.09.23-.62,1.9.45,1.67l.12,0c1.05-.22.59-1.85-.47-1.63h0a.84.84,0,0,0,0,1.62h0c1.06.23,1.52-1.4.47-1.63l-.12,0c-1.07-.22-1.54,1.44-.45,1.67h0a.86.86,0,1,0,0-1.67Z"/><path class="cls-45" d="M427.17,600a.5.5,0,0,0,0-1,.5.5,0,0,0,0,1Z"/><path class="cls-45" d="M426.6,597.35h0c-.15-.64-1.13-.37-1,.27,0,0,0,.07,0,.1a.49.49,0,0,0,.93,0,.29.29,0,0,0,0-.1c.14-.64-.84-.91-1-.27h0c-.19.82,1.15.82,1,0Z"/><path class="cls-45" d="M430.79,599.4a.43.43,0,0,0,0-.86.43.43,0,0,0,0,.86Z"/><path class="cls-45" d="M436.35,595.2h0c-.62.15-.35,1.1.25.95h.06a.49.49,0,0,0,0-.93h-.06c-.6-.15-.87.8-.25.95h0c.8.2.8-1.14,0-.95Z"/><path class="cls-45" d="M434.83,600.67a.72.72,0,0,0,0-1.43.72.72,0,0,0,0,1.43Z"/><path class="cls-45" d="M433.22,597.09l0,0c.31.23.75-.23.52-.53l0-.05a.4.4,0,1,0-.55.55Z"/><path class="cls-45" d="M428.74,594.12l0,0a.47.47,0,0,0,.51.06l0,0a.48.48,0,0,0-.13-.86c-.43-.12-.83.47-.44.79Z"/><path class="cls-45" d="M424.8,602.33v0a.31.31,0,0,0,.44,0h0a.33.33,0,1,0-.45,0Z"/><path class="cls-45" d="M422,595.73l-.05,0a.33.33,0,0,0,0,.65.1.1,0,0,0,.05,0c.6.22.6-.94,0-.72Z"/><path class="cls-45" d="M420.74,600.32a.45.45,0,0,0,0-.89.45.45,0,0,0,0,.89Z"/><path class="cls-40" d="M391.13,573a9.53,9.53,0,0,1,10.24,3.26,16.44,16.44,0,0,1,3,5.17,11.19,11.19,0,0,1,.52,2.56c.14,1,0,1.71-.2,1.34q2,4.93,3.91,9.86c.79,2,1.65,4,2.3,6,.17.58,1,4.08.32,2.35a1.89,1.89,0,0,1-1.85,2.58c-7,6.54-17.18-.49-21.34-7.17a24.57,24.57,0,0,1-3.76-14.09C384.6,580.65,386.46,574.4,391.13,573Z"/><path class="cls-40" d="M509.37,573a9.52,9.52,0,0,0-10.24,3.26,17.06,17.06,0,0,0-3,5.17,11.19,11.19,0,0,0-.52,2.56c-.14,1,.06,1.71.2,1.34q-1.95,4.93-3.89,9.86c-.8,2-1.66,4-2.3,6-.19.58-1,4.08-.32,2.35a1.89,1.89,0,0,0,1.83,2.58c7,6.54,17.18-.49,21.35-7.17a24.49,24.49,0,0,0,3.76-14.09C515.9,580.65,514.05,574.4,509.37,573Z"/><path class="cls-46" d="M391.35,588c-.21.2,0,.48.26.45a13,13,0,0,1,5.62,0c.18.06.32.15.49.22a6,6,0,0,0-2.92.91c-1,.66-2.36,2-1.67,3.33a.49.49,0,0,0,.56.22c.95-.21,1.4-1.26,2-1.88a6,6,0,0,1,3.51-1.36l.05,0c1,1.19,1.39,2.8,2.15,4.28a.25.25,0,0,0,.44-.06C403,588.81,395.3,584.36,391.35,588Z"/><path class="cls-46" d="M498.62,594.15a.24.24,0,0,0,.43.06c.84-1.58,1.15-3.07,2.19-4.26h0a7,7,0,0,1,3.24,1.15c.87.59,1.23,1.85,2.29,2.09a.49.49,0,0,0,.56-.22c.71-1.33-.7-2.62-1.67-3.33a5.41,5.41,0,0,0-2.87-.93c1.68-.85,4.29-.5,6.07-.23.24,0,.48-.25.26-.45C505.19,584.36,497.47,588.81,498.62,594.15Z"/><path class="cls-21" d="M436.62,606.51c9.57,1.43,27.27.89,27.27.89S462.19,619,450.25,619,436.62,606.51,436.62,606.51Z"/><g class="cls-3"><path class="cls-11" d="M447.54,624.25a12.76,12.76,0,0,1,5.68-1.35.42.42,0,0,0,.21-.78c-2.09-1.55-4.87-.21-6.54,1.3-.45.42.14,1.13.65.83Z"/></g><path class="cls-30" d="M428.15,590.68c4.15,0,4.15-6.43,0-6.43s-4.14,6.43,0,6.43Z"/><path class="cls-39" d="M432.42,574.71c-2.4-3.73-8.51-3.24-11,.15a1.94,1.94,0,0,0,.62,2.64,2.75,2.75,0,0,0,2.87-.41,5.16,5.16,0,0,1,5.34-.25c1.31.68,3-.73,2.13-2.13Z"/><path class="cls-30" d="M472.35,590.68c4.15,0,4.15-6.43,0-6.43s-4.16,6.43,0,6.43Z"/><path class="cls-39" d="M470.22,576.84a5.19,5.19,0,0,1,5.32.25,3,3,0,0,0,2.48.58,1.94,1.94,0,0,0,1-2.81c-2.46-3.39-8.58-3.88-11-.15-.9,1.4.82,2.81,2.13,2.13Z"/><path class="cls-34" d="M285.2,909.27l-2.77,1.78a9,9,0,0,1-.07,1.17c-.1.68.1,1.24,1.84,1.53s9,1.16,15.47-1c5.83-2,6-3,5.59-3.9s-.36-.85-.31-1.43S285.2,909.27,285.2,909.27Z"/><path class="cls-35" d="M283.69,903.76c-2.6,2.8-1.26,7.29-1.26,7.29,4.72,1.93,18.4,1.25,22.52-3.68a5.39,5.39,0,0,0-3.75-6.69c-1.26-.42-2.24.46-6,1.51C293.21,902.76,287.58,899.61,283.69,903.76Z"/><path class="cls-47" d="M303,902.7s-.15,1.75-3.87,1.75c-2.83,0-3.76-1.71-3.76-1.71s-2.49-23.4-3.15-23.88c-2.72-1.94-3.84-7.37-1.53-11.31.19-.34-.8-26.28-.8-26.28h16.36s-3.19,24.15-3.34,32.5S303,902.7,303,902.7Z"/><path class="cls-34" d="M337.62,909.27l2.77,1.78s0,.8.05,1.17c.13.68-.1,1.24-1.84,1.53s-9,1.16-15.46-1c-5.82-2-6-3-5.58-3.9s.35-.85.3-1.43S337.62,909.27,337.62,909.27Z"/><path class="cls-35" d="M339.12,903.76c2.61,2.8,1.27,7.29,1.27,7.29-4.75,1.93-18.4,1.25-22.53-3.68a5.41,5.41,0,0,1,3.74-6.69c1.27-.42,2.25.46,6,1.51C329.59,902.76,335.23,899.61,339.12,903.76Z"/><path class="cls-47" d="M319.8,902.7s.17,1.75,3.88,1.75a4.19,4.19,0,0,0,3.77-1.71s2.5-23.4,3.16-23.88c2.69-1.94,3.83-7.37,1.51-11.31-.2-.34.8-26.28.8-26.28H316.54s3.22,24.15,3.36,32.5S319.8,902.7,319.8,902.7Z"/><path class="cls-34" d="M285.2,909.27l-2.77,1.78a9,9,0,0,1-.07,1.17c-.1.68.1,1.24,1.84,1.53s9,1.16,15.47-1c5.83-2,6-3,5.59-3.9s-.36-.85-.31-1.43S285.2,909.27,285.2,909.27Z"/><path class="cls-35" d="M283.69,903.76c-2.6,2.8-1.26,7.29-1.26,7.29,4.72,1.93,18.4,1.25,22.52-3.68a5.39,5.39,0,0,0-3.75-6.69c-1.26-.42-2.24.46-6,1.51C293.21,902.76,287.58,899.61,283.69,903.76Z"/><path class="cls-47" d="M303,902.7s-.15,1.75-3.87,1.75c-2.83,0-3.76-1.71-3.76-1.71s-2.49-23.4-3.15-23.88c-2.72-1.94-3.84-7.37-1.53-11.31.19-.34-.8-26.28-.8-26.28h16.36s-3.19,24.15-3.34,32.5S303,902.7,303,902.7Z"/><path class="cls-34" d="M337.62,909.27l2.77,1.78s0,.8.05,1.17c.13.68-.1,1.24-1.84,1.53s-9,1.16-15.46-1c-5.82-2-6-3-5.58-3.9s.35-.85.3-1.43S337.62,909.27,337.62,909.27Z"/><path class="cls-35" d="M339.12,903.76c2.61,2.8,1.27,7.29,1.27,7.29-4.75,1.93-18.4,1.25-22.53-3.68a5.41,5.41,0,0,1,3.74-6.69c1.27-.42,2.25.46,6,1.51C329.59,902.76,335.23,899.61,339.12,903.76Z"/><path class="cls-47" d="M319.8,902.7s.17,1.75,3.88,1.75a4.19,4.19,0,0,0,3.77-1.71s2.5-23.4,3.16-23.88c2.69-1.94,3.83-7.37,1.51-11.31-.2-.34.8-26.28.8-26.28H316.54s3.22,24.15,3.36,32.5S319.8,902.7,319.8,902.7Z"/><path class="cls-42" d="M334.94,815.64h-47.4c-2.44,22.28-2.6,44.38-2.6,44.38,9.88,7.46,22.94,2.13,22.94,2.13.41-7.71,3.12-20.66,3.35-21.71.22,1.05,2.93,14,3.36,21.71,0,0,13,5.33,22.93-2.13A311.32,311.32,0,0,0,334.94,815.64Z"/><path class="cls-47" d="M265,821c-.45,2.38-1.16,2.56-2.6,3.71-1.63,1.31-2.41,2.88-3.21,3.57-1.2,1.07-2.34,1.8-1.62,2.71.95,1.23,2.65-1.49,2.91-1.36.11.07-1.46,2.32-2.12,3.77-.36.8.67,1.85,1.43,1,.91-1,2-3.46,2.22-3.22s-1.14,2.73-1.63,4.56a.85.85,0,0,0,1.6.52c.74-1,1.83-4,2.11-4s-.47,1.68-.82,3.52c-.27,1.27,1.24,1.59,1.72.29.8-2.28,1.34-4.76,1.51-4.71.52.15.17,2.73,1.1,2.91,1.29.25,1-2.11,1-5.38,0-2.13-.73-3.08.79-6.67Z"/><path class="cls-33" d="M291.41,767.42c3.39-3.69,10.36-6.87,14.45-1.68s1.76,9.79-1.9,12.63c-7.75,6-23.49,23.56-34.06,48.36l-7.74-3.48S268.05,793,291.41,767.42Z"/><path class="cls-33" d="M334.11,810c3.46-22.42-6.46-50.35-24-50.35s-26.19,24.22-21.8,50.32c0,0,5,1.81,22.88,1.81S334.11,810,334.11,810Z"/><path class="cls-21" d="M319.3,772a11.24,11.24,0,0,0-8,8.74c0-4.27-3.28-7.78-8-8.74-8-1.62-10.95-14.83,8-14.83S327,769.84,319.3,772Z"/><path class="cls-35" d="M334.11,810c-1.4.32-8.63,1.78-22.87,1.78-14.71,0-21.86-1.57-22.89-1.81l-.81,5.7c2.5.47,10.1,1.65,23.7,1.65s21.14-1.16,23.7-1.64Z"/><path class="cls-48" d="M309.61,777c0-2.24-.59-2.87-.6-2.88-1.68-1.08-5.67-3.48-7.93-3.08-2.69.5-.65,4.26-.65,6.14s-2,5.65.65,6.14c2.29.42,6.46-2.11,8.05-3.16h0C309.7,779.41,309.61,777,309.61,777Z"/><path class="cls-48" d="M321.74,771.06c-2.25-.4-6.27,2-7.93,3.08,0,0-.58.64-.58,2.88,0,0-.11,2.39.47,3.15h0c1.57,1.05,5.74,3.58,8,3.16,2.69-.49.66-4.26.66-6.14S324.43,771.56,321.74,771.06Z"/><path class="cls-42" d="M313.23,777c0-2.25.58-2.88.58-2.88s-.47-.66-2.4-.66-2.4.66-2.4.66.6.63.6,2.88c0,0,.09,2.39-.48,3.15a3.05,3.05,0,0,0,2.28.93,3.17,3.17,0,0,0,2.29-.93C313.12,779.41,313.23,777,313.23,777Z"/><path class="cls-49" d="M305.44,777.2l4.16.72c0-.3,0-.56,0-.72Z"/><path class="cls-49" d="M309.61,777a3.91,3.91,0,0,0,0-.49L303.65,775l6,2.16Z"/><path class="cls-49" d="M309.54,778.65l.06-.58L305,780.54Z"/><path class="cls-49" d="M313.26,778.65l4.56,1.89-4.59-2.47C313.23,778.26,313.25,778.45,313.26,778.65Z"/><path class="cls-49" d="M313.23,777.2c0,.16,0,.42,0,.72l4.16-.72Z"/><path class="cls-49" d="M313.23,776.53v.6l5.94-2.16Z"/><path class="cls-47" d="M321.19,761s-.45,6.7-9.78,6.7-9.79-6.7-9.79-6.7V745.58h19.57Z"/><path class="cls-47" d="M348.62,655.94c-9.1-10.74-25.69-15-40-15v-.26c-14.33,0-31,4.28-40.11,15.05-23.26,27.47-10.67,99.87,41.22,99.87S371.89,683.42,348.62,655.94Z"/><path class="cls-13" d="M361.26,647.17a1.51,1.51,0,0,0-.09-.18c2,.35,4.19,3.33,8.44,2-3.32-2.08-18.26-28-33.85-16.33.28-2.47,1.1-8.56-5.69-15.55,1.66,2.86.29,6.57,0,9.53-2.58-2.75-35.87-16.73-55.53,2.4,2-2.19,7.61-.93,9.79,0h0c-26.24,3.79-34.5,28.48-36.22,36.39,1.26-1.91,7.51-5.1,9.62-6.35a71.88,71.88,0,0,0-3.63,26.73v18.28c4.53-.41,5.79-3.09,10.19-.83a.16.16,0,0,0,.1,0V691.1c0-6,3.94-9.21,10-11.3a23.5,23.5,0,0,0-2.5,9.69c3.35-5.27,20.09-11.18,29.95-13.18-3.28,3.57-6.1,8.13-9.13,11.72,2.69-1.47,14-1,21.57-6.29s10.17-13.31,11.43-16.88c.12,5.11,2.09,10.82,5.45,13.74,2.44,2.14,5.51,3.25,8.29,4.85a36.6,36.6,0,0,1,4.33,2.7c.92.69,2.36,2.86,3.3,3.2.11,0,.17.31.2.42a34.65,34.65,0,0,1-.32-7.12c6.05,2.39,10.6,2.86,10.6,8.06v12.65a.16.16,0,0,0,.09,0c4.39-2.26,5.65.42,10.17.83V685.89C367.76,657.26,363.54,648.61,361.26,647.17Z"/><path class="cls-50" d="M314.44,721.52a2.81,2.81,0,0,0,1-2c0-2-2.33-3.54-5.23-3.54s-5.23,1.58-5.23,3.54a3,3,0,0,0,1.13,2.21"/><path class="cls-51" d="M347.39,718.33c-.79-3.4-3.48-5.08-6.62-5.45a8,8,0,0,0-2-.06c-4.81.22-9.93,3.08-10.86,7.37a6,6,0,0,0,.76,4.23,6.92,6.92,0,0,0,.77,1.79C334.31,733.77,349.34,726.81,347.39,718.33Z"/><path class="cls-45" d="M331.15,717.83a.68.68,0,0,0,0-1.36.68.68,0,0,0,0,1.36Z"/><path class="cls-45" d="M335.39,715.88a.64.64,0,0,0,0-1.28.64.64,0,0,0,0,1.28Z"/><path class="cls-45" d="M337.28,721h0c1.09-.24.62-1.92-.47-1.69l-.09,0c-1.08.23-.62,1.87.44,1.64h0a.85.85,0,0,0,0-1.63h0c-1.06-.22-1.52,1.42-.44,1.64,0,0,.07,0,.09,0,1.09.23,1.56-1.46.47-1.69h0c-1.43-.3-1.43,2,0,1.69Z"/><path class="cls-45" d="M333.48,720.48a.51.51,0,0,0,0-1,.51.51,0,0,0,0,1Z"/><path class="cls-45" d="M335.05,717.85v0c-.13-.64-1.12-.36-1,.28a.54.54,0,0,0,0,.1.48.48,0,0,0,.93,0,.38.38,0,0,0,0-.1c.15-.64-.84-.92-1-.28v0a.5.5,0,1,0,1,0Z"/><path class="cls-45" d="M329.83,719.92a.44.44,0,0,0,0-.88.44.44,0,0,0,0,.88Z"/><path class="cls-45" d="M324.21,716.64h0a.5.5,0,0,0-.27-1h0a.49.49,0,0,0,0,.94l0,0c.63.14.9-.82.27-1h0c-.8-.2-.8,1.16,0,1Z"/><path class="cls-45" d="M325.75,721.2a.73.73,0,0,0,0-1.45.73.73,0,0,0,0,1.45Z"/><path class="cls-45" d="M326.8,717s0,0,0,.05c-.25.3.22.77.52.53l.06,0a.4.4,0,1,0-.57-.55Z"/><path class="cls-45" d="M331.32,714.66h.06a.44.44,0,0,0,.5-.06l0,0a.47.47,0,0,0-.33-.81c-.45,0-.68.68-.25.89Z"/><path class="cls-45" d="M335.42,722.87a0,0,0,0,1,0,0,.31.31,0,0,0,.42,0l0,0a.34.34,0,0,0-.24-.57.33.33,0,0,0-.22.57Z"/><path class="cls-45" d="M338.65,716.93l.07,0a.34.34,0,0,0,0-.66s-.05,0-.07,0c-.61-.22-.61.95,0,.72Z"/><path class="cls-45" d="M340,720.84a.45.45,0,0,0,0-.9.45.45,0,0,0,0,.9Z"/><path class="cls-51" d="M273,718.33c.78-3.4,3.47-5.08,6.62-5.45a7.93,7.93,0,0,1,1.95-.06c4.8.22,10,3.08,10.85,7.37a5.82,5.82,0,0,1-.76,4.23,6.92,6.92,0,0,1-.77,1.79C286,733.77,271,726.81,273,718.33Z"/><path class="cls-45" d="M289.18,717.83a.68.68,0,0,0,0-1.36.68.68,0,0,0,0,1.36Z"/><path class="cls-45" d="M284.94,715.88a.64.64,0,0,0,0-1.28.64.64,0,0,0,0,1.28Z"/><path class="cls-45" d="M283.05,719.3h0c-1.1.23-.63,1.92.47,1.69,0,0,.06,0,.09,0,1.06-.22.61-1.86-.45-1.64h0a.85.85,0,0,0,0,1.63h0c1.08.23,1.53-1.41.47-1.64l-.09,0c-1.1-.23-1.57,1.45-.47,1.69h0a.87.87,0,1,0,0-1.69Z"/><path class="cls-45" d="M286.86,720.48a.51.51,0,0,0,0-1,.51.51,0,0,0,0,1Z"/><path class="cls-45" d="M286.28,717.85v0c-.16-.64-1.15-.36-1,.28a.22.22,0,0,0,0,.1.48.48,0,0,0,.93,0s0-.07,0-.1c.12-.64-.86-.92-1-.28v0c-.18.83,1.17.83,1,0Z"/><path class="cls-45" d="M290.51,719.92a.44.44,0,0,0,0-.88.44.44,0,0,0,0,.88Z"/><path class="cls-45" d="M296.12,715.67h0c-.62.15-.35,1.11.27,1l.05,0a.49.49,0,0,0,0-.94h-.05c-.62-.15-.89.81-.27,1h0c.81.19.81-1.17,0-1Z"/><path class="cls-45" d="M294.59,721.2a.73.73,0,0,0,0-1.45.73.73,0,0,0,0,1.45Z"/><path class="cls-45" d="M293,717.58l0,0c.32.24.78-.23.55-.53l0-.05a.4.4,0,1,0-.54.55Z"/><path class="cls-45" d="M288.44,714.58l0,0a.44.44,0,0,0,.5.06h0a.49.49,0,0,0-.12-.88c-.42-.11-.84.48-.45.8Z"/><path class="cls-45" d="M284.45,722.87s0,0,0,0a.33.33,0,0,0,.44,0l0,0a.34.34,0,1,0-.49,0Z"/><path class="cls-45" d="M281.69,716.21l-.09,0a.35.35,0,0,0,0,.66l.06,0c.62.23.62-.94,0-.72Z"/><path class="cls-45" d="M280.38,720.84a.45.45,0,0,0,0-.9.45.45,0,0,0,0,.9Z"/><path class="cls-47" d="M250.46,693.24a9.58,9.58,0,0,1,10.33,3.3,16.66,16.66,0,0,1,3.08,5.21,12,12,0,0,1,.53,2.59c.14,1-.07,1.72-.21,1.35q2,5,3.95,10c.79,2,1.67,4,2.31,6.1.19.58,1,4.12.32,2.38a1.9,1.9,0,0,1-1.86,2.6c-7.09,6.61-17.35-.49-21.55-7.25a24.64,24.64,0,0,1-3.79-14.22C243.86,701,245.73,694.67,250.46,693.24Z"/><path class="cls-47" d="M369.88,693.24c-3.95-1.19-7.67.19-10.35,3.3a17,17,0,0,0-3.07,5.21,12.67,12.67,0,0,0-.53,2.59c-.14,1,.06,1.72.21,1.35-1.33,3.32-2.63,6.64-3.94,10-.8,2-1.67,4-2.33,6.1-.17.58-1,4.12-.31,2.38a1.9,1.9,0,0,0,1.87,2.6c7.07,6.61,17.34-.49,21.54-7.25a24.58,24.58,0,0,0,3.8-14.22C376.46,701,374.6,694.67,369.88,693.24Z"/><path class="cls-46" d="M250.68,708.43c-.2.2,0,.48.28.45a13.38,13.38,0,0,1,5.67,0c.18.07.33.16.5.23a6.1,6.1,0,0,0-3,.91c-1,.67-2.37,2.07-1.68,3.36a.5.5,0,0,0,.57.23c1-.21,1.4-1.27,2.06-1.9a6,6,0,0,1,3.54-1.37l.05,0c1,1.22,1.41,2.84,2.19,4.33a.24.24,0,0,0,.43-.06C262.48,709.22,254.67,704.73,250.68,708.43Z"/><path class="cls-46" d="M359,714.61a.23.23,0,0,0,.42.06c.84-1.6,1.16-3.1,2.21-4.31h0a7.31,7.31,0,0,1,3.31,1.16c.85.6,1.2,1.87,2.3,2.11a.49.49,0,0,0,.57-.23c.71-1.33-.73-2.63-1.7-3.36a5.53,5.53,0,0,0-2.92-.93c1.71-.87,4.34-.5,6.15-.24.22,0,.48-.25.25-.45C365.65,704.73,357.86,709.22,359,714.61Z"/><path class="cls-21" d="M296.39,727.09c9.68,1.45,27.54.91,27.54.91s-1.7,11.7-13.76,11.7S296.39,727.09,296.39,727.09Z"/><g class="cls-3"><path class="cls-11" d="M307.42,745a13,13,0,0,1,5.75-1.38.42.42,0,0,0,.21-.79c-2.11-1.55-4.93-.21-6.61,1.32a.54.54,0,0,0,.65.85Z"/></g><path class="cls-52" d="M291.1,707.86c0-4.19-6.49-4.19-6.49,0h0"/><path class="cls-13" d="M292.16,695c-2.43-3.77-8.59-3.28-11.07.15a2,2,0,0,0,.61,2.66,2.79,2.79,0,0,0,2.92-.41,5.16,5.16,0,0,1,5.38-.24c1.32.68,3.06-.76,2.16-2.16Z"/><path class="cls-52" d="M335.73,707.86c0-4.19-6.49-4.19-6.49,0h0"/><path class="cls-13" d="M330.34,697.14a5.22,5.22,0,0,1,5.37.24,3,3,0,0,0,2.5.58,1.93,1.93,0,0,0,1-2.83c-2.48-3.43-8.64-3.92-11.07-.15-.9,1.4.81,2.84,2.16,2.16Z"/><path class="cls-39" d="M347.55,906s15.34-50.29,14.22-72.42c-44,7.19-24.79,73.69-24.79,73.69a5.78,5.78,0,0,0,6.42,5L354,911.05A5.77,5.77,0,0,1,347.55,906Z"/><path class="cls-53" d="M343.21,876.49s-8.95,6.7-10.28,1.24c0,0-4.53.34-2.25,19.32,1.17,9.83-.34,19,23.28,14,0,0-6.61-.65-8-12.2C343.72,880.11,343.21,876.49,343.21,876.49Z"/><path class="cls-53" d="M347.33,839.34S345,827,358.07,825.42s13.21,7.57,14,10.14c.36,1.08-1.15,2.17-3.52-.2-.64-.63.65-7.94-9.75-6.69s-8.43,10.2-8.43,10.2-.54,1.64-2,1.77C346.76,840.82,347.33,839.34,347.33,839.34Z"/><path class="cls-38" d="M392.35,900.64a5.8,5.8,0,0,1-5.05,6.42l-33.34,4a5.77,5.77,0,0,1-6.41-5s-16.36-68.75,14.22-72.42S392.35,900.64,392.35,900.64Z"/><path class="cls-27" d="M379.92,866.4c5.26-.63.25-25.56-17-23.5s-16.18,27.47-10.74,26.82Z"/><path class="cls-27" d="M349.51,892.26c1.7,14.21,4.6,16,21.8,13.9s18-5.38,16.41-18.49-3.45-16.1-20.31-14.08S347.81,878.05,349.51,892.26Z"/><path class="cls-38" d="M349.08,887.23,387,882.68a24.14,24.14,0,0,0-.59-2.55l-37.28,4.47C349.07,885.4,349.06,886.28,349.08,887.23Z"/><path class="cls-38" d="M353.72,856.4c1-4.45,3.83-9,9.69-9.67s9.7,3,11.72,7.1l2.23-.27c-2.39-5-7.05-9.61-14.19-8.75s-10.56,6.44-11.68,11.85Z"/><path class="cls-54" d="M357.29,833.25c-2.39.75-3.12-.46-3.34-1.51,0,.53-.06,1.06-.48,1.17-1.28.29-1.68-1.57-1.83-4.84-.08-2.11.6-3.1-1.07-6.62l4.3-1.48c.53,2.37,1.26,2.51,2.73,3.6,1.71,1.25,2.56,2.79,3.36,3.44C362.22,828,361.61,831.88,357.29,833.25Z"/><path class="cls-33" d="M328.88,767.42a14.43,14.43,0,0,0-3.53-2.78c-.14-.09-.63,3.25-.79,3.17l-.63,19.41c8,8.78,19,22,26.46,39.51l7.74-3.48S352.23,793,328.88,767.42Z"/></g></g></svg>