<svg xmlns="http://www.w3.org/2000/svg" viewBox="0 0 366 463"><defs><style>.cls-1{isolation:isolate;}.cls-2{fill:#202d55;}.cls-3{fill:#a07983;}.cls-4{fill:#f5ad9a;}.cls-5{fill:#c5c1be;}.cls-11,.cls-5,.cls-7{mix-blend-mode:multiply;}.cls-6{fill:#243269;}.cls-14,.cls-7{fill:#e4dfdd;}.cls-8{fill:#c6bfdf;}.cls-9{fill:#310f08;}.cls-10{fill:#f39b86;}.cls-12{fill:#c8c2bd;}.cls-13{fill:#f4f4f4;}.cls-15{fill:#1a2446;}.cls-16{fill:#171e3d;}.cls-17{fill:#cb7269;}.cls-18{fill:#f6bcb5;}.cls-19{fill:#f6bec6;}.cls-20{opacity:0.27;}.cls-21{fill:#733133;}.cls-22{fill:#f4aba0;}.cls-23{fill:#d58f83;}.cls-24{fill:#eee6e3;}.cls-25{fill:#f5f2b9;}.cls-26{fill:#e2dbd9;}.cls-27{fill:#fcf5f3;}.cls-28{fill:#e58c80;}.cls-29{fill:#7d4546;}.cls-30{fill:#ed7660;}</style></defs><title>Zeichenfläche 1</title><g class="cls-1"><g id="Ebene_1" data-name="Ebene 1"><path class="cls-2" d="M177.74,124C132.06,148.59,47,155.82,32.4,129.47c-17.76-32,31.88-75.77,66.42-88.63s64.09-15,108.59-2C259.55,54,223.42,99.33,177.74,124Z"/><path class="cls-3" d="M16.15,405.07c10.39,21,11.64,33.76,7.69,55.6-.14.72-.26,1.46-.38,2.2H181.35c-2.94-16-6.18-31.24,5.83-46.43,13.65-17.26,29.44-31.65,35.38-54.18,6-22.69-3.2-35.22-12.51-54.7-9.57-20.05-9.26-33.25-.56-52.43,9.45-20.83,19.49-37.95,9.39-59.91-8.07-17.52-15.2-30.41-12.54-49.84,3-22.14,2.77-56.06-8.94-75.33C185.79,51,178,41.83,152.15,39.62,77.8,33.27,69.37,97.73,70.64,110.78c1.34,13.88.8,25.81-13,45.66-11.5,16.55-42.6,24-50.85,43.39-18.52,43.55,15.39,90.26-2,131.54C-6.53,358.39,3.66,379.87,16.15,405.07Z"/><path class="cls-4" d="M192.9,235.9c34.06-3.69,33.53,60.12,39.42,81.29,5.63,20.18,15.19,65.23,21.89,85,4.15,12.2,9.24,19.44-1.66,28.29s-19.79,2.48-23.16-5.25c-11.76-27.06-42-127-47-152C177.07,246,192.9,235.9,192.9,235.9Z"/><path class="cls-5" d="M151.28,71.59c.43.11.85.22,1.26.36,6,1.87,10.49,1.23,16.67,1.75,8.17.71,24.57,2.67,25.39,13.38,0,0,1.25,16.24,1.25,16.29.45,5.79,1.1,11.27.9,17.19s-3.79,6.84-5.5,12c-1.58,4.73-.84,10.18-1.08,15.09-.43,8.89-2,17.33-7.57,24.64-3.45,4.57-15,13.93-15.19,19.92-.06,2.39,3.27,6,4.27,8.5,1.53,3.77,1.74,7.44,2.37,11.41,1.16,7.22,9.1,11.08,10,18.92,1.79,15.94-13,21.06-24.32,27a45,45,0,0,1-19.88,4.78c-8.94.17-17.78-1.87-26.8-1.46-16.42.76-34,.15-49.47-6.13-10.81-4.39-24.36-15-7.91-21.71,6.82-2.79,12.86-3.36,19.45-7.1,7.26-4.12,8.16-9.48,9.81-17.66,1.44-7.1,4.39-15,1.93-22.29-4-11.85-10.35-23.38-11-36.11-.34-6.89,2.83-11,4.21-17.24,1.35-6.07.49-10.72,5-16,7.26-8.55,15.83-15.25,22.34-24.35,5.68-7.92,12.08-16.07,21.82-19C136.08,71.74,144.23,69.88,151.28,71.59Z"/><path class="cls-6" d="M212.13,462.87c-.63-2.29-1.22-4.41-1.76-6.32H140.88l0,6.31Z"/><path class="cls-6" d="M212,462.87l-1.61-6.32H87.55c-.55,1.9-1.13,4-1.77,6.31Z"/><path class="cls-4" d="M86.67,230c3.17,0,35.36-23.6,20.83-82.6l7-8.72c16.63,4.16,56.21,4.06,48.89,20.66-28.84,65.41,20.67,74.33,23.2,74.33,11.41,0,9.35,54.72-35.86,54.72s-58.53-41.18-61.28-47.17C86.27,234.33,86.67,230,86.67,230Z"/><path class="cls-7" d="M105.54,206.76c5.54-13.3,8.53-32.72,2-59.41l5.77-7.22c17.81,3.06,35.78,6.57,50.83,14.06a8.35,8.35,0,0,1-.74,5.1c-5.7,12.93-8.13,23.83-8.91,32.93-7,.4-15.12-.29-22.41.88C121.35,194.8,111.91,201.26,105.54,206.76Z"/><path class="cls-8" d="M61.51,462.87H236.84c-6.58-62.14-12.88-111.6-12.44-117.73,0,0,13.53-19,8.3-36.36-8.41-28-28.46-31.58-32.86-73.25,0,0-7.77-.9-13.28-1.91-3.4-.62-21.13-6.82-28.32-20.13l-52.7-6.73C105.19,213.49,86.67,230,86.67,230c-20.85,2.25-33,5.58-35.72,13.7-3.06,9.16,12,46.25,21.52,131.18C73.53,384.33,68.12,418.65,61.51,462.87Z"/><path class="cls-7" d="M61.51,462.87H73.68c2-13.78,4.2-27.42,6.72-40.75,1.74-9.26,4.23-80.07,1.86-102.12-2.42-22.46-6.27-42.24-21-60.13h0a49,49,0,0,0-9.2-1.91c3.72,18.87,13.55,55.29,20.42,116.88C73.53,384.33,68.12,418.65,61.51,462.87Z"/><path class="cls-4" d="M103.15,91.89c9.28-21.89,27.41-24.61,27.41-24.61a100.68,100.68,0,0,1,11-1.94v-.41c.73,0,1.47.12,2.2.2.73-.08,1.46-.15,2.18-.2v.41a100,100,0,0,1,11,1.94S175.12,70,184.4,91.89c5.92,14,2.87,20.42,2,33.55-.79,12.51-.37,15-2.63,25.2-2.88,13-13.79,23.72-25,31.81a25,25,0,0,1-15.07,4.47,25,25,0,0,1-15.08-4.47c-11.18-8.09-22.09-18.86-25-31.81-2.27-10.18-1.85-12.69-2.63-25.2C100.28,112.31,97.23,105.84,103.15,91.89Z"/><path class="cls-3" d="M99.59,38.16c8.32-7.78,51.83-14.84,76,3,19,14,27,34.59,25.73,58.08a131,131,0,0,1-1.5,13.84c-.42,2.61-3.57,14.46-3.57,14.46-21.58-5.63-16.57-32.64-40.46-33.48-20.28-.71-25.58-17.13-25.58-17.13-3.16,22.65-6.9,29-16.54,34.67-7.18,4.27-5,23.16-9,18.68-4.85-5.33-2.73,5.77-2.73,5.77s4,7.77,1.51,5.79c3.17,5.81-2.44,27.13-11.78,37.08,0,0-16.21-50.11-18.81-71.43C67.15,60.84,91.34,45.87,99.59,38.16Z"/><path class="cls-4" d="M105.05,131.54c-2.19-8.9-15.91-17-17.67-3-1.45,11.54,11.86,35.37,17.81,13.59Z"/><path class="cls-7" d="M181.31,231.93S169,256.36,121.13,245.14c-26.73-6.26-32.5-17-32.5-17l4.91-4.75Z"/><path class="cls-8" d="M154.75,202c-.18-2.19-.55-8.22-.38-9.81,1.42.73,18.5-.49,15.86,14.54-1.31,7.38-1.41,10.28,4.38,12.32,3.73,1.32,5.46,8.65,6.7,12.85,0,0-45.49,28.46-87.77-8.53-13.85-12.12,4.67-20.09,4.67-20.09,1.76-4.94-2-10.1,0-14.87,3.89-9.38,9.5-7.27,12.92-7.54-.14,7.92.81,10.14,9.16,14.53C126.4,198.63,143,203.57,154.75,202Z"/><path class="cls-3" d="M137.81,118.63c-.9-3-5-4.72-7.93-4.93s-7.78.85-9.21,3.53a1.52,1.52,0,0,0,.89,2.2c2.45,1,5.15-.85,7.66-1.12,2.83-.3,4.84,1.83,7.51,1.73a1.12,1.12,0,0,0,1.08-1.41Z"/><path class="cls-3" d="M165,120c2.68.1,4.68-2,7.52-1.73,2.52.26,5.19,2.14,7.65,1.12a1.53,1.53,0,0,0,.9-2.2c-1.43-2.69-6.38-3.72-9.22-3.53s-7,1.94-7.92,4.93A1.12,1.12,0,0,0,165,120Z"/><path class="cls-9" d="M171.82,131.92c3.42,0,3.42-5.3,0-5.3s-3.41,5.3,0,5.3Z"/><path class="cls-9" d="M128.63,131.92c3.42,0,3.42-5.3,0-5.3s-3.41,5.3,0,5.3Z"/><path class="cls-10" d="M112.07,136.93c8.1-4.37,27.29,10.43,14.59,17.46S104,141.3,112.07,136.93Z"/><path class="cls-10" d="M185.79,136.66a78.86,78.86,0,0,1-2,14,32.21,32.21,0,0,1-1,3.48,10.16,10.16,0,0,1-11,.27C159.38,147.52,177.39,133.25,185.79,136.66Z"/><g class="cls-11"><path class="cls-12" d="M163.66,119.91c-2.41,2.45-4.83,6-5.11,9.48,0,.21.27.21.33,0a54.24,54.24,0,0,1,2.25-5.13c.82-1.48,1.78-2.86,2.56-4.36a0,0,0,0,0,0,0Z"/></g><g class="cls-11"><path class="cls-12" d="M156.44,137a18.24,18.24,0,0,0,.22,8,26.64,26.64,0,0,1,.84,3.39c.28,2.9-3,3.77-5.32,3.11-.16-.05-.22.18-.07.24,1.9.73,5.94.54,6.32-2,.21-1.43-.66-3.26-1-4.59a23.05,23.05,0,0,1-.76-8.14.11.11,0,0,0-.21,0Z"/></g><path class="cls-13" d="M161.91,158.74c-9.08,1.35-24.79-2.3-24.79-2.3-1.22,12.76,15.44,19.21,18.21,12.33C158.27,161.49,161.91,158.74,161.91,158.74Z"/><g class="cls-11"><path class="cls-14" d="M150.71,174.76c-1.59-1.44-4.22-2.7-6.2-1.23a.39.39,0,0,0,.2.73,12,12,0,0,1,5.38,1.3c.49.27,1.06-.4.62-.8Z"/></g><path class="cls-15" d="M184.55,51.83S168.08,23.47,151.63,5C147-.27,134.25-1.37,128.43,2.64,112.54,13.59,104.35,14.53,97,13,81.2,9.85,74.53,24.13,72.73,39.19c-1.57,13.17.1,48.29.1,48.29S97.15,54.16,122,50.53,184.55,51.83,184.55,51.83Z"/><path class="cls-2" d="M98.82,40.84c34.54-12.85,64.09-15,108.59-2,39.89,11.6,28.1,40.88-.11,65-.13-2.21-.2-3.56-.2-3.56C203.66,77,181.37,70.2,163,70s-57.76,2.59-86,34.82a121,121,0,0,0-5.93,17.69s-1.22,12.18-5.81,22.6c-15.87-2-28.09-7-32.85-15.59C14.64,97.48,64.28,53.7,98.82,40.84Z"/><path class="cls-6" d="M229.21,77.9c-4.76,4.65-11-6.76-13.43-10.08-4.8-6.52-9.7-12.82-17-16.71-17.67-9.42-41.41-4-60.17-1.27C117.05,53,62.33,77.93,59.93,111.23c-2,27.59-31.46,9.69-31.23,2.68,1-29.25,40.93-62.2,70.12-73.07,34.54-12.85,64.09-15,108.59-2C246.53,50.18,230,76.28,229.21,77.9Z"/><path class="cls-16" d="M77,104.77a121,121,0,0,0-5.93,17.69s-1.22,12.18-5.81,22.6c-15.87-2-28.09-7-32.85-15.59A30.06,30.06,0,0,1,29.76,123a26.76,26.76,0,0,0,16.17,9.46c12.52,2.23,15.14-9,19.77-18.68C88.16,66.94,150,63.86,172.35,67.23c21.42,3.24,42.52,19.23,50.5,16.9a21.15,21.15,0,0,0,3.6-1.45h0C221.9,89.8,215.25,97,207.3,103.83c-.13-2.21-.2-3.56-.2-3.56C203.66,77,181.37,70.2,163,70S105.19,72.54,77,104.77Z"/><path class="cls-8" d="M277.7,462.87c-2.86-65.64-57.5-105-57.5-105l6.59,105Z"/><g class="cls-11"><path class="cls-14" d="M224.4,345.14c-21.22,10-50.33-5-59.53-5s-35.78,29.08-67.81,1.26c34.33,36.24,62.16.73,72,4.7C202.84,359.76,224.4,345.14,224.4,345.14Z"/></g><path class="cls-17" d="M233.07,294.08c4.28-6.67,19.62-20.79,25.53-26.58,7.08-6.93,8.09-9.29,12.51-18s7.32-12.3,12.26-20.56c4.1-6.86,8.35-16.45,15.2-21.21,8.06-5.57,18.57-3.38,25.86,2.9,14.56,12.54,27.21,28.42,17.65,48.16-4.63,9.54-14.65,16.88-22.48,23.83a185.79,185.79,0,0,0-16.43,16.67c-12.51,14.21-24.37,27-41.67,35.66-14.15,7.09-34.29,8.94-49.09,2.9-11.42-4.66-3.9-22.12,5.77-25.83Z"/><path class="cls-18" d="M280.94,320.33c5.76-6.39.32-18.89.32-18.89,3-4.11,6-5.63,15.19-8.56l1.33-3.7c-4.3-4.23-11.54-16.14-15.19-10.89-4.12,5.95-7.53,8.52-11,9.95,0,0-10.16-9.92-18.72-4.33-12.94,8.46-16,15.07-30.36,23.14-5.35,3-12.73,11.55-7.15,25.85s14.24,26.69,28.54,18.62C257.84,343.66,273.15,329,280.94,320.33Z"/><path class="cls-19" d="M269.13,293.49a12.23,12.23,0,0,1-.61-7.67c-3.66-2.52-10-5.61-15.67-1.91-12.94,8.46-16,15.07-30.36,23.14-5.35,3-12.73,11.55-7.15,25.85s14.24,26.69,28.54,18.62c14-7.86,29.27-22.53,37.06-31.19,4.41-4.91,2.23-13.42,1-17.09C277,301.12,271.19,298.33,269.13,293.49Z"/><path class="cls-7" d="M281.26,301.44c3-4.11,6-5.64,15.19-8.56l1.11-3.07c-4.2-4.78-8.56-9.54-13.57-12.68a2.76,2.76,0,0,0-1.4,1.16,28.14,28.14,0,0,1-7.69,8.16C281.88,295.78,281.74,298.51,281.26,301.44Z"/><path class="cls-18" d="M352.53,272.33c19.87-30.74-10.72-74.55-45.91-64.39-11.11,3.21-16.58,9-22.82,15.51-6.61,6.87-9.4,7.63-14.56,13.56-6.58,7.56-8.79,18.52-6.91,28s8.35,20.29,20.58,24.69c10.31,4.09,22.81,3.93,32.76,2.79,8.83-1,6.1,1.51,14.16-3.35C338.29,284,346.25,282.05,352.53,272.33Z"/><g class="cls-11"><path class="cls-14" d="M352.53,272.33a39.22,39.22,0,0,0,6.28-19c-5.3,12.92-14.56,23.1-26.84,28.75-3.11-1.56-6.21-2.78-12.16-.68-.22.58-6.22,3.7-6.9,4.29-6.8,5.92-9.31,6.22-14.31,7.3h0c1.16.09,2.32.13,3.46.16.14,0,.28,0,.41,0,1.15,0,2.29,0,3.41,0h.29c2.41-.05,4.75-.2,7-.4l1.57-.15.93-.09c8.83-1,6.1,1.51,14.16-3.35,4.15-2.52,9.16-4.93,14-7.85A30.53,30.53,0,0,0,352.53,272.33Z"/></g><g class="cls-20"><path class="cls-21" d="M287.28,230c1.38.66,2.77,1.25,3.24,2.59a2.39,2.39,0,0,1,.15,1.14,3.49,3.49,0,0,0,.16,1.93,1.55,1.55,0,0,0,1.73.71c2-.57,1.86-3.49,1.32-5a6.22,6.22,0,0,0-5.95-3.77c-1.2,0-1.87,1.83-.65,2.41Z"/></g><g class="cls-20"><path class="cls-21" d="M314.36,268.92h.16a1.29,1.29,0,0,0,1.13-.65,6.38,6.38,0,0,0,.06-6.52,5.11,5.11,0,0,0-4.21-2.34,1.62,1.62,0,0,0-.43,3.16c-.28-.11.5.25.58.3-.13-.07.42.22.54.31a3.62,3.62,0,0,1,.94,1.25c.54,1.25-.7,4.3,1.23,4.48Z"/></g><path class="cls-22" d="M310.62,282.1c-.9-7.59-20.09-13.53-18.79-1.56S311.52,289.67,310.62,282.1Z"/><path class="cls-22" d="M275.62,230.87a50.42,50.42,0,0,0-6.38,6.14,28.91,28.91,0,0,0-4.61,7.31,22.71,22.71,0,0,0,4.43,3.49C278.31,252.3,279.57,237.27,275.62,230.87Z"/><g class="cls-11"><path class="cls-12" d="M287.55,250.74c-1.42,1.19-2.88.49-4.4,1.15a2.56,2.56,0,0,0-1.5,2c-.18,1.47,1.28,3.47,2.85,3.44a.1.1,0,0,0,0-.19c-2.25-.22-3.25-4.19-.79-4.93.7-.21,1.46-.09,2.18-.26a3.44,3.44,0,0,0,1.77-1.12.08.08,0,1,0-.11-.11Z"/></g><path class="cls-23" d="M225.24,334.88c-15.57,3.26-21.46-10.75-27.73-8.75-4.14,1.32-14.34,17.36-16.58,21-.41.68.81,2.86-3,5.86-4.75,3.81-21.17-6.17-18-10.92s12.2,3.58,14.45.69c5.15-6.58,5.07-27.43,11.61-34.33,9.35-9.85,18.78-4.36,37.64-1.17C243.83,310.67,244.12,331,225.24,334.88Z"/><path class="cls-7" d="M229.56,329.63c-8.5-6.35-20.88-9.68-28.75-3.24,5.33,2.12,11.58,11.17,24.43,8.49a20.9,20.9,0,0,0,8.87-3.94A6.29,6.29,0,0,1,229.56,329.63Z"/><path class="cls-23" d="M239,353.62c-14.93,5.46-21.33-4.41-27.25-1.52-3.9,1.9-10.27,20.1-12,24-.31.73,1.21,2.71-2.08,6.23-4.15,4.44-21.85-3.05-19.37-8.22s12.6,1.78,14.4-1.4c4.14-7.25-.35-28.73,5.14-36.51,7.8-11.09,17.47-10.46,36.55-9.24C254,328.24,257.12,347,239,353.62Z"/><path class="cls-23" d="M319.33,281c6-2,17,4.2,10.11,10.82-5.7,5.45-25.28,5.67-16.05-6.79Z"/><g class="cls-20"><path class="cls-21" d="M323.65,224.77c3.3.32,6.48,0,9.81.63A53.11,53.11,0,0,1,341.8,228c.36.14.59-.43.26-.62-4.83-2.8-13.08-5.45-18.45-2.78-.07,0,0,.13,0,.14Z"/><path class="cls-21" d="M326,231.41a33.59,33.59,0,0,1,8.91-1.33c3.15.1,5.76,1.1,8.72,2a.37.37,0,0,0,.28-.67c-5.19-3.13-12.86-3.66-18-.23a.12.12,0,0,0,.1.22Z"/><path class="cls-21" d="M330.61,234.77a32.28,32.28,0,0,1,8.78.1.15.15,0,0,0,.08-.29c-2.88-1.06-6-.66-8.91-.19-.22,0-.17.41.05.38Z"/></g><path class="cls-24" d="M230.18,302.15s2.53,14.46,29.49,38.26c0,0-12.54,13.27-20.11,13,0,0-4.35-24-20.36-27.06,0,0,2.59-15.79,1.27-19.67A58,58,0,0,1,230.18,302.15Z"/><path class="cls-25" d="M259.67,340.41c-3.2-2.83-6.05-5.52-8.59-8.07-2.29-1.32-5.33-2.22-8.11-.08-5.3,4.06-9.63,3.19-7.15,9.73h0a54.3,54.3,0,0,1,3.74,11.42C247.13,353.68,259.67,340.41,259.67,340.41Z"/><path class="cls-26" d="M220.47,306.68a19.16,19.16,0,0,1,.3,5.88c1.69-.65,3.62-2.24,6.72-3.41a6.09,6.09,0,0,0,3.7-3.89,18.68,18.68,0,0,1-1-3.11A58,58,0,0,0,220.47,306.68Z"/><path class="cls-25" d="M223.92,308.85a16,16,0,0,1,.63,5c0,.95.22,1.91.23,2.84,1.39-.94,3.5-1,4.84-1.83-.69-.75-.79-2.9-.89-3.95s-.16-2.4-.35-3.59c-1.22-.26-2.41,1.11-3.54,1.38-.19,0,0-.05,0-.11Z"/><path class="cls-27" d="M245.82,335.18a48,48,0,0,0-6-6c-.34-.28-.37-.53-.82-.5s-1.79,1.13-2.35,1.44a14.07,14.07,0,0,0-2.58,1.27c1.34.69,2.26,2.63,3.36,3.7,1.28,1.24,2.37,2.67,3.66,3.86.19-.53,1-.9,1.46-1.24.8-.56,1.57-1.45,2.58-1.58Z"/><path class="cls-9" d="M284.79,237.86A1.93,1.93,0,0,0,286.7,236a1.92,1.92,0,1,0-1.91,1.91Z"/><path class="cls-9" d="M307.74,269a1.92,1.92,0,1,0-1.91-1.92,1.93,1.93,0,0,0,1.91,1.92Z"/><path class="cls-28" d="M365.48,236.93c-4.46-20.35-33.12-40.59-54.18-36.71-3.86.72-11.75,4.23-12.73,7.52,5.24.39,11.43-.88,16.57,1.14,15.58,6.1,23.13,18.58,23,35.08-.18,21-14.64,35.67-33,43.58-8.72,3.76-11.06,14-25.15,12.31-37.89-4.59-21.38-32.35-21.38-32.35-8.62,1.56-27.43,20.93-32.61,22.44-8.75,2.58-20.84,11.09-30.06,11.28-12,.24-20.9,8.57-29.28,16.69-7.1,6.88-17.5,15.47-20.14,25.46-2.41,9.12,4.62,20.32,7.14,28.74,2.92,9.69,4.56,18.12,14.7,22.48,13,5.57,28.34,1.58,38.49-7.68a119.86,119.86,0,0,1,28.46-19.46c11.06-5.51,23.93-9.74,34.11-16.9,9.57-6.73,21.21-18.52,23.53-30.4,1.81-9.27,4.07-14.33,13.49-17.52,10.95-3.7,22.5-5.71,33.17-10.53C358.3,283.66,369.81,256.74,365.48,236.93Z"/><path class="cls-29" d="M277.56,258.65A16.67,16.67,0,0,0,283.3,265c1.87,1.27-1.42,2.39-2.75,2.35-3.73-.08-6.41-4.67-4.95-7.46C276.47,258.19,277.44,258.45,277.56,258.65Z"/><path class="cls-30" d="M280.55,267.31c.11,0,.24,0,.36,0-.48-1.79-2.42-5.63-5.67-6.05C275,263.94,277.39,267.25,280.55,267.31Z"/><g class="cls-11"><path class="cls-14" d="M270.81,267.2a11.79,11.79,0,0,1,2.3,1.86,22.19,22.19,0,0,1,1.58,2.29c.19.25.67.28.75-.1.5-2.5-2.21-4.34-4.23-5-.57-.19-.89.64-.4.94Z"/></g><path class="cls-4" d="M146.94,401.67c-10.18-21.15,14.64-25.34,28.78-30.74,19.2-7.35,94.24-42.33,99-46.12s10.44-7.27,14.8-13.72c5-7.45,10.23-12.8,18.11-17,2.92-1.58,8.83-3.81,10.25-2.13,2.5,3-.2,4.76-5,7.47-1.32.73-4.45,4.09-7.23,5.43,9.11-1.76,21.51-13.51,32.67-14.83,6.77-.81,11.22.54,11.5,8,.35,9.13-7.29,9.17-11.84,15.24-1.83,2.45-2.25,8-11.07,12.7a75.72,75.72,0,0,1-16.51,6.48c-6.84,1.67-16.11,3.6-21.12,5.68s-81.76,57.11-99.57,64C168.54,410.21,151,410.17,146.94,401.67Z"/><path class="cls-4" d="M50.59,236.44C26,260.27,75.38,300.67,87.88,318.73,99.79,336,128.32,372.12,139.2,389.9c6.72,11,9,19.52,22.82,16.81s14.56-13.63,10.76-21.16C159.5,359.2,102.05,272,85.94,252.21,68.44,230.69,50.59,236.44,50.59,236.44Z"/></g></g></svg>