<svg xmlns="http://www.w3.org/2000/svg" viewBox="0 0 290 489"><defs><style>.cls-1{isolation:isolate;}.cls-2{fill:#350f10;}.cls-3{fill:#d48271;}.cls-4{fill:#8786bb;}.cls-5{fill:#be7766;}.cls-24,.cls-6,.cls-8{mix-blend-mode:multiply;}.cls-7,.cls-8{fill:#e4dfdd;}.cls-9{fill:#b37f58;}.cls-10{fill:#f6bec6;}.cls-11{opacity:0.27;}.cls-12{fill:#733133;}.cls-13{fill:#d27462;}.cls-14{fill:#c8c2bd;}.cls-15{fill:#d58f83;}.cls-16{fill:#eee6e3;}.cls-17{fill:#f5f2b9;}.cls-18{fill:#e2dbd9;}.cls-19{fill:#fcf5f3;}.cls-20{fill:#310f08;}.cls-21{fill:#c6bfdf;}.cls-22{fill:#7d4546;}.cls-23{fill:#ed7660;}.cls-24{fill:#f7c2be;}.cls-25{fill:none;stroke:#54160e;stroke-linecap:round;stroke-linejoin:round;stroke-width:1.05px;}.cls-26{fill:#4f201d;}.cls-27{fill:#f4f4f4;}</style></defs><title>Zeichenfläche 1</title><g class="cls-1"><g id="Ebene_1" data-name="Ebene 1"><path class="cls-2" d="M101.56,152a6.38,6.38,0,0,0,12.22,2.55,5.31,5.31,0,0,0,9.13.33,5.26,5.26,0,0,0,3.22,1.1,5.33,5.33,0,0,0,3.59-1.4,7.65,7.65,0,0,0,14.65-.82,5.32,5.32,0,0,0,7.9-3.07,5.32,5.32,0,0,0,9.29-5.07,6.38,6.38,0,0,0,7.37-5.18,6.28,6.28,0,0,0,0-2,7.65,7.65,0,0,0,7.69-11.58,6.38,6.38,0,0,0,5.61-10.45,5.32,5.32,0,0,0,.83-9.18,5.31,5.31,0,0,0,.59-10.06,7.65,7.65,0,0,0,.7-13.4,6.36,6.36,0,0,0-1.21-9.55,5.31,5.31,0,0,0-3.14-9.6,5.12,5.12,0,0,0-.78.06,5.82,5.82,0,0,0,.3-1,5.32,5.32,0,0,0-3.87-6.06,6.38,6.38,0,0,0-2.27-11.69,6.77,6.77,0,0,0-1.61-.08,7.51,7.51,0,0,0,.25-1,6.38,6.38,0,0,0-5.18-7.39,6.66,6.66,0,0,0-1.94,0,5.32,5.32,0,0,0-3.76-7.75l-.37,0a7.76,7.76,0,0,0,.78-2.26,7.66,7.66,0,0,0-11.2-8,6.37,6.37,0,0,0-9.3-5.75,5.31,5.31,0,0,0-7.71-1.88,5.29,5.29,0,0,0-4.26-4.07,5.23,5.23,0,0,0-3,.35A7.66,7.66,0,0,0,111.79,4.3a6.36,6.36,0,0,0-10.66-.69,6.37,6.37,0,0,0-10.5.72,5.3,5.3,0,0,0-7.41-.12A7.65,7.65,0,0,0,72.59,7.06,6.37,6.37,0,0,0,63.9,11a5.49,5.49,0,0,0-1.35-.18,5.32,5.32,0,0,0-5.27,4.64,6.37,6.37,0,0,0-11.37,2.78,7.65,7.65,0,0,0-11,7.12,5.3,5.3,0,0,0-6.84,5,5.32,5.32,0,0,0-7.66,7.31,6.37,6.37,0,0,0-5.78,6.91,6.45,6.45,0,0,0,.48,1.92,7.65,7.65,0,0,0-4.43,13.18A6.37,6.37,0,0,0,8,71.17a5.31,5.31,0,0,0,1.58,9.08,5.31,5.31,0,0,0,2,9.88A7.65,7.65,0,0,0,13.69,103a5.3,5.3,0,0,0,3.84,9,6.37,6.37,0,0,0,5.22,10.7,6,6,0,0,0,1.58-.35,5.68,5.68,0,0,0,0,1,6.39,6.39,0,0,0,6.91,5.8,6.48,6.48,0,0,0,1.88-.46,5.43,5.43,0,0,0-.12,1.67,5.31,5.31,0,0,0,5.76,4.83l.37,0a7.53,7.53,0,0,0-.17,2.38,7.66,7.66,0,0,0,12.82,5v.07a6.37,6.37,0,0,0,10.65,4.15,5.29,5.29,0,0,0,4.34,1.67h0v.09a5.31,5.31,0,1,0,10.59-.92"/><path class="cls-3" d="M125.61,178.06c22,0,31.69,40.44,35.14,57.69,2.41,12.05,5.27,16.67,11.49,36.62,2.73,8.78-4,.32-12.59,6.53-13.27,9.54-15.37,13.64-17.57,8.08-7.7-19.45-35.5-61.65-38.82-79.7C99.64,187.68,125.61,178.06,125.61,178.06Z"/><path class="cls-4" d="M168.73,367.61a61.1,61.1,0,0,1-14.7-19.2c-4-8.31-92.89-15.89-101.74-15.9-2,17.34-18,51.22-37.69,69.32C.27,415-4.55,429,3.92,439.12,14.59,452,61.8,462.25,77.24,463c19.31.88,42-14.29,60.86-16.15s35.11,10,53.67,6.14c13-2.71,99.45-16.13,92.22-52.76C275.37,356.56,198,394.09,168.73,367.61Z"/><path class="cls-5" d="M101.2,415.59C22.33,403.38,4.48,422,3.41,430.26c-4.43,34.32,57.18,26,96.16,27.47,44.85,1.73,139.4-7.79,139.4-7.79,6.51,1.09,24.54,7.07,38.93,13.58,0,0,9.8,2,10.67.54,2.29-3.75,1-5.12-1.46-7.88-6.25-7-14.07-11.21-20.81-17.25-3.43-3.09-9.45-9.78-14.45-9.78-6.09,0-11.58,6.08-17.68,6.25C234.17,435.4,138.41,421.34,101.2,415.59Z"/><path class="cls-3" d="M185.22,404.85c75-27.35,96.12-12.54,98.77-4.67,11,32.79-51,36.61-89,45.7-43.64,10.44-138.24,19.54-138.24,19.54-6.17,2.35-22.69,11.73-35.53,20.92,0,0-9.22,3.85-10.36,2.61-3-3.24-2-4.83-.11-8,4.77-8.13,11.61-13.74,17.05-21,2.77-3.7,7.36-11.44,12.27-12.42,6-1.19,4.15,6.71,10.16,5.68C50.27,453.22,149.85,417.76,185.22,404.85Z"/><path class="cls-4" d="M143.16,263.49c28.4-26.64-18.22-62.05-13-85.43,0,0-33-10.89-73.32-4-23.46,4-23.46,4-25.4,9.73-2.18,6.52,8.56,32.9,15.31,93.28,2.48,22.2-9,90.59-10.29,96.42,0,0,40.57,17.81,131.63-7C168.07,366.54,141.45,265.1,143.16,263.49Z"/><path class="cls-3" d="M41.15,177.43c-31,.51-24.49,36.61-26.5,52.36-1.92,15-1.25,46.77-4,61.57a19.31,19.31,0,0,0,11.2,20.84c16.37,7,17.18-5,18.77-10.86,5.59-20.56,9.59-75.66,10.5-94.07C52.12,187.27,41.15,177.43,41.15,177.43Z"/><g class="cls-6"><path class="cls-7" d="M151.49,267.05c-11.45,7.12-27.15-3.56-32.12-3.56s-32.48,19.79-49.76,0c18.52,25.78,46.72,1.41,52,4.24C139.86,277.45,151.49,267.05,151.49,267.05Z"/></g><path class="cls-3" d="M114.94,174.49s-12.28-1.74-14.21-3.68c-3.8-3.82,1.12-28.85,9.11-47C115,112,93.41,102.65,81.59,99.7l-5,6.2c7.76,43.75-21.33,68.19-21.33,68.19s14.24,45,37,41.68S120.59,203.1,114.94,174.49Z"/><path class="cls-3" d="M60.67,188.2a7.55,7.55,0,0,1,1.68,1.34c8.13,8.78,22.07,5.46,29.47-2.68a59.56,59.56,0,0,0,9.83-15,4.06,4.06,0,0,1-.92-1c-2.78-4.62,1.12-28.85,9.11-47C115,112,93.41,102.65,81.59,99.7l-5,6.2c7.76,43.75-21.33,68.19-21.33,68.19s-.28,3.11,2,8C57.51,182.61,58.75,184.85,60.67,188.2Z"/><path class="cls-8" d="M67.41,159c7-11.57,13.9-34.11,9.22-53.08l4.11-5.13c12.65,2.18,18.93,14.12,29.63,19.44a6,6,0,0,1-.53,3.64c-4.06,9.19-8.92,27.71-9.47,34.18C86.37,152.14,71.94,155.07,67.41,159Z"/><path class="cls-9" d="M120.55,277.22c2.93-4.65,13.48-14.57,17.55-18.63,4.88-4.87,5.56-6.51,8.56-12.59s5-8.59,8.38-14.36c2.8-4.8,5.68-11.5,10.41-14.84,5.56-3.93,12.87-2.47,18,1.84,10.2,8.6,19.1,19.55,12.6,33.33-3.15,6.65-10.06,11.82-15.45,16.7a128.38,128.38,0,0,0-11.3,11.7c-8.59,9.95-16.74,18.93-28.7,25.06-9.77,5-23.75,6.45-34.07,2.35-8-3.16-2.87-15.33,3.82-18Z"/><path class="cls-3" d="M154,295.13c4-4.48.09-13.13.09-13.13,2-2.87,4.12-3.95,10.5-6.05l.9-2.58c-3-2.91-8.14-11.12-10.63-7.45-2.82,4.16-5.17,6-7.58,7,0,0-7.14-6.82-13-2.88-8.93,6-11,10.58-20.93,16.29-3.7,2.13-8.77,8.11-4.79,18s10.07,18.43,20,12.73C138.1,311.49,148.63,301.19,154,295.13Z"/><path class="cls-10" d="M145.6,276.57a8.52,8.52,0,0,1-.48-5.33c-2.57-1.72-7-3.82-10.89-1.22-8.93,6-11,10.58-20.93,16.29-3.7,2.13-8.77,8.11-4.79,18s10.07,18.43,20,12.73c9.64-5.56,20.17-15.86,25.52-21.92,3-3.44,1.47-9.34.57-11.89C151.11,281.81,147.07,279.91,145.6,276.57Z"/><path class="cls-8" d="M154.07,282c2-2.87,4.12-3.95,10.5-6.05l.75-2.14c-2.95-3.29-6-6.56-9.52-8.71a1.89,1.89,0,0,0-1,.82,19.43,19.43,0,0,1-5.28,5.71C154.47,278.06,154.39,280,154.07,282Z"/><path class="cls-3" d="M203.38,261.28c13.59-21.49-8-51.7-32.33-44.4-7.7,2.31-11.46,6.38-15.75,10.94-4.54,4.81-6.47,5.36-10,9.52-4.52,5.29-6,12.92-4.6,19.48s5.94,14,14.47,17c7.18,2.77,15.86,2.57,22.77,1.71,6.12-.77,4.25,1,9.81-2.43C193.57,269.49,199.08,268.09,203.38,261.28Z"/><g class="cls-6"><path class="cls-7" d="M203.38,261.28A27.26,27.26,0,0,0,207.61,248a36.93,36.93,0,0,1-18.44,20.14c-2.17-1.07-4.33-1.88-8.46-.39-.14.4-4.29,2.61-4.76,3-4.68,4.15-6.42,4.38-9.88,5.17h0c.8.05,1.61.07,2.4.08h.28c.8,0,1.59,0,2.38,0h.19c1.67-.05,3.3-.17,4.86-.33l1.1-.11.64-.07c6.12-.77,4.25,1,9.81-2.43,2.86-1.78,6.32-3.48,9.64-5.54A21.29,21.29,0,0,0,203.38,261.28Z"/></g><g class="cls-11"><path class="cls-12" d="M157.75,232.3c1,.45,2,.87,2.28,1.77a1.6,1.6,0,0,1,.1.87,4.5,4.5,0,0,0,0,.5,1.23,1.23,0,0,0,.17.77,1.12,1.12,0,0,0,1.19.48c1.41-.21,1.25-2.55.91-3.47a4.3,4.3,0,0,0-4.16-2.59c-.82,0-1.31,1.28-.45,1.67Z"/></g><g class="cls-11"><path class="cls-12" d="M176.67,259.16h0a.94.94,0,0,0,1-.42,4.38,4.38,0,0,0,0-4.6,3.43,3.43,0,0,0-2.89-1.54c-.94.13-1.7,1.56-.56,2.08a3.05,3.05,0,0,1,1.39.85c.68.83.47,1.76.41,2.75a.88.88,0,0,0,.45.78.82.82,0,0,0,.19.09Z"/></g><path class="cls-13" d="M174.34,268.36c-.67-5.25-14.05-9.25-13.06-.95S175,273.62,174.34,268.36Z"/><path class="cls-13" d="M149.67,233a35.49,35.49,0,0,0-4.39,4.31,20.18,20.18,0,0,0-3.15,5.1,14.66,14.66,0,0,0,3.11,2.39C151.69,247.89,152.45,237.44,149.67,233Z"/><g class="cls-6"><path class="cls-14" d="M158.1,246.75c-1,.83-2,.35-3,.82a1.8,1.8,0,0,0-1,1.42,2.29,2.29,0,0,0,2,2.36c.08,0,.08-.12,0-.13-1.57-.14-2.29-2.88-.6-3.41.49-.15,1-.07,1.51-.2a2.39,2.39,0,0,0,1.23-.79,0,0,0,1,0-.07-.07Z"/></g><path class="cls-15" d="M115.4,305.63c-10.79,2.36-15-7.33-19.33-5.9-2.86.95-9.83,12.16-11.36,14.71-.29.48.58,2-2,4.09-3.27,2.67-14.75-4.14-12.56-7.46s8.5,2.4,10.05.38c3.52-4.61,3.32-19.09,7.82-23.93,6.42-6.91,13-3.15,26.13-1.07C128.14,288.67,128.49,302.77,115.4,305.63Z"/><path class="cls-8" d="M118.36,302c-5.94-4.35-14.57-6.58-20-2.06,3.71,1.44,8.12,7.69,17,5.74a14.47,14.47,0,0,0,6.13-2.81A4.42,4.42,0,0,1,118.36,302Z"/><path class="cls-15" d="M125.08,318.54c-10.33,3.9-14.84-2.92-18.93-.87-2.7,1.35-7,14-8.14,16.78-.21.51.86,1.87-1.4,4.34-2.86,3.11-15.2-2-13.52-5.58s8.77,1.15,10-1.06c2.82-5.07-.44-20,3.31-25.4,5.35-7.76,12.07-7.39,25.33-6.68C135.29,300.81,137.63,313.83,125.08,318.54Z"/><path class="cls-15" d="M180.38,267.52c4.15-1.4,11.86,2.8,7.1,7.44-3.93,3.82-17.53,4.11-11.21-4.6Z"/><g class="cls-11"><path class="cls-12" d="M183,228.45c2.3.2,4.5-.06,6.81.37a36.46,36.46,0,0,1,5.81,1.78c.26.09.41-.3.19-.43-3.37-1.92-9.13-3.71-12.84-1.82-.05,0,0,.09,0,.1Z"/><path class="cls-12" d="M184.63,233.05a23.53,23.53,0,0,1,6.17-1,22.06,22.06,0,0,1,6.07,1.34.26.26,0,0,0,.2-.47c-3.62-2.13-8.95-2.45-12.5,0-.08.06,0,.18.06.16Z"/><path class="cls-12" d="M187.93,235.35a22.18,22.18,0,0,1,6.09,0c.12,0,.12-.16,0-.2a12.09,12.09,0,0,0-6.18-.07c-.18,0-.1.29.07.26Z"/></g><path class="cls-16" d="M118.61,282.85s1.85,10,20.75,26.37c0,0-8.63,9.31-13.89,9.17,0,0-3.19-16.61-14.32-18.65,0,0,1.68-11,.74-13.68A40.25,40.25,0,0,1,118.61,282.85Z"/><path class="cls-17" d="M139.36,309.22c-2.25-1.94-4.24-3.79-6-5.54-1.59-.91-3.71-1.51-5.63,0-3.65,2.87-6.65,2.29-4.89,6.81h0a37.33,37.33,0,0,1,2.67,7.9C130.73,318.53,139.36,309.22,139.36,309.22Z"/><path class="cls-18" d="M111.89,286.06a13.4,13.4,0,0,1,.25,4.09c1.17-.46,2.5-1.58,4.64-2.41a4.2,4.2,0,0,0,2.55-2.74,12.22,12.22,0,0,1-.72-2.15A40.25,40.25,0,0,0,111.89,286.06Z"/><path class="cls-17" d="M114.3,287.55a11.09,11.09,0,0,1,.48,3.5c0,.66.16,1.32.17,2,1-.66,2.43-.69,3.35-1.31-.48-.52-.57-2-.64-2.73s-.14-1.67-.27-2.49c-.85-.18-1.67.78-2.45,1-.14,0,0,0,0-.08Z"/><path class="cls-19" d="M129.69,305.69a32.15,32.15,0,0,0-4.2-4.13c-.24-.2-.26-.37-.58-.35s-1.24.8-1.62,1a10.59,10.59,0,0,0-1.78.9c.93.47,1.58,1.81,2.35,2.54s1.67,1.84,2.58,2.66c.12-.37.67-.63,1-.87.55-.4,1.09-1,1.78-1.12Z"/><path class="cls-20" d="M156.07,237.82a1.33,1.33,0,0,0,0-2.66,1.33,1.33,0,0,0,0,2.66Z"/><path class="cls-20" d="M172.24,259.26a1.33,1.33,0,0,0,0-2.66,1.33,1.33,0,0,0,0,2.66Z"/><path class="cls-21" d="M212.12,236.61c-3.23-14.11-23.28-28-37.88-25.12-2.67.52-8.13,3-8.79,5.31,3.65.24,7.93-.69,11.51.67,10.87,4.14,16.2,12.76,16.22,24.21,0,14.59-9.93,24.89-22.62,30.51-6,2.67-7.58,9.81-17.39,8.72-26.34-2.93-15.07-22.32-15.07-22.32-6,1.14-18.9,14.72-22.49,15.82-6.06,1.84-14.4,7.84-20.8,8-8.36.26-14.45,6.1-20.22,11.8-4.89,4.82-12.05,10.87-13.81,17.82-1.62,6.35,3.34,14.09,5.16,19.91,2.09,6.72,3.29,12.56,10.36,15.51,9.06,3.79,19.69.91,26.67-5.58a83.19,83.19,0,0,1,19.65-13.72c7.64-3.91,16.55-6.94,23.57-12,6.6-4.74,14.6-13,16.13-21.28,1.19-6.46,2.73-10,9.25-12.26,7.58-2.65,15.59-4.13,23-7.55C207.46,269.12,215.27,250.34,212.12,236.61Z"/><path class="cls-22" d="M151.21,252.3a11.57,11.57,0,0,0,4,4.36c1.3.86-1,1.66-1.9,1.65-2.59,0-4.49-3.2-3.49-5.16C150.45,252,151.13,252.17,151.21,252.3Z"/><path class="cls-23" d="M153.35,258.31l.25,0c-.34-1.24-1.72-3.89-4-4.16A4.08,4.08,0,0,0,153.35,258.31Z"/><g class="cls-6"><path class="cls-7" d="M146.58,258.29a8.24,8.24,0,0,1,1.61,1.28,15.5,15.5,0,0,1,1.11,1.58c.13.17.46.2.52-.07.35-1.74-1.57-3-3-3.44a.36.36,0,0,0-.28.65Z"/></g><path class="cls-3" d="M186.84,278c18.17,4.64,24.14-10.67,22-18.11-3.63-12.36-17.42-11-15.25-3.41,3.86,13.41.87,14.77-.94,17.06S186.84,278,186.84,278Z"/><path class="cls-3" d="M12.84,294.39c7.31-15.29,25.36-3.07,34.8,2.45,12.82,7.49,41.29,32.67,55.33,25,5.9-2.68,11.14-4,17.59-3.67,2.39.13,6.86,1,7.11,2.56.43,2.77-1.91,2.86-5.91,2.7-1.1-.05-4.3.84-6.51.62,6.28,2.35,18.34-.21,25.71,3.18,4.48,2.06,6.71,4.56,4.07,9.27-3.23,5.75-7.95,2.9-13,4.92-2.05.82-12.09,7.73-47.59-2.83-12.86-3.83-48.21-17.74-61.17-22.42C7.61,310.55,9.91,300.54,12.84,294.39Z"/><path class="cls-3" d="M136.13,70.41c4.29,11.92,1.44,17.17.14,28.09-1.24,10.39-1,12.51-3.37,20.87-3,10.68-12.6,19.14-22.31,25.37C94.74,153.92,81.3,141.3,73.32,128c-15.65-26.17-12.85-52-6-65.44,9.69-19.4,28.75-19.24,47.09-13.9C114.43,48.61,129.41,51.73,136.13,70.41Z"/><path class="cls-2" d="M51.52,70.48a31.84,31.84,0,0,1,4.11-15c2.27-3.72,4.71-4.24,8.19-6.06,3.91-2.06,7-5.45,10.73-7.87C82.06,36.64,91,33.89,100,35.43c19.59,3.35,37.7,18.78,44.44,37.38a4.15,4.15,0,0,0,5.15,2.77c-4,1.67-11.42,12.45-11.2,8.4.7-12.5-12.33-22-12.33-22S98,74.33,80.81,77.59C74.78,78.73,72.1,97.09,65,95,55.2,92.21,51.12,81.12,51.52,70.48Z"/><path class="cls-3" d="M68.32,98.89C66,91.6,54.09,85.67,53.43,97.44c-.55,9.7,11.9,28.79,15.61,10.29Z"/><path class="cls-24" d="M91.1,121.43s5.69,2.16,9.56,1.66a3.43,3.43,0,0,1,2.71,1.23,3,3,0,0,1,3.25-.24,15.12,15.12,0,0,0,4.37,1.23,7.34,7.34,0,0,0-2.93,2.07c-.29.43,1,2.26-.08,3.46-1.53,1.64-3.73,2-6.84,1.37a12.8,12.8,0,0,1-8.65-7A21.69,21.69,0,0,1,91.1,121.43Z"/><path class="cls-25" d="M121,100.67c.16-2.85,4.58-2.6,4.42.25h0"/><path class="cls-25" d="M85,98.65c.16-2.85,4.59-2.6,4.43.25h0"/><path class="cls-26" d="M95.1,89.76c-.55-2.56-4.08-4.15-6.48-4.44s-6.53.37-7.77,2.57a1.27,1.27,0,0,0,.45,1.72c2,1.09,4.36-.31,6.54-.45C90.3,89,91.9,91,94.2,90.94a.94.94,0,0,0,.9-1.18Z"/><path class="cls-26" d="M117.74,92.26c2.28.14,4.05-1.49,6.45-1.06,2.1.38,4.12,1.92,6.25,1.24a1.28,1.28,0,0,0,.74-1.85c-1.13-2.25-5.18-3.4-7.6-3.31s-5.76,1.35-6.74,3.8c-.24.6.36,1.14.9,1.18Z"/><path class="cls-13" d="M73.88,103.92c7-3.27,22.27,10,11.35,15.24S66.92,107.19,73.88,103.92Z"/><path class="cls-13" d="M135.37,107.15A65.58,65.58,0,0,1,133,118.7a25.45,25.45,0,0,1-1,2.86,8.45,8.45,0,0,1-9.15-.29C112.84,115,128.52,103.9,135.37,107.15Z"/><g class="cls-6"><path class="cls-14" d="M116.61,92.09c-2.11,1.91-4.31,4.74-4.7,7.63,0,.14.19.27.26.11.66-1.36,1.21-2.71,2-4s1.71-2.44,2.47-3.72c0,0,0,0,0,0Z"/></g><g class="cls-6"><path class="cls-14" d="M109.79,106a15.71,15.71,0,0,0-.13,7c.18.94.79,2.55.54,3.48-.47,1.77-3.23,1.91-4.64,1.42-.12,0-.2.15-.08.2,1.41.64,4.71.8,5.37-1.09.34-1-.31-2.71-.51-3.62A19.89,19.89,0,0,1,110,106c0-.11-.14-.16-.17,0Z"/></g><path class="cls-27" d="M111,125.34c-10.14,1.6-19.88-3.91-19.88-3.91,1.67,6.06,15,11.42,17.1,6.78A8.42,8.42,0,0,1,111,125.34Z"/><g class="cls-6"><path class="cls-7" d="M101.57,137.32c-1.26-1.27-3.4-2.42-5.12-1.29a.33.33,0,0,0,.17.61,9.92,9.92,0,0,1,4.43,1.35c.41.26.85-.33.52-.67Z"/></g></g></g></svg>