<svg xmlns="http://www.w3.org/2000/svg" viewBox="0 0 308 498"><defs><style>.cls-1{isolation:isolate;}.cls-2{fill:#f5ad9d;}.cls-3{fill:#a2afda;}.cls-4{fill:#e3a292;}.cls-5{fill:#8786bb;}.cls-25,.cls-6,.cls-8{mix-blend-mode:multiply;}.cls-7,.cls-8{fill:#e4dfdd;}.cls-9{fill:#dbd5d2;}.cls-10{fill:#f6bec6;}.cls-11{opacity:0.27;}.cls-12{fill:#733133;}.cls-13{fill:#f39f8a;}.cls-14{fill:#c8c2bd;}.cls-15{fill:#d58f83;}.cls-16{fill:#eee6e3;}.cls-17{fill:#f5f2b9;}.cls-18{fill:#e2dbd9;}.cls-19{fill:#fcf5f3;}.cls-20{fill:#310f08;}.cls-21{fill:#bce3f4;}.cls-22{fill:#7d4546;}.cls-23{fill:#ed7660;}.cls-24{fill:#f6b49a;}.cls-25{fill:#f7c2be;}.cls-26{fill:#693e3e;}.cls-27{fill:#f4f4f4;}.cls-28{fill:none;stroke:#54160e;stroke-linecap:round;stroke-linejoin:round;stroke-width:1.02px;}.cls-29{fill:#784747;}.cls-30{fill:#7a4c4c;}</style></defs><title>Zeichenfläche 1</title><g class="cls-1"><g id="Ebene_1" data-name="Ebene 1"><path class="cls-2" d="M174.25,168c-23.37,0-33.62,42.9-37.27,61.2-2.56,12.78-5.59,17.69-12.19,38.85-2.9,9.31,4.18.34,13.35,6.93,14.08,10.12,16.3,14.46,18.64,8.56C165,262.92,194.44,218.15,198,199,201.8,178.21,174.25,168,174.25,168Z"/><path class="cls-3" d="M128.51,369.09a64.63,64.63,0,0,0,15.59-20.38c4.21-8.81,98.55-16.86,107.93-16.86,2.15,18.39,19,54.33,40,73.53,15.2,13.95,20.31,28.77,11.33,39.56-11.32,13.6-61.4,24.53-77.78,25.28-20.48.93-44.59-15.16-64.56-17.13-20.12-2-37.24,10.6-56.93,6.51-13.84-2.88-105.5-17.11-97.83-56C15.38,357.36,97.5,397.17,128.51,369.09Z"/><path class="cls-4" d="M200.15,420c83.66-13,102.6,6.85,103.73,15.57,4.7,36.41-60.65,27.54-102,29.14C154.3,466.52,54,456.41,54,456.41c-6.91,1.17-26,7.51-41.3,14.42,0,0-10.39,2.09-11.32.57-2.43-4-1-5.43,1.55-8.36,6.64-7.47,14.92-11.9,22.07-18.3,3.65-3.28,10-10.38,15.34-10.38,6.46,0,12.28,6.46,18.75,6.64C59.09,441,160.68,426.08,200.15,420Z"/><path class="cls-2" d="M111,408.59c-79.53-29-102-13.3-104.78-5-11.71,34.79,54.12,38.84,94.37,48.48,46.3,11.08,146.64,20.73,146.64,20.73,6.55,2.49,24.08,12.44,37.69,22.19,0,0,9.79,4.08,11,2.77,3.16-3.43,2.09-5.12.11-8.5C291,480.67,283.73,474.72,278,467c-2.94-3.92-7.81-12.13-13-13.17-6.34-1.26-4.41,7.12-10.78,6C254.18,459.9,148.54,422.28,111,408.59Z"/><path class="cls-5" d="M155.64,258.63C125.51,230.37,175,192.81,169.45,168c0,0,35-11.55,77.77-4.21,24.89,4.27,24.9,4.21,27,10.33,2.31,6.91-9.08,34.89-16.24,98.95-2.63,23.55,9.6,96.1,10.92,102.28,0,0-43,18.89-139.64-7.41C129.21,367.94,157.45,260.34,155.64,258.63Z"/><path class="cls-2" d="M263.85,167.34c32.85.54,26,38.84,28.11,55.54,2,15.92,1.33,49.62,4.23,65.32a20.48,20.48,0,0,1-11.88,22.1C267,317.74,266.09,305,264.4,298.78,258.47,277,254.22,218.52,253.27,199,252.22,177.78,263.85,167.34,263.85,167.34Z"/><g class="cls-6"><path class="cls-7" d="M146.8,262.4c12.14,7.56,28.8-3.77,34.07-3.77s34.46,21,52.78,0c-19.64,27.34-49.55,1.5-55.17,4.5C159.14,273.43,146.8,262.4,146.8,262.4Z"/></g><path class="cls-2" d="M185.57,164.22s13-1.85,15.08-3.91c4-4.05-1.19-30.6-9.67-49.81C185.46,98,208.41,88,221,84.88l5.27,6.57c-8.24,46.42,22.61,72.34,22.61,72.34s-15.1,47.75-39.27,44.22S179.58,194.57,185.57,164.22Z"/><path class="cls-2" d="M243.14,178.76a8.16,8.16,0,0,0-1.78,1.42c-8.63,9.31-23.41,5.8-31.26-2.84a63.29,63.29,0,0,1-10.43-16,4.2,4.2,0,0,0,1-1.07c2.94-4.89-1.19-30.6-9.67-49.81C185.46,98,208.41,88,221,84.88l5.27,6.57c-8.24,46.42,22.61,72.34,22.61,72.34s.3,3.31-2.07,8.46C246.5,172.83,245.18,175.21,243.14,178.76Z"/><path class="cls-8" d="M236,147.76c-7.39-12.27-14.74-36.18-9.77-56.31L221.85,86c-13.42,2.31-20.07,15-31.43,20.62a6.47,6.47,0,0,0,.56,3.86c4.3,9.75,9.46,29.39,10.05,36.26C215.88,140.51,231.19,143.61,236,147.76Z"/><path class="cls-9" d="M179.62,273.2c-3.11-4.94-14.3-15.46-18.62-19.77-5.17-5.16-5.9-6.9-9.08-13.35S146.61,231,143,224.84c-3-5.09-6-12.19-11-15.74-5.9-4.17-13.65-2.62-19.08,2-10.81,9.12-20.26,20.74-13.36,35.35,3.34,7.06,10.68,12.55,16.39,17.73a136,136,0,0,1,12,12.4c9.11,10.57,17.75,20.08,30.44,26.59,10.36,5.32,25.19,6.84,36.14,2.49,8.46-3.35,3.05-16.26-4-19.07Z"/><path class="cls-2" d="M144.16,292.2c-4.2-4.76-.1-13.93-.1-13.93-2.17-3-4.37-4.2-11.14-6.42l-.95-2.74c3.2-3.08,8.63-11.8,11.27-7.9,3,4.41,5.49,6.31,8,7.41,0,0,7.56-7.24,13.82-3.06,9.48,6.33,11.71,11.22,22.2,17.28,3.93,2.26,9.3,8.6,5.09,19.1s-10.69,19.55-21.17,13.51C161,309.55,149.83,298.62,144.16,292.2Z"/><path class="cls-10" d="M153.05,272.5a9,9,0,0,0,.51-5.65c2.72-1.83,7.42-4.05,11.55-1.29,9.48,6.33,11.71,11.22,22.2,17.28,3.93,2.26,9.3,8.6,5.09,19.1s-10.69,19.55-21.17,13.51c-10.23-5.9-21.4-16.83-27.07-23.25-3.23-3.66-1.56-9.91-.61-12.62C147.2,278.07,151.49,276.05,153.05,272.5Z"/><path class="cls-8" d="M144.06,278.27c-2.16-3-4.36-4.2-11.14-6.42l-.79-2.27c3.13-3.49,6.38-7,10.1-9.24a2,2,0,0,1,1,.87,20.75,20.75,0,0,0,5.61,6.06C143.64,274.09,143.72,276.11,144.06,278.27Z"/><path class="cls-2" d="M91.75,256.29c-14.41-22.8,8.45-54.85,34.3-47.1,8.17,2.45,12.16,6.77,16.71,11.6,4.82,5.1,6.87,5.69,10.62,10.1,4.8,5.61,6.35,13.71,4.89,20.67s-6.3,14.89-15.35,18c-7.62,2.93-16.83,2.72-24.15,1.81-6.5-.81-4.52,1.08-10.41-2.58C102.16,265,96.32,263.51,91.75,256.29Z"/><g class="cls-6"><path class="cls-7" d="M91.75,256.29a28.89,28.89,0,0,1-4.48-14.05,39.22,39.22,0,0,0,19.56,21.37c2.3-1.13,4.59-2,9-.42.15.43,4.55,2.78,5.06,3.23,5,4.4,6.81,4.64,10.48,5.48h0c-.85.05-1.7.08-2.54.09h-.3q-1.28,0-2.52,0h-.21c-1.77-.06-3.5-.19-5.15-.36l-1.17-.12-.67-.07c-6.5-.81-4.52,1.08-10.41-2.58-3-1.88-6.71-3.69-10.23-5.88A22.34,22.34,0,0,1,91.75,256.29Z"/></g><g class="cls-11"><path class="cls-12" d="M139.68,223.77a4.58,4.58,0,0,0-4.41,2.74c-.36,1-.53,3.47,1,3.69a1.2,1.2,0,0,0,1.27-.51c.3-.4.14-1.14.13-1.41a2,2,0,0,1,.11-.86c.35-.95,1.4-1.4,2.42-1.88s.39-1.74-.48-1.77Z"/></g><g class="cls-11"><path class="cls-12" d="M120.23,254l.06,0a1,1,0,0,0,.48-.84c-.07-1.05-.29-2,.43-2.92a3.41,3.41,0,0,1,1.47-.9c1.21-.55.41-2.07-.59-2.2a3.63,3.63,0,0,0-3.07,1.63,4.66,4.66,0,0,0,0,4.88,1,1,0,0,0,1.09.44.36.36,0,0,0,.17-.07Z"/></g><path class="cls-13" d="M122.56,263.8c.72-5.58,14.9-9.82,13.86-1S121.84,269.38,122.56,263.8Z"/><path class="cls-13" d="M148.73,226.32a36.25,36.25,0,0,1,4.65,4.57,21.62,21.62,0,0,1,3.35,5.41,16,16,0,0,1-3.3,2.54C146.58,242.08,145.77,231,148.73,226.32Z"/><g class="cls-6"><path class="cls-14" d="M139.71,241a2.64,2.64,0,0,0,1.19.81c.56.16,1.16.06,1.72.24,1.8.56,1,3.47-.63,3.61-.09,0-.1.14,0,.14a2.44,2.44,0,0,0,2.13-2.51,1.92,1.92,0,0,0-1.09-1.49c-1.12-.5-2.2,0-3.24-.88a.06.06,0,0,0-.08.08Z"/></g><path class="cls-15" d="M185.09,303.33c11.44,2.5,15.89-7.77,20.5-6.25,3,1,10.43,12.89,12,15.59.3.51-.61,2.11,2.14,4.35,3.47,2.83,15.65-4.39,13.33-7.92s-9,2.55-10.66.41c-3.74-4.89-3.53-20.26-8.3-25.39-6.81-7.33-13.8-3.34-27.72-1.14C171.57,285.34,171.2,300.29,185.09,303.33Z"/><path class="cls-8" d="M181.94,299.42c6.31-4.61,15.46-7,21.2-2.18-3.93,1.53-8.61,8.16-18,6.09a15.42,15.42,0,0,1-6.51-3A4.61,4.61,0,0,0,181.94,299.42Z"/><path class="cls-15" d="M174.81,317c11,4.13,15.75-3.1,20.09-.92,2.86,1.43,7.42,14.88,8.63,17.79.22.55-.91,2,1.49,4.61,3,3.3,16.12-2.09,14.34-5.92s-9.31,1.22-10.61-1.13c-3-5.38.47-21.17-3.51-26.94-5.68-8.23-12.8-7.84-26.87-7.08C164,298.21,161.5,312,174.81,317Z"/><path class="cls-15" d="M116.15,262.9c-4.4-1.49-12.58,3-7.52,7.89,4.16,4.06,18.58,4.37,11.88-4.88Z"/><g class="cls-11"><path class="cls-12" d="M113.41,221.36c-3.93-2-10-.11-13.61,1.92-.24.13-.08.56.19.46a37.38,37.38,0,0,1,6.16-1.88c2.46-.46,4.8-.19,7.24-.4,0,0,.07-.08,0-.1Z"/><path class="cls-12" d="M111.71,226.17c-3.77-2.56-9.42-2.22-13.26.05a.27.27,0,0,0,.21.49,23.56,23.56,0,0,1,6.44-1.42,25,25,0,0,1,6.54,1.05.09.09,0,0,0,.07-.17Z"/><path class="cls-12" d="M108.22,228.51c-2.18-.38-4.44-.7-6.56.07-.11,0-.1.23,0,.21a23.61,23.61,0,0,1,6.45,0c.18,0,.26-.24.08-.27Z"/></g><path class="cls-16" d="M181.68,279.17s-2,10.64-22,28c0,0,9.15,9.88,14.73,9.73,0,0,3.38-17.63,15.19-19.79,0,0-1.78-11.65-.78-14.5A42.71,42.71,0,0,0,181.68,279.17Z"/><path class="cls-17" d="M159.67,307.14c2.39-2.06,4.5-4,6.4-5.88,1.68-1,3.94-1.6,6,0,3.88,3,7.06,2.42,5.2,7.22h0a40.23,40.23,0,0,0-2.83,8.39C168.82,317,159.67,307.14,159.67,307.14Z"/><path class="cls-18" d="M188.81,282.58a13.84,13.84,0,0,0-.27,4.33c-1.24-.49-2.65-1.68-4.92-2.56a4.46,4.46,0,0,1-2.7-2.9,13.44,13.44,0,0,0,.76-2.28A42.71,42.71,0,0,1,188.81,282.58Z"/><path class="cls-17" d="M186.25,284.15a11.8,11.8,0,0,0-.51,3.71c0,.7-.16,1.41-.18,2.09-1-.7-2.57-.72-3.55-1.38.51-.56.6-2.14.68-2.9s.14-1.77.28-2.64c.9-.19,1.77.83,2.61,1,.14,0,0,0,0-.08Z"/><path class="cls-19" d="M169.93,303.39a34.68,34.68,0,0,1,4.45-4.37c.26-.22.28-.4.62-.37s1.31.84,1.71,1.07a10.46,10.46,0,0,1,1.89,1c-1,.5-1.68,1.92-2.49,2.7-1,.91-1.78,1.95-2.74,2.82-.13-.4-.71-.67-1.06-.93-.58-.42-1.15-1.08-1.89-1.19Z"/><path class="cls-20" d="M141.94,231.4a1.41,1.41,0,1,0-1.41-1.41,1.43,1.43,0,0,0,1.41,1.41Z"/><path class="cls-20" d="M124.79,254.14a1.41,1.41,0,1,0-1.41-1.41,1.43,1.43,0,0,0,1.41,1.41Z"/><path class="cls-21" d="M82.48,230.12c3.43-15,24.7-29.68,40.19-26.65,2.83.55,8.62,3.2,9.32,5.63-3.87.25-8.42-.73-12.21.71-11.53,4.39-17.19,13.53-17.21,25.68,0,15.48,10.54,26.4,24,32.37,6.39,2.83,8,10.41,18.44,9.25,28-3.11,16-23.68,16-23.68,6.34,1.21,20.05,15.62,23.86,16.78,6.43,2,15.27,8.32,22.07,8.52,8.86.27,15.33,6.48,21.45,12.52,5.18,5.12,12.78,11.53,14.65,18.91,1.71,6.73-3.55,14.94-5.47,21.12-2.23,7.13-3.5,13.32-11,16.45-9.61,4-20.89,1-28.3-5.93a88,88,0,0,0-20.84-14.55c-8.11-4.15-17.55-7.36-25-12.71-7-5-15.48-13.8-17.11-22.57-1.26-6.85-2.9-10.6-9.81-13-8-2.81-16.54-4.37-24.37-8C87.42,264.6,79.14,244.68,82.48,230.12Z"/><path class="cls-22" d="M147.1,246.76a12.33,12.33,0,0,1-4.29,4.62c-1.37.91,1,1.76,2,1.75,2.74,0,4.76-3.39,3.7-5.46C147.91,246.43,147.19,246.62,147.1,246.76Z"/><path class="cls-23" d="M144.83,253.13l-.27,0c.37-1.31,1.83-4.12,4.23-4.41A4.32,4.32,0,0,1,144.83,253.13Z"/><g class="cls-6"><path class="cls-7" d="M151.71,252.42c-1.48.46-3.51,1.81-3.14,3.65.06.29.41.26.55.08a18.06,18.06,0,0,1,1.18-1.68,8.2,8.2,0,0,1,1.71-1.35.39.39,0,0,0-.3-.7Z"/></g><path class="cls-24" d="M109.3,274.07C90,279,83.69,262.74,86,254.86c3.85-13.11,18.47-11.66,16.17-3.63-4.09,14.23-.93,15.67,1,18.1S109.3,274.07,109.3,274.07Z"/><path class="cls-2" d="M293.88,291.41C286.13,275.19,267,288.15,257,294c-13.59,7.95-43.8,34.65-58.69,26.54-6.26-2.85-11.81-4.26-18.66-3.89-2.54.14-7.28,1-7.54,2.71-.45,2.94,2,3,6.27,2.86,1.16-.05,4.56.9,6.9.66-6.66,2.49-19.45-.22-27.27,3.38-4.75,2.18-7.12,4.84-4.32,9.83,3.42,6.1,8.43,3.07,13.84,5.22,2.17.87,12.82,8.2,50.48-3,13.64-4.06,51.14-18.82,64.89-23.79C299.43,308.55,297,297.94,293.88,291.41Z"/><path class="cls-2" d="M235.59,60.75C228,42.88,213.21,40.66,213.21,40.66a82.26,82.26,0,0,0-9-1.59v-.33c-.59,0-1.18.1-1.79.15s-1.18-.12-1.78-.15v.33a81.67,81.67,0,0,0-9,1.59s-14.8,2.22-22.38,20.09c-4.83,11.39-2.35,16.68-1.67,27.4.63,10.22.3,12.26,2.14,20.57,2.35,10.58,11.26,19.37,20.39,26a22.57,22.57,0,0,0,24.61,0c9.14-6.61,18.05-15.4,20.39-26,1.85-8.31,1.52-10.35,2.15-20.57C237.93,77.43,240.42,72.14,235.59,60.75Z"/><path class="cls-25" d="M210.69,114.28s-5.66,1.79-9.41,1.09a3.37,3.37,0,0,0-2.71,1,3,3,0,0,0-3.16-.4,14.82,14.82,0,0,1-4.33,1,7.13,7.13,0,0,1,2.74,2.18c.26.43-1.14,2.14-.12,3.37,1.41,1.69,3.53,2.17,6.62,1.71a12.47,12.47,0,0,0,8.81-6.39A21,21,0,0,0,210.69,114.28Z"/><path class="cls-26" d="M209.39,84.34c2.18.08,3.82-1.65,6.14-1.42,2.06.21,4.24,1.75,6.24.92a1.26,1.26,0,0,0,.74-1.81c-1.17-2.18-5.21-3-7.52-2.87s-5.74,1.59-6.48,4a.92.92,0,0,0,.88,1.15Z"/><path class="cls-26" d="M187.22,83.19c-.74-2.44-4.09-3.86-6.47-4s-6.36.69-7.53,2.87a1.26,1.26,0,0,0,.73,1.81c2,.82,4.2-.7,6.25-.92,2.32-.24,4,1.5,6.14,1.42a.92.92,0,0,0,.88-1.15Z"/><path class="cls-13" d="M228.47,98.13c-6.63-3.58-22.29,8.51-11.91,14.26S235.07,101.7,228.47,98.13Z"/><path class="cls-13" d="M168.27,97.91a63.69,63.69,0,0,0,1.66,11.41,27.16,27.16,0,0,0,.81,2.84,8.31,8.31,0,0,0,9,.23C189.83,106.78,175.12,95.12,168.27,97.91Z"/><g class="cls-6"><path class="cls-14" d="M187.38,84.26c.63,1.22,1.42,2.35,2.09,3.55A43.18,43.18,0,0,1,191.3,92c.06.13.29.14.28,0-.23-2.87-2.21-5.75-4.18-7.73,0,0,0,0,0,0Z"/></g><g class="cls-6"><path class="cls-14" d="M193.12,98.19a18.47,18.47,0,0,1-.54,6.37c-.31,1.17-1.1,2.79-.91,4,.31,2.07,3.61,2.22,5.16,1.63a.1.1,0,0,0-.06-.2c-2,.55-4.52-.21-4.34-2.53a17.93,17.93,0,0,1,.69-2.78,14.88,14.88,0,0,0,.17-6.54c0-.1-.18-.08-.17,0Z"/></g><path class="cls-27" d="M191.08,117c9.81,2.1,19.61-2.73,19.61-2.73-1.95,5.82-15.28,10.32-17.05,5.68A8.35,8.35,0,0,0,191.08,117Z"/><g class="cls-6"><path class="cls-7" d="M200.1,129.88a9.74,9.74,0,0,1,4.4-1.06.32.32,0,0,0,.16-.6c-1.62-1.19-3.77-.17-5.06,1a.41.41,0,0,0,.5.65Z"/></g><path class="cls-28" d="M183.58,92.87a3.24,3.24,0,0,0-3.1-2.17,2.75,2.75,0,0,0-2.81,2.17"/><path class="cls-28" d="M212.79,92.87a3.24,3.24,0,0,1,3.1-2.17,2.75,2.75,0,0,1,2.82,2.17"/><path class="cls-26" d="M158.57,7.85c-7.74,1.41-15.58,7.77-12.79,16.46a.16.16,0,1,0,.32-.08c-1.25-8.37,4.82-14.35,12.49-16.33,0,0,0-.05,0-.05Z"/><path class="cls-26" d="M148.85,15.25c-2.3,2.15-2.16,5.24-1.43,8.11.79,3.11,2.28,7.5,4.7,9.67a.27.27,0,0,0,.44-.26c-.91-5.39-8.22-11.8-3.58-17.39.08-.09,0-.22-.13-.13Z"/><path class="cls-26" d="M182.26,11.59C182.15,5.21,176.2,1.27,170.19,1c-5.41-.23-13.79,4.35-11.62,10.91a.46.46,0,0,0,.88,0c1-2.37,1.21-4.73,3.29-6.53a12.39,12.39,0,0,1,7.45-2.61c5.75-.42,11.44,2.52,11.87,8.81,0,.12.2.12.2,0Z"/><path class="cls-26" d="M182.17,25.24a105.12,105.12,0,0,0-2.39-15.43c-1.49-6.37-5.72-7.83-12-8-6.74-.17-8.33,5.85-9.22,6.05-16.36,3.69-10.87,14.45-9.27,17.91,2,4.42,7.07,7.16,11.22,9.23a20.53,20.53,0,0,0,7.29,2.16s7.86-1.81,11-4.84A11.28,11.28,0,0,0,182.17,25.24Z"/><path class="cls-29" d="M238.5,19.35c-6.8-6.36-42.43-14-62.16.54-15.54,11.45-21.91,27.65-20.91,46.83.2,3.79,3.62,13.82,4.28,19.21,1.27,10.59,4.79,17.62,10,22.79,0,0-2.85-19.35,2.31-26.35s1.43-24,15.95-24.47c16.56-.58,26.84-8.55,27.44-5.75C218,64.58,229.35,67.77,229.61,75c.48,13.57,1.44,20.76,4.77,17.1,4-4.35,2.22,4.71,2.22,4.71s-3.23,6.34-1.23,4.74c-2.58,4.74-2.69,13.93-2.69,13.93C245,104.6,253.37,92,255.48,74.55,260.12,36.49,245.23,25.64,238.5,19.35Z"/><path class="cls-2" d="M233.85,93.12c1.79-7.27,13-13.85,14.42-2.41,1.19,9.42-9.67,28.88-14.53,11.09Z"/><path class="cls-30" d="M253.19,7.9c7.67,2,13.74,8,12.49,16.33a.16.16,0,0,0,.32.08c2.78-8.69-5.05-15-12.8-16.46a0,0,0,0,0,0,.05Z"/><path class="cls-30" d="M262.79,15.38c4.64,5.57-2.67,12-3.58,17.39a.27.27,0,0,0,.44.26c2.41-2.15,3.92-6.58,4.7-9.67.73-2.86.88-6-1.43-8.11-.09-.09-.21,0-.13.13Z"/><path class="cls-30" d="M229.72,11.59c.44-6.29,6.13-9.23,11.88-8.81a12.57,12.57,0,0,1,7,2.24c2.44,1.86,2.69,4.27,3.79,6.9a.46.46,0,0,0,.88,0C255.39,5.36,247,.78,241.6,1c-6,.26-12,4.2-12.07,10.58a.1.1,0,0,0,.19,0Z"/><path class="cls-30" d="M229.61,25.24A106.11,106.11,0,0,1,232,9.81c1.5-6.37,5.73-7.83,12-8,6.75-.17,8.33,5.85,9.22,6.05,16.36,3.69,10.87,14.45,9.28,17.91-2,4.42-7.07,7.16-11.23,9.23A20.53,20.53,0,0,1,244,37.18s-7.86-1.81-11-4.84A11.22,11.22,0,0,1,229.61,25.24Z"/></g></g></svg>