<svg xmlns="http://www.w3.org/2000/svg" viewBox="0 0 290 489"><defs><style>.cls-1{isolation:isolate;}.cls-2{fill:#350f10;}.cls-3{fill:#d48271;}.cls-4{fill:#8786bb;}.cls-5{fill:#be7766;}.cls-24,.cls-6,.cls-8{mix-blend-mode:multiply;}.cls-7,.cls-8{fill:#e4dfdd;}.cls-9{fill:#b37f58;}.cls-10{fill:#f6bec6;}.cls-11{opacity:0.27;}.cls-12{fill:#733133;}.cls-13{fill:#d27462;}.cls-14{fill:#c8c2bd;}.cls-15{fill:#d58f83;}.cls-16{fill:#eee6e3;}.cls-17{fill:#f5f2b9;}.cls-18{fill:#e2dbd9;}.cls-19{fill:#fcf5f3;}.cls-20{fill:#310f08;}.cls-21{fill:#c6bfdf;}.cls-22{fill:#7d4546;}.cls-23{fill:#ed7660;}.cls-24{fill:#f7c2be;}.cls-25{fill:none;stroke:#54160e;stroke-linecap:round;stroke-linejoin:round;stroke-width:1.05px;}.cls-26{fill:#4f201d;}.cls-27{fill:#f4f4f4;}</style></defs><title>Zeichenfläche 1</title><g class="cls-1"><g id="Ebene_1" data-name="Ebene 1"><path class="cls-2" d="M188.2,151.68A6.38,6.38,0,0,1,176,154.23a5.31,5.31,0,0,1-9.13.33,5.3,5.3,0,0,1-6.8-.3,7.66,7.66,0,0,1-14.66-.82,5.31,5.31,0,0,1-7.9-3.07,5.31,5.31,0,0,1-9.28-5.07,6.38,6.38,0,0,1-7.38-5.18,6.59,6.59,0,0,1,0-2,7.66,7.66,0,0,1-7.7-11.58,6.38,6.38,0,0,1-5.61-10.45,5.31,5.31,0,0,1-.82-9.18,5.31,5.31,0,0,1-.59-10.06,7.65,7.65,0,0,1-.7-13.4,6.37,6.37,0,0,1,1.2-9.55,5.32,5.32,0,0,1,3.14-9.61,5,5,0,0,1,.78.07,5.16,5.16,0,0,1-.29-1,5.3,5.3,0,0,1,3.86-6.05,6.38,6.38,0,0,1,2.28-11.69,6.72,6.72,0,0,1,1.61-.08,6.15,6.15,0,0,1-.25-1,6.38,6.38,0,0,1,5.17-7.39,6,6,0,0,1,1.94,0,5.32,5.32,0,0,1,3.76-7.75l.37,0a7.74,7.74,0,0,1-.77-2.26,7.65,7.65,0,0,1,11.19-8,6.37,6.37,0,0,1,9.31-5.75,5.3,5.3,0,0,1,7.7-1.88,5.32,5.32,0,0,1,4.27-4.07,5.18,5.18,0,0,1,3,.35A7.66,7.66,0,0,1,178,4a6.37,6.37,0,0,1,10.67-.69,6.37,6.37,0,0,1,10.5.72,5.29,5.29,0,0,1,7.4-.12,7.65,7.65,0,0,1,10.63,2.85,6.35,6.35,0,0,1,8.69,3.89,5.57,5.57,0,0,1,1.36-.18,5.32,5.32,0,0,1,5.27,4.64,6.36,6.36,0,0,1,11.36,2.78,7.74,7.74,0,0,1,4-.74,7.67,7.67,0,0,1,7,7.86,5.21,5.21,0,0,1,2-.21A5.32,5.32,0,0,1,261.68,30a5.31,5.31,0,0,1,7.65,7.31,6.37,6.37,0,0,1,5.78,6.9,6.15,6.15,0,0,1-.48,1.93,7.66,7.66,0,0,1,4.44,13.18,6.37,6.37,0,0,1,2.71,11.54,5.31,5.31,0,0,1-1.57,9.08,5.32,5.32,0,0,1-2,9.88,7.65,7.65,0,0,1-2.11,12.88,5.3,5.3,0,0,1-3.84,9,6.37,6.37,0,0,1-5.21,10.7,6.26,6.26,0,0,1-1.58-.35,6.81,6.81,0,0,1,0,1,6.39,6.39,0,0,1-6.91,5.8,6.54,6.54,0,0,1-1.89-.46,5.14,5.14,0,0,1,.12,1.67,5.31,5.31,0,0,1-5.76,4.83l-.37,0a7.53,7.53,0,0,1,.17,2.38,7.65,7.65,0,0,1-12.81,5s0,0,0,.07a6.36,6.36,0,0,1-6.91,5.79,6.29,6.29,0,0,1-3.73-1.64,5.31,5.31,0,0,1-4.35,1.67h0s0,.06,0,.09a5.31,5.31,0,1,1-10.59-.92"/><path class="cls-3" d="M164.15,177.75c-22,0-31.7,40.44-35.15,57.69-2.41,12.05-5.27,16.67-11.48,36.62-2.74,8.78,3.94.32,12.58,6.53,13.28,9.54,15.37,13.64,17.58,8.07C155.37,267.22,183.17,225,186.5,207,190.11,187.37,164.15,177.75,164.15,177.75Z"/><path class="cls-4" d="M121,367.3a60.74,60.74,0,0,0,14.7-19.21c4-8.3,92.9-15.88,101.75-15.89,2,17.34,17.95,51.22,37.68,69.32,14.33,13.15,19.15,27.11,10.68,37.29-10.67,12.82-57.88,23.13-73.32,23.83-19.3.88-42-14.29-60.86-16.15s-35.1,10-53.67,6.14c-13-2.71-99.45-16.13-92.21-52.76C14.38,356.25,91.79,393.78,121,367.3Z"/><path class="cls-5" d="M188.55,415.27c78.87-12.2,96.73,6.46,97.79,14.68,4.44,34.32-57.18,26-96.16,27.47-44.85,1.73-139.4-7.8-139.4-7.8-6.51,1.1-24.54,7.08-38.93,13.59,0,0-9.8,2-10.67.54-2.29-3.75-1-5.12,1.46-7.88,6.26-7,14.07-11.21,20.81-17.25,3.44-3.09,9.45-9.78,14.45-9.78,6.1,0,11.59,6.08,17.69,6.25C55.59,435.09,151.35,421,188.55,415.27Z"/><path class="cls-3" d="M104.54,404.54c-75-27.35-96.12-12.54-98.77-4.67-11,32.79,51,36.61,89,45.7C138.37,456,233,465.11,233,465.11c6.17,2.35,22.7,11.72,35.53,20.92,0,0,9.23,3.84,10.37,2.61,3-3.24,2-4.83.1-8-4.76-8.13-11.61-13.75-17-21-2.78-3.7-7.37-11.44-12.27-12.42-6-1.19-4.16,6.71-10.16,5.68C239.49,452.91,139.9,417.45,104.54,404.54Z"/><path class="cls-4" d="M146.6,263.18c-28.41-26.65,18.22-62.05,13-85.43,0,0,33-10.89,73.32-4,23.46,4,23.47,4,25.4,9.73,2.18,6.52-8.56,32.9-15.3,93.28-2.48,22.2,9.05,90.59,10.29,96.42,0,0-40.58,17.8-131.63-7C121.69,366.22,148.3,264.79,146.6,263.18Z"/><path class="cls-3" d="M248.61,177.12c31,.51,24.49,36.61,26.49,52.36,1.92,15,1.26,46.77,4,61.57a19.31,19.31,0,0,1-11.2,20.84c-16.36,7-17.17-5-18.77-10.86-5.59-20.56-9.59-75.66-10.49-94.07C237.64,187,248.61,177.12,248.61,177.12Z"/><g class="cls-6"><path class="cls-7" d="M138.27,266.74c11.44,7.12,27.15-3.56,32.11-3.56s32.48,19.79,49.76,0c-18.52,25.78-46.71,1.41-52,4.24C149.9,277.13,138.27,266.74,138.27,266.74Z"/></g><path class="cls-3" d="M174.81,174.18s12.28-1.74,14.22-3.68c3.8-3.82-1.13-28.85-9.11-47-5.21-11.82,16.42-21.2,28.24-24.15l5,6.2c-7.77,43.75,21.32,68.19,21.32,68.19s-14.24,45-37,41.68S169.17,202.79,174.81,174.18Z"/><path class="cls-3" d="M229.09,187.89a7.33,7.33,0,0,0-1.68,1.34c-8.14,8.78-22.07,5.46-29.48-2.68a59.4,59.4,0,0,1-9.82-15.05,4,4,0,0,0,.92-1c2.77-4.62-1.13-28.85-9.11-47-5.21-11.82,16.42-21.2,28.24-24.15l5,6.2c-7.77,43.75,21.32,68.19,21.32,68.19s.28,3.11-1.95,8C232.25,182.29,231,184.54,229.09,187.89Z"/><path class="cls-8" d="M222.35,158.66c-7-11.57-13.9-34.1-9.22-53.07L209,100.46c-12.66,2.18-18.93,14.12-29.63,19.44a6,6,0,0,0,.53,3.64c4.05,9.19,8.91,27.71,9.47,34.18C203.39,151.83,217.82,154.76,222.35,158.66Z"/><path class="cls-9" d="M169.2,276.91c-2.93-4.65-13.48-14.57-17.55-18.63-4.87-4.87-5.56-6.51-8.56-12.59s-5-8.6-8.37-14.36c-2.81-4.8-5.68-11.5-10.42-14.84-5.56-3.93-12.87-2.47-18,1.84-10.19,8.6-19.1,19.55-12.59,33.32,3.14,6.66,10.06,11.83,15.44,16.71a128.38,128.38,0,0,1,11.3,11.7c8.59,9.95,16.74,18.93,28.7,25.06,9.77,5,23.75,6.44,34.07,2.35,8-3.16,2.87-15.33-3.82-18Z"/><path class="cls-3" d="M135.77,294.82c-4-4.48-.09-13.13-.09-13.13-2-2.87-4.11-3.95-10.5-6.05l-.9-2.58c3-2.91,8.14-11.13,10.63-7.45,2.82,4.15,5.17,5.95,7.59,7,0,0,7.13-6.82,13-2.88,8.93,6,11,10.58,20.93,16.29,3.69,2.13,8.76,8.11,4.79,18s-10.08,18.43-20,12.73C151.65,311.18,141.12,300.88,135.77,294.82Z"/><path class="cls-10" d="M144.16,276.26a8.66,8.66,0,0,0,.48-5.33c2.56-1.72,7-3.82,10.89-1.22,8.93,6,11,10.58,20.93,16.29,3.69,2.13,8.76,8.11,4.79,18s-10.08,18.43-20,12.73c-9.64-5.56-20.17-15.86-25.52-21.92-3-3.45-1.46-9.34-.57-11.89C138.64,281.5,142.69,279.6,144.16,276.26Z"/><path class="cls-8" d="M135.68,281.69c-2-2.87-4.11-3.95-10.5-6.05l-.74-2.14c2.94-3.29,6-6.56,9.51-8.71a1.85,1.85,0,0,1,1,.82,19.43,19.43,0,0,0,5.28,5.71C135.29,277.75,135.37,279.66,135.68,281.69Z"/><path class="cls-3" d="M86.37,261c-13.59-21.49,8-51.7,32.33-44.4,7.71,2.31,11.47,6.38,15.76,10.94,4.54,4.81,6.47,5.36,10,9.52,4.52,5.29,6,12.92,4.61,19.48s-5.94,14-14.47,17c-7.19,2.77-15.87,2.57-22.77,1.71-6.13-.77-4.26,1-9.82-2.43C96.18,269.18,90.68,267.78,86.37,261Z"/><g class="cls-6"><path class="cls-7" d="M86.37,261a27.36,27.36,0,0,1-4.23-13.24,37,37,0,0,0,18.45,20.14c2.17-1.07,4.32-1.88,8.45-.39.14.4,4.29,2.61,4.77,3,4.68,4.15,6.42,4.38,9.88,5.17h0c-.8.05-1.6.07-2.4.08H121q-1.2,0-2.37,0h-.2c-1.66-.06-3.29-.17-4.86-.33l-1.09-.12-.64-.06c-6.13-.77-4.26,1-9.82-2.43-2.86-1.78-6.32-3.48-9.64-5.54A21.29,21.29,0,0,1,86.37,261Z"/></g><g class="cls-11"><path class="cls-12" d="M131.55,230.32a4.32,4.32,0,0,0-4.16,2.58c-.33.93-.49,3.26.91,3.48a1.13,1.13,0,0,0,1.19-.48c.29-.38.14-1.07.13-1.33a1.87,1.87,0,0,1,.1-.81c.33-.9,1.32-1.32,2.28-1.77s.37-1.64-.45-1.67Z"/></g><g class="cls-11"><path class="cls-12" d="M113.22,258.79l.06,0a.92.92,0,0,0,.45-.78c-.07-1-.28-1.92.4-2.75a3.18,3.18,0,0,1,1.39-.86c1.14-.51.39-1.94-.56-2.07a3.42,3.42,0,0,0-2.89,1.54,4.38,4.38,0,0,0,0,4.6.94.94,0,0,0,1,.41.31.31,0,0,0,.16-.06Z"/></g><path class="cls-13" d="M115.41,268.05c.68-5.26,14.05-9.25,13.07-.95S114.74,273.31,115.41,268.05Z"/><path class="cls-13" d="M140.08,232.72a33.47,33.47,0,0,1,4.39,4.31,20.51,20.51,0,0,1,3.16,5.1,15.18,15.18,0,0,1-3.11,2.39C138.06,247.57,137.3,237.13,140.08,232.72Z"/><g class="cls-6"><path class="cls-14" d="M131.58,246.51a2.47,2.47,0,0,0,1.12.76c.53.16,1.1.06,1.62.23,1.7.53,1,3.27-.59,3.41a.07.07,0,1,0,0,.13,2.29,2.29,0,0,0,2-2.36,1.81,1.81,0,0,0-1-1.42c-1.05-.46-2.07,0-3.05-.83,0,0-.13,0-.08.08Z"/></g><path class="cls-15" d="M174.36,305.32c10.78,2.36,15-7.33,19.32-5.9,2.86.95,9.84,12.16,11.37,14.71.28.47-.58,2,2,4.09,3.28,2.67,14.75-4.14,12.57-7.46s-8.51,2.4-10,.38c-3.52-4.61-3.33-19.09-7.83-23.93-6.41-6.91-13-3.15-26.13-1.07C161.61,288.36,161.26,302.45,174.36,305.32Z"/><path class="cls-8" d="M171.39,301.63c6-4.35,14.58-6.57,20-2.05-3.71,1.44-8.12,7.69-17,5.74a14.59,14.59,0,0,1-6.13-2.81A4.37,4.37,0,0,0,171.39,301.63Z"/><path class="cls-15" d="M164.67,318.23c10.33,3.89,14.84-2.92,18.94-.87,2.69,1.35,7,14,8.13,16.78.21.51-.86,1.87,1.41,4.34,2.85,3.11,15.19-2,13.51-5.58s-8.77,1.15-10-1.07c-2.82-5.06.45-19.95-3.31-25.39-5.35-7.76-12.06-7.39-25.32-6.68C154.46,300.49,152.12,313.51,164.67,318.23Z"/><path class="cls-15" d="M109.37,267.21c-4.14-1.41-11.86,2.79-7.09,7.44,3.92,3.82,17.52,4.11,11.2-4.61Z"/><g class="cls-11"><path class="cls-12" d="M106.79,228c-3.7-1.89-9.47-.1-12.83,1.81-.23.13-.08.53.18.44a37.1,37.1,0,0,1,5.81-1.78c2.32-.43,4.52-.17,6.81-.37,0,0,.08-.07,0-.1Z"/><path class="cls-12" d="M105.19,232.58c-3.55-2.41-8.88-2.1-12.5,0a.26.26,0,0,0,.19.47A22.51,22.51,0,0,1,99,231.75a23.53,23.53,0,0,1,6.17,1,.09.09,0,0,0,.07-.16Z"/><path class="cls-12" d="M101.9,234.78a12,12,0,0,0-6.19.07c-.1,0-.09.22,0,.2a21.8,21.8,0,0,1,6.09,0c.16,0,.24-.23.07-.26Z"/></g><path class="cls-16" d="M171.15,282.54s-1.86,10-20.75,26.37c0,0,8.62,9.31,13.89,9.17,0,0,3.18-16.61,14.32-18.65,0,0-1.69-11-.74-13.68A40.71,40.71,0,0,0,171.15,282.54Z"/><path class="cls-17" d="M150.4,308.91c2.25-1.94,4.24-3.79,6-5.54,1.59-.91,3.71-1.51,5.63,0,3.65,2.87,6.66,2.29,4.9,6.81h0a36.93,36.93,0,0,0-2.66,7.9C159,318.22,150.4,308.91,150.4,308.91Z"/><path class="cls-18" d="M177.87,285.75a13,13,0,0,0-.26,4.08c-1.17-.45-2.5-1.57-4.64-2.4a4.23,4.23,0,0,1-2.54-2.74,12.22,12.22,0,0,0,.72-2.15A40.71,40.71,0,0,1,177.87,285.75Z"/><path class="cls-17" d="M175.45,287.24a11,11,0,0,0-.47,3.5c0,.65-.16,1.32-.18,2-1-.65-2.42-.68-3.35-1.3.49-.52.57-2,.65-2.73s.13-1.67.26-2.49c.85-.18,1.67.78,2.46,1,.13,0,0,0,0-.09Z"/><path class="cls-19" d="M160.06,305.37a33.37,33.37,0,0,1,4.2-4.12c.25-.2.27-.37.58-.35s1.24.8,1.62,1a10.2,10.2,0,0,1,1.78.89c-.93.48-1.58,1.82-2.35,2.55s-1.67,1.84-2.57,2.66c-.13-.37-.68-.63-1-.87-.54-.4-1.08-1-1.77-1.12Z"/><path class="cls-20" d="M133.69,237.51a1.33,1.33,0,0,0,0-2.66,1.33,1.33,0,0,0,0,2.66Z"/><path class="cls-20" d="M117.52,259a1.33,1.33,0,0,0,0-2.66,1.33,1.33,0,0,0,0,2.66Z"/><path class="cls-21" d="M77.63,236.3c3.23-14.11,23.29-28,37.89-25.12,2.67.52,8.12,3,8.78,5.31-3.64.23-7.93-.69-11.51.67-10.87,4.14-16.2,12.76-16.22,24.21,0,14.59,9.93,24.88,22.63,30.51,6,2.67,7.58,9.81,17.38,8.72,26.34-2.93,15.07-22.32,15.07-22.32,6,1.14,18.9,14.72,22.5,15.81,6.06,1.85,14.39,7.85,20.8,8,8.35.25,14.45,6.1,20.22,11.8,4.88,4.82,12,10.87,13.81,17.82,1.61,6.35-3.35,14.09-5.16,19.91-2.09,6.72-3.3,12.56-10.37,15.51-9,3.79-19.69.91-26.67-5.59a83.57,83.57,0,0,0-19.65-13.72c-7.64-3.91-16.55-6.93-23.57-12-6.6-4.74-14.59-13-16.12-21.28-1.2-6.46-2.74-10-9.26-12.26-7.58-2.65-15.58-4.13-23-7.55C82.29,268.81,74.49,250,77.63,236.3Z"/><path class="cls-22" d="M138.55,252a11.52,11.52,0,0,1-4,4.35c-1.3.87,1,1.67,1.89,1.66,2.59,0,4.49-3.21,3.5-5.16C139.31,251.68,138.63,251.86,138.55,252Z"/><path class="cls-23" d="M136.4,258l-.25,0c.35-1.24,1.73-3.89,4-4.16A4.09,4.09,0,0,1,136.4,258Z"/><g class="cls-6"><path class="cls-7" d="M142.9,257.32c-1.4.44-3.32,1.71-3,3.45.05.27.38.24.51.07a17.36,17.36,0,0,1,1.12-1.58,7.69,7.69,0,0,1,1.61-1.28.36.36,0,0,0-.28-.66Z"/></g><path class="cls-3" d="M102.92,277.73c-18.17,4.64-24.15-10.67-22-18.11,3.63-12.36,17.41-11,15.24-3.42-3.86,13.42-.87,14.78,1,17.07S102.92,277.73,102.92,277.73Z"/><path class="cls-3" d="M276.91,294.08c-7.31-15.29-25.36-3.07-34.8,2.45-12.81,7.49-41.29,32.67-55.32,25-5.91-2.69-11.14-4-17.59-3.67-2.4.13-6.87,1-7.12,2.56-.42,2.77,1.92,2.86,5.92,2.7,1.09-.05,4.29.84,6.51.62-6.28,2.35-18.35-.21-25.72,3.18-4.47,2.06-6.71,4.56-4.07,9.27,3.23,5.75,7.95,2.9,13.05,4.92,2,.82,12.08,7.73,47.58-2.83,12.86-3.83,48.21-17.74,61.18-22.42C282.14,310.24,279.85,300.23,276.91,294.08Z"/><path class="cls-3" d="M153.62,70.1c-4.28,11.92-1.44,17.17-.13,28.09,1.23,10.39,1,12.5,3.36,20.87,3,10.68,12.61,19.14,22.31,25.37,15.85,9.18,29.29-3.44,37.27-16.79,15.65-26.17,12.86-52,6-65.44C212.73,42.8,193.67,43,175.33,48.3,175.33,48.3,160.34,51.42,153.62,70.1Z"/><path class="cls-2" d="M238.24,70.17a31.85,31.85,0,0,0-4.12-15c-2.27-3.72-4.7-4.24-8.18-6.07-3.91-2.06-7-5.44-10.73-7.87-7.52-4.86-16.45-7.61-25.42-6.07C170.21,38.47,152.1,53.9,145.36,72.5a4.16,4.16,0,0,1-5.16,2.77c4,1.67,11.43,12.45,11.2,8.4-.7-12.5,12.33-22.05,12.33-22.05S191.76,74,209,77.28c6,1.14,8.7,19.5,15.83,17.44C234.56,91.89,238.64,80.81,238.24,70.17Z"/><path class="cls-3" d="M221.44,98.58c2.34-7.29,14.23-13.22,14.89-1.45.54,9.7-11.9,28.78-15.61,10.29Z"/><path class="cls-24" d="M198.65,121.12s-5.69,2.15-9.56,1.65a3.45,3.45,0,0,0-2.7,1.24,3,3,0,0,0-3.25-.24,15.21,15.21,0,0,1-4.37,1.23,7.34,7.34,0,0,1,2.93,2.07c.28.43-1,2.26.07,3.46,1.53,1.64,3.73,2,6.85,1.37a12.79,12.79,0,0,0,8.64-7.05A20.53,20.53,0,0,0,198.65,121.12Z"/><path class="cls-25" d="M168.75,100.36c-.16-2.85-4.58-2.6-4.42.25h0"/><path class="cls-25" d="M204.77,98.34c-.16-2.85-4.58-2.6-4.42.25h0"/><path class="cls-26" d="M195.55,90.63c2.3,0,3.9-1.94,6.36-1.78,2.19.13,4.48,1.54,6.54.45a1.27,1.27,0,0,0,.45-1.72c-1.23-2.19-5.4-2.86-7.76-2.57s-5.94,1.87-6.49,4.44a1,1,0,0,0,.9,1.18Z"/><path class="cls-26" d="M172.91,90.76c-1-2.45-4.2-3.7-6.73-3.79s-6.48,1.07-7.61,3.31a1.26,1.26,0,0,0,.75,1.84c2.12.69,4.15-.85,6.24-1.23,2.41-.43,4.17,1.2,6.45,1.06.54,0,1.14-.58.9-1.19Z"/><path class="cls-13" d="M215.87,103.61c-7-3.27-22.26,10-11.34,15.24S222.83,106.88,215.87,103.61Z"/><path class="cls-13" d="M154.39,106.84a64.71,64.71,0,0,0,2.34,11.55,27.61,27.61,0,0,0,1,2.86,8.47,8.47,0,0,0,9.16-.29C176.91,114.66,161.23,103.59,154.39,106.84Z"/><g class="cls-6"><path class="cls-14" d="M173.12,91.8c.76,1.28,1.68,2.45,2.46,3.72a42.45,42.45,0,0,1,2,4c.08.16.28,0,.26-.11-.39-2.88-2.59-5.71-4.69-7.62,0,0,0,0,0,0Z"/></g><g class="cls-6"><path class="cls-14" d="M179.79,105.72a19.51,19.51,0,0,1-.31,7.06c-.21,1-.93,2.88-.58,3.89.67,1.89,4,1.72,5.38,1.09.11-.05,0-.24-.08-.2-1.44.5-4.17.35-4.65-1.42-.27-1,.36-2.5.55-3.48a15.57,15.57,0,0,0-.14-7c0-.12-.19-.06-.17,0Z"/></g><path class="cls-27" d="M178.77,125c10.14,1.59,19.88-3.91,19.88-3.91-1.67,6.06-15,11.42-17.1,6.78A8.42,8.42,0,0,0,178.77,125Z"/><g class="cls-6"><path class="cls-7" d="M188.7,137.68a10,10,0,0,1,4.43-1.35.34.34,0,0,0,.17-.62c-1.72-1.12-3.86,0-5.11,1.3-.33.34.1.93.51.67Z"/></g></g></g></svg>