<svg xmlns="http://www.w3.org/2000/svg" viewBox="0 0 290 511"><defs><style>.cls-1{isolation:isolate;}.cls-2{fill:#f6bcb5;}.cls-3{fill:#8e1003;}.cls-4,.cls-6{mix-blend-mode:multiply;}.cls-5,.cls-6{fill:#e4dfdd;}.cls-7{fill:#dbd5d2;}.cls-8{fill:#f6bec6;}.cls-9{opacity:0.27;}.cls-10{fill:#733133;}.cls-11{fill:#f4aba0;}.cls-12{fill:#c8c2bd;}.cls-13{fill:#d58f83;}.cls-14{fill:#eee6e3;}.cls-15{fill:#f5f2b9;}.cls-16{fill:#e2dbd9;}.cls-17{fill:#fcf5f3;}.cls-18{fill:#310f08;}.cls-19{fill:#bce3f4;}.cls-20{fill:#7d4546;}.cls-21{fill:#ed7660;}.cls-22{fill:#f6b49a;}.cls-23{fill:#8fbcc1;}.cls-24{fill:#83abb0;}.cls-25{fill:#f4f4f4;}.cls-26{fill:none;stroke:#54160e;stroke-linecap:round;stroke-linejoin:round;stroke-width:1.05px;}</style></defs><title>Zeichenfläche 1</title><g class="cls-1"><g id="Ebene_1" data-name="Ebene 1"><path class="cls-2" d="M125.51,200.06c22,0,31.69,40.44,35.14,57.69,2.41,12.05,5.27,16.67,11.49,36.62,2.73,8.78-3.95.32-12.59,6.53-13.27,9.54-15.37,13.64-17.57,8.08-7.7-19.45-35.5-61.65-38.82-79.7C99.54,209.68,125.51,200.06,125.51,200.06Z"/><path class="cls-3" d="M168.63,389.61a61,61,0,0,1-14.7-19.2c-4-8.31-92.89-15.89-101.74-15.9-2,17.34-18,51.22-37.69,69.32C.17,437-4.65,451,3.83,461.12,14.49,474,61.7,484.25,77.14,485c19.31.88,42-14.29,60.86-16.15s35.11,10,53.67,6.14c13-2.71,99.45-16.12,92.22-52.76C275.27,378.56,197.86,416.09,168.63,389.61Z"/><path class="cls-2" d="M101.1,437.59C22.23,425.38,4.38,444,3.31,452.26c-4.43,34.32,57.18,26,96.16,27.47,44.85,1.73,139.4-7.79,139.4-7.79,6.51,1.09,24.54,7.07,38.93,13.58,0,0,9.8,2,10.67.54,2.29-3.75,1-5.12-1.46-7.88-6.25-7-14.07-11.21-20.81-17.25-3.43-3.09-9.45-9.78-14.45-9.78-6.09,0-11.58,6.08-17.68,6.25C234.07,457.4,138.31,443.34,101.1,437.59Z"/><path class="cls-2" d="M185.12,426.86c75-27.36,96.12-12.55,98.77-4.68,11,32.79-51,36.61-89,45.7-43.64,10.44-138.24,19.54-138.24,19.54-6.17,2.35-22.69,11.73-35.53,20.92,0,0-9.22,3.85-10.36,2.61-3-3.24-2-4.83-.11-8,4.77-8.13,11.61-13.74,17-21,2.77-3.7,7.36-11.44,12.27-12.42,6-1.19,4.15,6.71,10.16,5.68C50.17,475.22,149.75,439.76,185.12,426.86Z"/><path class="cls-3" d="M143.06,285.5c28.4-26.65-18.22-62.06-13-85.44,0,0-33-10.89-73.32-4-23.45,4-23.46,4-25.4,9.74-2.18,6.51,8.56,32.89,15.31,93.27,2.48,22.2-9.05,90.59-10.3,96.42,0,0,40.58,17.81,131.64-7C168,388.54,141.35,287.1,143.06,285.5Z"/><path class="cls-2" d="M41.05,199.43c-31,.51-24.49,36.62-26.5,52.36-1.92,15-1.25,46.77-4,61.57a19.31,19.31,0,0,0,11.2,20.84c16.37,7,17.18-5,18.77-10.86,5.59-20.56,9.59-75.66,10.5-94.07C52,209.27,41.05,199.43,41.05,199.43Z"/><g class="cls-4"><path class="cls-5" d="M151.38,289.05c-11.44,7.12-27.14-3.55-32.11-3.55s-32.48,19.78-49.76,0c18.52,25.77,46.72,1.41,52,4.23C139.76,299.45,151.38,289.05,151.38,289.05Z"/></g><path class="cls-2" d="M114.84,196.49s-12.28-1.74-14.21-3.68c-3.8-3.82,1.12-28.85,9.11-47,5.2-11.82-16.43-21.19-28.25-24.15l-5,6.2c7.76,43.75-21.33,68.19-21.33,68.19s14.24,45,37,41.68S120.49,225.1,114.84,196.49Z"/><path class="cls-2" d="M60.57,210.2a7.55,7.55,0,0,1,1.68,1.34c8.13,8.78,22.07,5.46,29.47-2.68a59.56,59.56,0,0,0,9.83-15,3.89,3.89,0,0,1-.92-1c-2.78-4.62,1.12-28.85,9.11-47,5.2-11.82-16.43-21.19-28.25-24.15l-5,6.2c7.76,43.75-21.33,68.19-21.33,68.19s-.28,3.12,2,8C57.41,204.61,58.65,206.85,60.57,210.2Z"/><path class="cls-6" d="M67.31,181c7-11.57,13.9-34.11,9.22-53.08l4.11-5.13c12.65,2.18,18.92,14.12,29.63,19.44a6,6,0,0,1-.53,3.64c-4,9.19-8.92,27.71-9.47,34.18C86.27,174.14,71.84,177.07,67.31,181Z"/><path class="cls-7" d="M120.45,299.22c2.93-4.65,13.48-14.57,17.55-18.63,4.88-4.87,5.56-6.51,8.56-12.59s5-8.59,8.38-14.36c2.8-4.8,5.68-11.49,10.41-14.84,5.56-3.93,12.87-2.47,18,1.84,10.2,8.6,19.1,19.55,12.6,33.33-3.15,6.65-10.06,11.82-15.45,16.71a127,127,0,0,0-11.3,11.69c-8.59,9.95-16.74,18.93-28.7,25.06-9.77,5-23.75,6.45-34.07,2.35-8-3.16-2.87-15.33,3.82-18Z"/><path class="cls-2" d="M153.88,317.13c4-4.48.09-13.13.09-13.13,2.05-2.87,4.12-3.95,10.5-6.05l.9-2.58c-3-2.91-8.14-11.12-10.63-7.45-2.82,4.16-5.17,6-7.58,7,0,0-7.13-6.82-13-2.88-8.93,6-11,10.58-20.93,16.29-3.7,2.13-8.77,8.11-4.79,18s10.07,18.43,20,12.73C138,333.49,148.53,323.19,153.88,317.13Z"/><path class="cls-8" d="M145.5,298.57a8.52,8.52,0,0,1-.48-5.33c-2.57-1.72-7-3.82-10.89-1.22-8.93,6-11,10.58-20.93,16.29-3.7,2.13-8.77,8.11-4.79,18s10.07,18.43,20,12.73c9.64-5.56,20.17-15.86,25.52-21.92,3-3.44,1.47-9.34.57-11.89C151,303.81,147,301.91,145.5,298.57Z"/><path class="cls-6" d="M154,304c2-2.87,4.11-3.95,10.5-6.05l.74-2.14c-2.94-3.29-6-6.56-9.51-8.71a1.89,1.89,0,0,0-1,.82,19.43,19.43,0,0,1-5.28,5.71C154.37,300.06,154.29,302,154,304Z"/><path class="cls-2" d="M203.28,283.29c13.59-21.5-8-51.71-32.33-44.4-7.7,2.3-11.46,6.37-15.75,10.93-4.54,4.81-6.48,5.36-10,9.52-4.52,5.29-6,12.92-4.6,19.48s5.94,14,14.46,17c7.19,2.77,15.87,2.57,22.78,1.71,6.12-.77,4.25,1,9.81-2.43C193.47,291.49,199,290.09,203.28,283.29Z"/><g class="cls-4"><path class="cls-5" d="M203.28,283.29A27.29,27.29,0,0,0,207.51,270a36.93,36.93,0,0,1-18.44,20.14c-2.17-1.06-4.33-1.88-8.46-.39-.14.4-4.28,2.62-4.76,3-4.68,4.15-6.42,4.38-9.88,5.17h0c.8.05,1.61.07,2.4.08h.28c.8,0,1.59,0,2.38,0h.19c1.67-.05,3.3-.17,4.86-.33l1.1-.11.64-.07c6.12-.77,4.25,1,9.81-2.43,2.86-1.77,6.32-3.48,9.64-5.54A21.37,21.37,0,0,0,203.28,283.29Z"/></g><g class="cls-9"><path class="cls-10" d="M157.65,254.3c1,.45,2,.87,2.28,1.77a1.6,1.6,0,0,1,.1.87c0-.26,0,.36,0,.5a1.23,1.23,0,0,0,.17.77,1.13,1.13,0,0,0,1.19.48c1.41-.21,1.25-2.55.91-3.47a4.3,4.3,0,0,0-4.16-2.59c-.82,0-1.31,1.28-.45,1.67Z"/></g><g class="cls-9"><path class="cls-10" d="M176.57,281.16h0a.94.94,0,0,0,1-.42,4.4,4.4,0,0,0,0-4.6,3.46,3.46,0,0,0-2.9-1.54c-.94.13-1.7,1.56-.56,2.08a3.05,3.05,0,0,1,1.39.85c.68.83.47,1.76.41,2.75a.87.87,0,0,0,.45.78.82.82,0,0,0,.19.09Z"/></g><path class="cls-11" d="M174.24,290.37c-.67-5.26-14.05-9.26-13.06-.95S174.92,295.62,174.24,290.37Z"/><path class="cls-11" d="M149.57,255a35.49,35.49,0,0,0-4.39,4.31,20.18,20.18,0,0,0-3.15,5.1,14.88,14.88,0,0,0,3.1,2.39C151.59,269.89,152.36,259.44,149.57,255Z"/><g class="cls-4"><path class="cls-12" d="M158,268.75c-1,.83-2,.35-3.05.83a1.77,1.77,0,0,0-1,1.41,2.29,2.29,0,0,0,2,2.36c.08,0,.08-.12,0-.13-1.57-.14-2.3-2.88-.6-3.41.49-.15,1-.07,1.51-.2a2.35,2.35,0,0,0,1.23-.79,0,0,0,1,0-.07-.07Z"/></g><path class="cls-13" d="M115.29,327.63c-10.78,2.36-15-7.33-19.32-5.9-2.86.95-9.83,12.16-11.36,14.71-.28.48.58,2-2,4.09-3.28,2.67-14.76-4.14-12.57-7.46s8.5,2.4,10,.38c3.52-4.61,3.32-19.09,7.82-23.93,6.42-6.91,13-3.15,26.13-1.07C128,310.67,128.39,324.77,115.29,327.63Z"/><path class="cls-6" d="M118.26,324c-5.94-4.35-14.57-6.58-20-2.06,3.7,1.44,8.12,7.69,17,5.74a14.46,14.46,0,0,0,6.14-2.81A4.42,4.42,0,0,1,118.26,324Z"/><path class="cls-13" d="M125,340.55c-10.33,3.89-14.84-2.93-18.93-.88-2.7,1.35-7,14-8.14,16.78-.21.51.86,1.87-1.4,4.34-2.86,3.11-15.2-2-13.52-5.58s8.77,1.15,10-1.06c2.82-5.07-.44-20,3.31-25.4,5.35-7.76,12.07-7.39,25.33-6.67C135.19,322.81,137.53,335.83,125,340.55Z"/><path class="cls-13" d="M180.28,289.52c4.15-1.4,11.86,2.8,7.1,7.44-3.93,3.82-17.53,4.11-11.21-4.6Z"/><g class="cls-9"><path class="cls-10" d="M182.89,250.45c2.29.2,4.5-.06,6.81.37a36.46,36.46,0,0,1,5.81,1.78c.26.09.41-.3.18-.43-3.36-1.92-9.12-3.71-12.83-1.82a.05.05,0,0,0,0,.1Z"/><path class="cls-10" d="M184.53,255.05a23.53,23.53,0,0,1,6.17-1,22.43,22.43,0,0,1,6.07,1.34.25.25,0,0,0,.2-.46c-3.62-2.14-8.95-2.46-12.5-.05-.08.06,0,.18.06.16Z"/><path class="cls-10" d="M187.83,257.35a22.58,22.58,0,0,1,6.09,0c.12,0,.13-.16,0-.2a12.09,12.09,0,0,0-6.18-.07c-.18,0-.1.29.07.26Z"/></g><path class="cls-14" d="M118.51,304.85s1.85,10,20.75,26.37c0,0-8.62,9.31-13.89,9.17,0,0-3.19-16.61-14.32-18.65,0,0,1.68-11,.74-13.68A41.15,41.15,0,0,1,118.51,304.85Z"/><path class="cls-15" d="M139.26,331.22c-2.25-1.94-4.25-3.79-6-5.54-1.59-.91-3.72-1.51-5.63,0-3.66,2.87-6.66,2.29-4.9,6.81h0a37.33,37.33,0,0,1,2.67,7.9C130.64,340.53,139.26,331.22,139.26,331.22Z"/><path class="cls-16" d="M111.79,308.06a13.43,13.43,0,0,1,.25,4.09c1.17-.46,2.5-1.58,4.64-2.41a4.22,4.22,0,0,0,2.55-2.74,12.22,12.22,0,0,1-.72-2.15A41.15,41.15,0,0,0,111.79,308.06Z"/><path class="cls-15" d="M114.2,309.55a11.09,11.09,0,0,1,.48,3.5c0,.66.16,1.32.17,2,1-.66,2.43-.69,3.35-1.31-.49-.52-.57-2-.64-2.73s-.13-1.67-.27-2.49c-.85-.18-1.67.79-2.45,1-.14,0,0,0,0-.08Z"/><path class="cls-17" d="M129.59,327.69a32.15,32.15,0,0,0-4.2-4.13c-.24-.2-.26-.37-.58-.35s-1.24.8-1.62,1a10.59,10.59,0,0,0-1.78.9c.94.47,1.58,1.81,2.35,2.54s1.67,1.84,2.58,2.66c.12-.37.67-.63,1-.87.55-.4,1.09-1,1.78-1.12Z"/><path class="cls-18" d="M156,259.82a1.33,1.33,0,0,0,0-2.66,1.33,1.33,0,0,0,0,2.66Z"/><path class="cls-18" d="M172.14,281.26a1.33,1.33,0,0,0,0-2.66,1.33,1.33,0,0,0,0,2.66Z"/><path class="cls-19" d="M212,258.61c-3.23-14.11-23.28-28-37.88-25.12-2.68.52-8.13,3-8.79,5.31,3.65.24,7.94-.69,11.51.67,10.87,4.14,16.2,12.76,16.22,24.21,0,14.59-9.93,24.89-22.62,30.51-6,2.67-7.58,9.81-17.39,8.72C126.73,300,138,280.59,138,280.59c-6,1.14-18.9,14.72-22.49,15.82-6.06,1.84-14.4,7.84-20.8,8-8.36.26-14.45,6.1-20.22,11.8-4.89,4.82-12,10.87-13.81,17.82C59.06,340.41,64,348.15,65.84,354c2.09,6.72,3.29,12.56,10.36,15.51,9.06,3.79,19.69.91,26.67-5.58a83.19,83.19,0,0,1,19.65-13.72c7.65-3.91,16.55-6.94,23.57-12,6.6-4.74,14.6-13,16.13-21.28,1.19-6.46,2.73-10,9.25-12.26,7.58-2.65,15.59-4.13,23-7.55C207.36,291.12,215.17,272.34,212,258.61Z"/><path class="cls-20" d="M151.11,274.3a11.57,11.57,0,0,0,4,4.36c1.29.86-1,1.66-1.9,1.65-2.59,0-4.49-3.2-3.49-5.15C150.35,274,151,274.17,151.11,274.3Z"/><path class="cls-21" d="M153.25,280.31l.25,0c-.34-1.24-1.72-3.89-4-4.16A4.08,4.08,0,0,0,153.25,280.31Z"/><g class="cls-4"><path class="cls-5" d="M146.48,280.29a8.24,8.24,0,0,1,1.61,1.28,15.5,15.5,0,0,1,1.11,1.58c.14.17.46.2.52-.07.35-1.73-1.57-3-3-3.44a.36.36,0,0,0-.28.65Z"/></g><path class="cls-22" d="M186.74,300.05c18.17,4.63,24.14-10.68,21.95-18.12-3.62-12.35-17.41-11-15.24-3.41,3.86,13.41.87,14.77-.94,17.06S186.74,300.05,186.74,300.05Z"/><path class="cls-2" d="M12.74,316.4c7.31-15.3,25.36-3.08,34.8,2.44,12.82,7.49,41.29,32.67,55.33,25,5.91-2.68,11.14-4,17.59-3.67,2.39.13,6.86,1,7.11,2.56.43,2.77-1.91,2.86-5.91,2.7-1.1-.05-4.3.84-6.51.62,6.28,2.35,18.34-.21,25.71,3.18,4.48,2.06,6.71,4.57,4.07,9.27-3.23,5.75-8,2.9-13,4.92-2,.82-12.09,7.74-47.59-2.83-12.86-3.83-48.21-17.74-61.18-22.42C7.51,332.55,9.81,322.55,12.74,316.4Z"/><path class="cls-23" d="M82.69,44.21c22.56-15.94,65.65-8.92,76.49,26.33,12.54,40.81-7.76,108.34-70.45,90.21S46.27,69.93,82.69,44.21Z"/><path class="cls-24" d="M117,45c7.11-2.53,11.17-13,11.23-19.8.07-9.16-6.7-16-15.18-18.65-5.89-1.82-13-2.87-19.16-2.08C88.46,5.18,80.64,6,76.62,10c-3.08,3.08-3.72,9.26-3.27,13.36,1,8.83,7.87,17.66,14.24,23.41Z"/><path class="cls-24" d="M130.24,22.5A26.38,26.38,0,0,0,116.48,3.69C110.79.77,100.36.39,97.22,7.3a.63.63,0,0,0,.85.86c3.31-1.52,5.63-4.19,9.49-4.5a17.63,17.63,0,0,1,10.15,2.75c5.8,3.37,10.9,9.51,12.48,16.11,0,0,.06,0,.05,0Z"/><path class="cls-24" d="M74.68,36.79C72.8,30.17,70.55,24,73.24,17.22c2.36-6,6.88-7.69,12.47-9.75a.57.57,0,0,0-.16-1.12c-5.86-.54-11.28,3.72-13.6,8.91-3.25,7.31-.85,14.84,2.63,21.57a.05.05,0,0,0,.1,0Z"/><path class="cls-24" d="M68.83,19.22c2.25-6.55,7-14.12,14.22-15.74,5.89-1.32,11.33.08,16.69,2.45.27.12.68-.16.46-.46C96.8.81,87.66.92,82.65,2c-8.1,1.79-12.47,9.57-13.87,17.19,0,0,0,0,0,0Z"/><path class="cls-2" d="M76.24,77.86c13.25-16.3,29.32-14.16,29.32-14.16a90.28,90.28,0,0,1,9.84,1.06l.1-.35c.6.22,1.21.47,1.81.7s1.28.23,1.9.38l-.09.35A89.83,89.83,0,0,1,128,70.19S142.73,77,145.24,97.82c1.6,13.3-2.58,18.05-6.51,29-3.74,10.43-4,12.66-8.42,20.75-5.63,10.3-17.54,16.75-29,20.89a22.17,22.17,0,0,1-13.91.09A22.07,22.07,0,0,1,75.68,161c-7.5-9.61-14.12-21.43-13.38-33.15.58-9.19,1.55-11.22,4-22C68.78,94.5,67.78,88.25,76.24,77.86Z"/><path class="cls-23" d="M68.38,111.71c-1.51-.25-12.37,3.54-12.37,3.54-2.16-48,21.72-80.81,53.57-79.11,46.22,2.45,67.81,42.28,47.35,91.49-2.44,5.87-17.06,20.2-24.39,18.08,4.67-17.63,8-44.23-16.9-65.77C97.38,64.11,78.39,90.71,68.38,111.71Z"/><path class="cls-2" d="M68.38,111.71c.32-8.1-9.34-18.32-14.28-6.86-4.06,9.45,1.38,33,11.78,15.91Z"/><path class="cls-23" d="M133.33,136.23a56.06,56.06,0,0,0-3.27-34.62c-4.82-11.18-13.24-23.18-23.83-29.56-.63-.39-1.15.44-.74,1,7.54,9.29,16.4,16.8,21.88,27.71s6.87,23.14,4.83,35.2c-.13.73,1,1.06,1.13.31Z"/><path class="cls-23" d="M109.6,75.14c-4.82-1.71-10.95,3.69-14.26,6.59A53.55,53.55,0,0,0,82.9,97a.66.66,0,0,0,1,.8c3.94-3.89,7.38-8.23,11.42-12a50.94,50.94,0,0,1,7.21-5.91c2.27-1.44,5-2.22,7.15-3.8a.52.52,0,0,0-.12-.94Z"/><path class="cls-23" d="M106.43,74.35c-3.58-.65-7.55,2.08-10.49,3.84a50.79,50.79,0,0,0-11.07,9.07c-6.41,7-12.37,17-12.54,26.74a.54.54,0,0,0,1.06.14c3.57-9.6,6.09-18.29,13.43-25.9A52,52,0,0,1,97,80.07c2.95-1.83,7.2-2.91,9.42-5.6,0,0,0-.11,0-.12Z"/><path class="cls-25" d="M104.87,147.86a72.9,72.9,0,0,1-18.08-5.35s-.74,6.79,7.15,9.07S104.87,147.86,104.87,147.86Z"/><g class="cls-4"><path class="cls-5" d="M95.5,155.67c-.9-1.48-2.79-3.19-4.68-2.42a.34.34,0,0,0,0,.64,15.49,15.49,0,0,1,2.12.82,9.37,9.37,0,0,1,1.9,1.47c.33.33.92-.1.66-.51Z"/></g><path class="cls-26" d="M84.9,117h0c1.23-2.58-2.77-4.49-4-1.91"/><path class="cls-24" d="M93.13,108c.31-2.57-3.3-5.16-5.49-5.88s-6.7-1.06-8.13,1.07a1.27,1.27,0,0,0,.19,1.52c1.49,1.72,4.66.67,6.71,1.07,2.35.45,3.55,2.88,5.79,3.15.54.07.87-.48.93-.93Z"/><path class="cls-11" d="M73.21,116.9c7.51-1.64,19.45,14.67,7.64,17.36S65.71,118.52,73.21,116.9Z"/><path class="cls-26" d="M119.54,127.46h0c1-2.66,5.15-1.1,4.14,1.57"/><path class="cls-24" d="M118.42,116.56c2.19.77,4.36-.56,6.66.46,2,.91,3.61,2.85,6,2.51.71-.1,1-1,.88-1.54-.44-2.43-4.28-4.48-6.57-4.94s-6.13-.1-7.49,2.14a.94.94,0,0,0,.55,1.37Z"/><path class="cls-11" d="M130,133.31c-5.47-5.38-24.27,2-15.72,10.62S135.45,138.69,130,133.31Z"/><g class="cls-4"><path class="cls-12" d="M114.63,115.09c-2.78,1.6-6.53,3.74-7.81,6.84,0,.13.16.25.24.14,2.17-2.78,5.12-4.51,7.59-6.95,0,0,0,0,0,0Z"/></g><g class="cls-4"><path class="cls-12" d="M103.38,127.52a17.8,17.8,0,0,0-1.72,8c-.06,1.61.06,2.9-1.86,2.93a8.3,8.3,0,0,1-4.53-1.25c-.1-.07-.22.09-.13.16,1.26,1,5.37,2.9,6.73,1.19.6-.76.37-2.66.38-3.54a20.08,20.08,0,0,1,1.29-7.44c0-.1-.12-.16-.16-.07Z"/></g></g></g></svg>