<svg xmlns="http://www.w3.org/2000/svg" viewBox="0 0 267 824"><defs><style>.cls-1{isolation:isolate;}.cls-2{fill:#f19386;}.cls-3{fill:#f6bcb5;}.cls-4{fill:#19223c;}.cls-5{fill:#1b8fa2;}.cls-6{fill:#39a4af;}.cls-7{fill:#e58c80;}.cls-13,.cls-8{fill:#e4dfdd;}.cls-12,.cls-8{mix-blend-mode:multiply;}.cls-9{fill:#8fbcc1;}.cls-10{fill:#83abb0;}.cls-11{fill:#f4f4f4;}.cls-14{fill:none;stroke:#54160e;stroke-linecap:round;stroke-linejoin:round;stroke-width:0.88px;}.cls-15{fill:#f4aba0;}.cls-16{fill:#c8c2bd;}.cls-17{fill:#dbd5d2;}.cls-18{fill:#f6bec6;}.cls-19{opacity:0.27;}.cls-20{fill:#733133;}.cls-21{fill:#d58f83;}.cls-22{fill:#eee6e3;}.cls-23{fill:#f5f2b9;}.cls-24{fill:#e2dbd9;}.cls-25{fill:#fcf5f3;}.cls-26{fill:#310f08;}.cls-27{fill:#8e1003;}.cls-28{fill:#7d4546;}.cls-29{fill:#ed7660;}</style></defs><title>Zeichenfläche 1</title><g class="cls-1"><g id="Ebene_1" data-name="Ebene 1"><path class="cls-2" d="M262.12,288.48c2.28-19.81-11.93-24.43-34.63-80.87A67.94,67.94,0,0,0,197,173.79c-.71.16-15.28,1.16-16,1.41a2.63,2.63,0,0,0-1,.64c-.42.43-18.66,13.56-12,33.39,3.9,11.6,19.16,36.44,37.54,58,15.18,17.81,11.39,36.09,19.79,37C243.93,306.27,261.14,296.91,262.12,288.48Z"/><path class="cls-2" d="M50,288.48c-2.28-19.81,11.93-24.43,34.63-80.87,9.6-23.88,28.08-33.82,28.08-33.82.7.16,17.65,1.16,18.36,1.41a2.63,2.63,0,0,1,1,.64c.42.43,18.66,13.56,12,33.39-3.9,11.6-19.16,36.44-37.54,58-15.18,17.81-11.38,36.09-19.79,37C68.21,306.27,51,296.91,50,288.48Z"/><path class="cls-3" d="M122.45,768c1.54,6.13,2.25,21.54,2.25,21.54-.74,6.34-8.37,13.63-21.57,21.33,0,0-7,6.63-6.4,8.12,1.69,3.91,3.49,3.65,7,3.26,9.06-1,10-4.82,18.54-6.76,4.36-1,13-2,15.81-5.93,3.41-4.81.37-10.16-.1-16.05l.24-27.26Z"/><path class="cls-4" d="M103.14,810.89c-5.57,3.29-10,6.52-10.34,8.11-1,4.65,6.56,5,10.11,4.56,9.06-1,35.92-13.15,35.92-13.15,3-4.22,2.07-10.65-.53-14.74C134.47,805.31,109.34,817.48,103.14,810.89Z"/><path class="cls-5" d="M122.82,786.49C121,779.9,111,731,103.32,690.1c-10.45-55.89-.88-82.36-4.84-99.58,4.35-33.82,49.26-29.14,52,2.83,2.17,72.75-10.79,193.41-10.79,193.41s-2.51,1.51-8.1,1.45A23.35,23.35,0,0,1,122.82,786.49Z"/><path class="cls-5" d="M154.88,375.47l-61.61-3.11c-19.55,54-25.23,118.71-9,181.21,4.41,17,14,31.34,15.2,51.26C100.62,624,148.68,629,150.2,610c3.56-44.38.44-81.34,5.43-148.68Z"/><path class="cls-3" d="M188,768c-1.55,6.13-2.25,21.54-2.25,21.54.73,6.34,8.37,13.63,21.56,21.33,0,0,7,6.63,6.4,8.12-1.68,3.91-3.48,3.65-7,3.26-9.06-1-10-4.82-18.55-6.76-4.35-1-13-2-15.81-5.93-3.41-4.81-.36-10.16.1-16.05l-.24-27.26Z"/><path class="cls-4" d="M207.31,810.89c5.56,3.29,10,6.52,10.33,8.11,1,4.65-6.55,5-10.1,4.56-9.06-1-35.93-13.15-35.93-13.15-3-4.22-2.07-10.65.54-14.74C176,805.31,201.11,817.48,207.31,810.89Z"/><path class="cls-6" d="M187.62,786.49c1.86-6.59,11.85-55.52,19.5-96.39,10.46-55.89.88-82.36,4.85-99.58-4.36-33.82-49.27-29.14-52,2.83-2.17,72.75,10.79,193.41,10.79,193.41s2.52,1.51,8.1,1.45A23.35,23.35,0,0,0,187.62,786.49Z"/><path class="cls-6" d="M92.65,375.47l124.15-3.11c19.55,54,25.61,118.71,9.39,181.21-4.41,17-14,31.34-15.2,51.26C209.82,624,161.76,629,160.24,610c-3.56-44.38-.44-81.34-5.43-148.68,0,0-27.15-21.78-40.7-36.2S92.65,375.47,92.65,375.47Z"/><path class="cls-7" d="M235.52,410c-3.49-36.19-25.07-158.3-25.07-158.3C221.93,216,208,187.33,197,173.79c0,0-26.59-7.64-33.92-14-5.39-4.66-5.08,1.21-8.18-2.82v-.15l-.06.07-.07-.07V157c-3.09,4-2.78-1.84-8.17,2.82-7.33,6.33-33.92,14-33.92,14-10.83,13.44-22.61,37.08-12.7,77.88,0,0-19.89,124.62-23.41,161,23.83,9.61,62.48,13.58,78.27,12.38C170.67,426.29,211.69,419.57,235.52,410Z"/><path class="cls-3" d="M178.1,167.42c-5.09-6.11-17.22-11.65-7.07-43.49l2-7.77c-6.13,1-12.39,1.94-18.44,3.23-6-1.29-12.31-2.25-18.43-3.23L130,121.1c15.34,30,2.12,43.77.94,46.61-7.83,3-15.75,5.36-17.72,5.94a51.32,51.32,0,0,0,2.63,5.32,39.92,39.92,0,0,0,13.83,13.72c9.42,5.59,20.61,8.4,31.53,6.16,15.39-3.17,26.13-13.13,34.42-25.49C192.58,172.46,185.23,170.18,178.1,167.42Z"/><path class="cls-8" d="M168.38,155.37c-1.32-8.93-2.62-17.19,2.65-31.44l2-7.77c-6.13,1-12.39,1.94-18.44,3.23l-21.7,8.24A67.67,67.67,0,0,1,137.3,151C148.29,148.47,159.15,149.64,168.38,155.37Z"/><path class="cls-9" d="M160.23,39.05c-18.9-13.35-55-7.47-64.08,22.06-10.5,34.19,6.51,90.76,59,75.57S190.73,60.6,160.23,39.05Z"/><path class="cls-10" d="M131.49,39.73c-6-2.13-9.35-10.9-9.4-16.59C122,15.47,127.7,9.73,134.81,7.52a39.83,39.83,0,0,1,16.05-1.75c4.54.59,11.08,1.28,14.45,4.64,2.59,2.58,3.12,7.76,2.74,11.19-.82,7.4-6.59,14.8-11.92,19.61Z"/><path class="cls-10" d="M120.44,20.88A22.63,22.63,0,0,1,130.8,7.44a15.55,15.55,0,0,1,8-2.38c3.55.07,5.59,2.35,8.52,3.79a.53.53,0,0,0,.72-.71c-2.8-5.57-11-5.56-15.87-3.16A22.11,22.11,0,0,0,120.4,20.87s0,0,0,0Z"/><path class="cls-10" d="M167,32.87c2.87-5.69,5-12,2.17-18.12-2-4.4-6.41-7.77-11.36-7.41a.48.48,0,0,0-.13.94c4.53,1.62,8.24,3,10.27,7.77,2.47,5.75.63,11.14-1,16.79,0,0,.06.08.08,0Z"/><path class="cls-10" d="M171.88,18.11c-1.2-6.34-4.75-12.82-11.51-14.37-4.32-1-11.82-1-14.81,2.86-.19.25.17.48.39.38,4.5-2,9.14-3.23,14.09-2,6,1.47,9.88,7.68,11.8,13.16,0,0,0,0,0,0Z"/><path class="cls-3" d="M165.63,67.24c-11.1-13.65-24.56-11.86-24.56-11.86a73.9,73.9,0,0,0-8.24.89l-.09-.29c-.5.18-1,.39-1.51.58s-1.07.2-1.6.32l.08.29a76.27,76.27,0,0,0-7.44,3.65S109.93,66.48,107.83,84c-1.34,11.15,2.16,15.13,5.45,24.3,3.13,8.74,3.36,10.61,7.06,17.38,4.72,8.62,14.69,14,24.3,17.5a20.51,20.51,0,0,0,21.46-6.22c6.28-8,11.83-17.95,11.21-27.76-.49-7.7-1.29-9.4-3.31-18.46C171.88,81.18,172.72,76,165.63,67.24Z"/><path class="cls-9" d="M172.22,95.6c1.27-.21,10.36,3,10.36,3,1.81-40.24-18.2-67.7-44.88-66.28C99,34.35,80.9,67.71,98,108.93c2,4.93,14.3,16.93,20.44,15.15-3.91-14.77-6.68-37,14.15-55.1C147.93,55.72,163.84,78,172.22,95.6Z"/><path class="cls-3" d="M172.22,95.6c-.27-6.79,7.82-15.35,12-5.75,3.4,7.92-1.16,27.6-9.87,13.33Z"/><path class="cls-9" d="M118.76,115.88a47.34,47.34,0,0,1,4.15-29.69c4.58-9,11.84-15.4,18.22-23,.35-.42-.1-1.14-.62-.81-17.39,10.95-27,33.89-22.7,53.77.13.63,1,.36,1-.26Z"/><path class="cls-9" d="M137.59,65.75c1.58,1.16,3.58,1.72,5.27,2.75a41.47,41.47,0,0,1,6.77,5.4c3.38,3.18,6.26,6.81,9.56,10.06a.56.56,0,0,0,.87-.67,45,45,0,0,0-10.48-12.85c-2.81-2.44-7.81-6.85-11.89-5.47a.43.43,0,0,0-.1.78Z"/><path class="cls-9" d="M140.31,64.4c1.87,2.23,5.22,3.06,7.69,4.56a44.08,44.08,0,0,1,8.62,6.83C162.87,82.2,165,89.52,168,97.64c.17.45.9.42.88-.12-.16-8.16-5.16-16.62-10.57-22.48-3.77-4.08-11.93-11.76-18-10.74-.05,0-.05.07,0,.1Z"/><path class="cls-11" d="M141.65,125.88a60.94,60.94,0,0,0,15.14-4.48s.62,5.69-6,7.6S141.65,125.88,141.65,125.88Z"/><g class="cls-12"><path class="cls-13" d="M150.05,132.85a8.24,8.24,0,0,1,1.59-1.23,12.25,12.25,0,0,1,1.77-.69.28.28,0,0,0,0-.53c-1.58-.64-3.16.78-3.92,2a.36.36,0,0,0,.56.43Z"/></g><path class="cls-14" d="M158.38,100.05h0a1.86,1.86,0,0,1,3.35-1.6"/><path class="cls-10" d="M152.26,93.27c1.89-.22,2.88-2.27,4.85-2.64,1.71-.33,4.39.53,5.62-.9a1.08,1.08,0,0,0,.17-1.27c-1.21-1.79-5-1.5-6.82-.89s-4.86,2.77-4.6,4.92c.05.38.33.84.78.78Z"/><path class="cls-15" d="M168.17,99.94c-6.29-1.36-16.29,12.3-6.4,14.55S174.45,101.3,168.17,99.94Z"/><path class="cls-14" d="M129.36,108.8h0a1.86,1.86,0,0,0-3.47,1.31"/><path class="cls-10" d="M130.76,98.51c-1.14-1.86-4.27-2.19-6.28-1.79s-5.13,2.1-5.5,4.14a1.07,1.07,0,0,0,.74,1.29c2,.29,3.28-1.34,5-2.1,1.92-.85,3.74.26,5.58-.39a.79.79,0,0,0,.46-1.15Z"/><path class="cls-15" d="M120.62,113.69c4.58-4.5,20.33,1.71,13.17,8.9S116,118.2,120.62,113.69Z"/><g class="cls-12"><path class="cls-16" d="M133.45,98.46c2.08,2,4.54,3.49,6.36,5.81.07.1.25,0,.2-.11-1.07-2.59-4.21-4.39-6.54-5.73,0,0,0,0,0,0Z"/></g><g class="cls-12"><path class="cls-16" d="M142.76,108.9a16.28,16.28,0,0,1,1.08,6c0,.77-.22,2.52.33,3.18,1.15,1.42,4.56-.14,5.63-1,.08-.07,0-.2-.11-.14a7,7,0,0,1-3.8,1c-1.55,0-1.51-1.14-1.55-2.46a15,15,0,0,0-1.44-6.72c0-.07-.17,0-.14.06Z"/></g><path class="cls-7" d="M209.86,251.67H100c-.78,36.49-16.08,33.81-22.81,78.71-6.5,43.42,34.93,79.59,78,79.59s78-31,78-74.94C233.23,303,208.39,279.89,209.86,251.67Z"/><path class="cls-8" d="M154.94,403c-45,0-63.54-29.84-63.54-29.84C102.19,399.89,126.57,410,154.94,410s52.57-10,63.42-36.54C218.36,373.43,199.94,403,154.94,403Z"/><g class="cls-12"><path class="cls-13" d="M154.89,250.8h0c-7.46,0-29,20.31-55,.87,24.58,22.37,45,5.63,55,3.33,9.93,2.3,30.4,19,55-3.33C183.89,271.11,162.36,250.8,154.89,250.8Z"/></g><path class="cls-3" d="M165.44,379.47c-9.73-6.36-15.1-11.24-18.84-16.54,1.65,1.38,4.7,2.41,5.55,3,3.11,2.3,5,3.51,6.19,1.06.67-1.38-2.45-4.51-4.29-5.91-5-3.79-9.88-5.57-16.07-6.63-5.35-.93-9.21-3.55-13-5.48a77.09,77.09,0,0,1-7.06-5.42L120.31,354l-9,2.06c5.21,3.2,8.78,5.45,9.42,6.05,2.76,2.59,6.66,7.95,9.69,11.82,2.37,3,20.51,21.48,33.24,15.21C168.33,386.79,169.43,382.07,165.44,379.47Z"/><path class="cls-2" d="M134.61,347.11c-31.16-23.67-38.83-41.45-54.73-67-4.33-7.53-12.41-13-24.16-4.61-7.16,5.12-7.29,14.16-2,31.86,5.18,17.4,43.32,53.07,65.55,56.51C125,361.18,129.8,352.85,134.61,347.11Z"/><path class="cls-17" d="M111.64,270.52c-4.07-4.54-17.45-13.38-22.66-17-6.24-4.4-7.29-6.06-11.72-12.14s-7.08-8.44-11.84-14.1c-4-4.71-8.36-11.48-14.16-14.24-6.81-3.25-14.52-.28-19.29,5.38-9.51,11.32-17.17,24.94-7.48,38.76,4.69,6.68,13.21,11,20,15.34A141.47,141.47,0,0,1,59,283.11c11.25,9.25,21.84,17.52,36,22,11.62,3.64,27.15,2.57,37.65-3.84,8.11-4.95.25-17.29-7.55-18.91Z"/><path class="cls-3" d="M78.51,296.35C73.35,292.2,75.94,282,75.94,282c-2.77-2.76-5.23-3.54-12.6-4.64l-1.46-2.64c2.75-3.74,6.79-13.68,10.2-10.14,3.86,4,6.76,5.54,9.59,6.2,0,0,6.51-8.78,13.69-5.59,10.87,4.83,14,9.47,25.91,13.84,4.44,1.63,11.1,7.21,8.62,18.76s-7.53,22-19.39,17.66C98.93,311.23,85.49,302,78.51,296.35Z"/><path class="cls-18" d="M84.17,274.51a9.4,9.4,0,0,0-.48-5.91c2.48-2.36,6.93-5.49,11.67-3.37,10.87,4.83,14,9.47,25.91,13.84,4.44,1.63,11.1,7.21,8.62,18.76s-7.53,22-19.39,17.66c-11.57-4.26-25-13.53-32-19.14-4-3.19-3.35-9.92-2.86-12.86C79.14,281.27,83.2,278.44,84.17,274.51Z"/><path class="cls-8" d="M75.94,282c-2.76-2.76-5.23-3.55-12.6-4.64l-1.21-2.19c2.6-4.15,5.32-8.3,8.74-11.31a2.13,2.13,0,0,1,1.21.72,21.7,21.7,0,0,0,6.84,5.25C74.77,277.81,75.21,279.87,75.94,282Z"/><path class="cls-3" d="M18.21,268.69c-18.87-20.91-1-57.95,27-54.56,8.84,1.07,13.7,4.81,19.25,9,5.86,4.41,8.07,4.65,12.72,8.52,5.94,4.93,9,13,8.7,20.41S82,268.47,73.24,273.32c-7.33,4.37-16.84,5.78-24.54,6.14-6.83.32-4.45,1.91-11.17-.8C30.47,275.81,24.19,275.3,18.21,268.69Z"/><g class="cls-12"><path class="cls-13" d="M18.21,268.69A30.25,30.25,0,0,1,11.1,255,40.9,40.9,0,0,0,35,273.54c2.17-1.57,4.37-2.87,9.16-2,.23.41,5.17,2.05,5.77,2.42,5.89,3.65,7.83,3.57,11.76,3.78h0c-.87.21-1.74.39-2.61.55l-.31.06c-.87.16-1.73.29-2.59.41l-.22,0c-1.83.25-3.63.43-5.37.55l-1.22.08-.7,0c-6.83.32-4.45,1.91-11.17-.8-3.46-1.41-7.56-2.61-11.57-4.24A23.73,23.73,0,0,1,18.21,268.69Z"/></g><g class="cls-19"><path class="cls-20" d="M61.63,226.75A4.81,4.81,0,0,0,57.78,230c-.27,1.12-.19,2.84.81,3.62a1.23,1.23,0,0,0,2-1.19,4.35,4.35,0,0,1-.2-1.61c.24-1.15,1.07-1.6,2-2.24a1,1,0,0,0-.78-1.83Z"/></g><g class="cls-19"><path class="cls-20" d="M47.26,261.08c.61-.9-.25-1.92-.13-2.92a2.42,2.42,0,0,1,.85-1.59c.47-.39,1.12-.58,1.22-1.38.12-1.06-1-1.5-1.84-1.28a4.06,4.06,0,0,0-2.79,3.47,5.27,5.27,0,0,0,.64,2.91c.33.62,1.39,1.77,2,.79Z"/></g><path class="cls-15" d="M51.25,271c-.25-5.86,13.6-12.74,14.08-3.49S51.5,276.82,51.25,271Z"/><path class="cls-15" d="M71.54,227.74a37.78,37.78,0,0,1,5.6,3.88,21.74,21.74,0,0,1,4.4,5,16.61,16.61,0,0,1-2.94,3.19C72.13,244.34,69.33,233.08,71.54,227.74Z"/><g class="cls-12"><path class="cls-16" d="M64.84,244.39a2.64,2.64,0,0,0,1.4.63c.62.07,1.25-.15,1.86-.05,1.9.29,1.56,3.41-.08,3.83-.08,0-.07.15,0,.14a2.52,2.52,0,0,0,1.7-3.12,2,2,0,0,0-1.58-1.24c-1.19-.14-2.1.41-3.25-.28,0,0-.12,0-.07.09Z"/></g><path class="cls-21" d="M122.61,300.56c12.22.55,15-10.82,20-10.06,3.31.49,13,11.42,15.18,13.91.39.46-.27,2.27,3,4.09,4.08,2.3,15.33-7.3,12.31-10.51s-8.83,4.22-10.89,2.3c-4.72-4.37-7.23-20.22-13-24.66-8.3-6.33-14.8-1-28.73,3.75C105.51,284.45,107.78,299.9,122.61,300.56Z"/><path class="cls-8" d="M118.68,297.1c5.68-5.87,14.68-9.92,21.44-6-3.78,2.26-7.42,9.91-17.51,9.46a16,16,0,0,1-7.22-1.91A4.86,4.86,0,0,0,118.68,297.1Z"/><path class="cls-21" d="M114.46,316.48c12,2.31,15.66-6,20.52-4.51,3.19,1,10.27,14,12,16.79.33.51-.58,2.21,2.35,4.47,3.7,2.86,16.23-5,13.71-8.62s-9.36,2.9-11.12.71c-4-5-3.26-21.88-8.39-27.11-7.29-7.47-14.55-5.8-28.9-2.53C100,299,99.88,313.69,114.46,316.48Z"/><path class="cls-21" d="M44.5,271.17c-4.79-.75-12.42,5.28-6.35,9.45,5,3.44,19.9,1.21,11.36-7.13Z"/><g class="cls-19"><path class="cls-20" d="M34.31,228.9c-4.39-1.37-10.37,1.68-13.68,4.4-.24.19.07.55.32.41a37.31,37.31,0,0,1,6.79-3.29c2.16-.74,4.39-.83,6.57-1.41a.06.06,0,0,0,0-.11Z"/><path class="cls-20" d="M33.43,234.16c-4.32-2-10.15-.65-13.68,2.41-.25.22.07.57.35.44a25.57,25.57,0,0,1,6.39-2.61,25.71,25.71,0,0,1,6.9-.06.1.1,0,0,0,0-.18Z"/><path class="cls-20" d="M30.22,237.17c-2.3,0-4.69.08-6.73,1.24-.11.07,0,.25.08.21a24.68,24.68,0,0,1,6.65-1.15.15.15,0,0,0,0-.3Z"/></g><path class="cls-22" d="M114.83,276.3s-.14,11.29-17.7,32.69c0,0,11.16,8.53,16.88,7.4,0,0,.36-18.74,12.14-23.06,0,0-3.91-11.68-3.39-14.79A43.65,43.65,0,0,0,114.83,276.3Z"/><path class="cls-23" d="M97.13,309c2.09-2.54,3.92-4.94,5.54-7.19,1.57-1.29,3.78-2.34,6.15-1.06,4.53,2.44,7.7,1.24,6.62,6.51h0a42,42,0,0,0-1.43,9.13C108.29,317.52,97.13,309,97.13,309Z"/><path class="cls-24" d="M122.76,278.54a15.13,15.13,0,0,0,.49,4.5c-1.36-.28-3-1.25-5.51-1.76a4.63,4.63,0,0,1-3.29-2.5,14.66,14.66,0,0,0,.38-2.48A43.65,43.65,0,0,1,122.76,278.54Z"/><path class="cls-23" d="M120.41,280.62a12.2,12.2,0,0,0,.14,3.9c.08.73.07,1.48.18,2.18-1.18-.53-2.77-.29-3.9-.79.43-.65.24-2.3.18-3.11s-.17-1.84-.17-2.77c.89-.35,2,.55,2.86.61.14-.05,0,0,0-.08Z"/><path class="cls-25" d="M107,303.31a36.44,36.44,0,0,1,3.81-5.3c.23-.26.22-.45.56-.48s1.51.63,2,.8a10.81,10.81,0,0,1,2.11.65c-.93.69-1.39,2.28-2.1,3.23s-1.46,2.31-2.3,3.38c-.21-.39-.85-.57-1.26-.77a5,5,0,0,0-2.15-.88Z"/><path class="cls-26" d="M65.2,234.19a1.48,1.48,0,1,0-1.47-1.47,1.49,1.49,0,0,0,1.47,1.47Z"/><path class="cls-26" d="M51.59,260.64a1.48,1.48,0,1,0-1.48-1.47,1.49,1.49,0,0,0,1.48,1.47Z"/><path class="cls-27" d="M4,243.4c.87-16,20.16-34.93,36.64-34.56,3,.07,9.44,1.77,10.59,4.15-3.94.94-8.79.73-12.44,2.9-11.09,6.55-15.29,17-13.15,29.48,2.72,15.93,15.52,25.3,30.43,29.05,7.08,1.78,10.12,9.29,20.62,6.26C104.93,272.52,89,253.47,89,253.47c6.74.12,23.4,12.52,27.53,13,7,.88,17.2,5.86,24.22,4.86,9.18-1.29,16.93,3.94,24.3,9.08,6.24,4.35,15.2,9.6,18.43,16.87,3,6.63-1,16-1.89,22.7-1,7.73-1.23,14.33-8.4,18.89-9.18,5.83-21.33,4.69-30.18-1.09a91.93,91.93,0,0,0-24-11.29c-9.08-2.83-19.38-4.46-28-8.64-8.09-3.93-18.38-11.46-21.61-20.2C66.85,290.87,64.51,287.3,57,286c-8.77-1.46-17.79-1.57-26.49-3.92C15.23,278,3.17,259,4,243.4Z"/><path class="cls-28" d="M73.49,249.07a12.88,12.88,0,0,1-3.59,5.51c-1.26,1.19,1.37,1.64,2.38,1.45,2.82-.53,4.3-4.34,2.84-6.29C74.26,248.59,73.55,248.91,73.49,249.07Z"/><path class="cls-29" d="M72.28,256a2.4,2.4,0,0,1-.28,0c.14-1.42,1.15-4.57,3.57-5.3A4.53,4.53,0,0,1,72.28,256Z"/><g class="cls-12"><path class="cls-13" d="M79.21,254.09c-1.45.75-3.19,2.43-2.57,4.25a.32.32,0,0,0,.57.08,14.79,14.79,0,0,1,.91-1.93,8.3,8.3,0,0,1,1.57-1.77c.36-.31-.09-.83-.48-.63Z"/></g><path class="cls-3" d="M112.85,310.56c11.62.23,18.8-.76,24.88-3-2.14.2-5.24-.67-6.29-.62-3.87.14-6.13.06-5.72-2.62.24-1.53,4.57-2.34,6.89-2.46,6.24-.32,11.3,1,17,3.59,4.94,2.26,9.61,2.27,13.81,2.8a74.19,74.19,0,0,0,8.88-.49L164.5,315l6.28,6.79c-6.1-.3-10.33-.47-11.2-.33-3.74.59-10,2.81-14.66,4.29-3.68,1.17-29.06,6.16-36-6.2C106.33,315,108.09,310.45,112.85,310.56Z"/><path class="cls-2" d="M156.56,301.25c39.08-2,55.44-12.32,83-24.43,7.82-3.78,17.59-3.75,22.54,9.82,3,8.27-2,15.81-16.31,27.44-14.1,11.44-65.72,19.36-86,9.66C156.56,318.29,157.29,308.69,156.56,301.25Z"/></g></g></svg>