<svg xmlns="http://www.w3.org/2000/svg" viewBox="0 0 256.66 814.9"><defs><style>.cls-1{isolation:isolate;}.cls-2{fill:#f19386;}.cls-3{fill:#f6bcb5;}.cls-4{fill:#19223c;}.cls-5{fill:#1b8fa2;}.cls-6{fill:#39a4af;}.cls-7{fill:#e58c80;}.cls-13,.cls-8{fill:#e4dfdd;}.cls-12,.cls-8{mix-blend-mode:multiply;}.cls-9{fill:#8fbcc1;}.cls-10{fill:#83abb0;}.cls-11{fill:#f4f4f4;}.cls-14{fill:none;stroke:#54160e;stroke-linecap:round;stroke-linejoin:round;stroke-width:0.87px;}.cls-15{fill:#f4aba0;}.cls-16{fill:#c8c2bd;}.cls-17{fill:#630000;}.cls-18{fill:#f6bec6;}.cls-19{opacity:0.27;}.cls-20{fill:#733133;}.cls-21{fill:#d58f83;}.cls-22{fill:#eee6e3;}.cls-23{fill:#f5f2b9;}.cls-24{fill:#e2dbd9;}.cls-25{fill:#fcf5f3;}.cls-26{fill:#310f08;}.cls-27{fill:#8e1003;}.cls-28{fill:#7d4546;}.cls-29{fill:#ed7660;}</style></defs><title>Zeichenfläche 1</title><g class="cls-1"><g id="Ebene_1" data-name="Ebene 1"><path class="cls-2" d="M.66,284.12C-1.6,264.48,12.49,259.89,35,203.92a67.38,67.38,0,0,1,30.21-33.54c.69.16,15.14,1.15,15.85,1.39a2.64,2.64,0,0,1,1,.64c.42.43,18.5,13.45,11.89,33.11-3.87,11.51-19,36.14-37.24,57.53-15.05,17.66-11.29,35.79-19.63,36.7C18.7,301.76,1.63,292.48.66,284.12Z"/><path class="cls-2" d="M211,284.12c2.27-19.64-11.82-24.23-34.33-80.2-9.53-23.68-27.85-33.54-27.85-33.54-.7.16-17.51,1.15-18.21,1.39a2.64,2.64,0,0,0-1,.64c-.42.43-18.51,13.45-11.89,33.11,3.87,11.51,19,36.14,37.24,57.53,15.05,17.66,11.28,35.79,19.62,36.7C193,301.76,210.05,292.48,211,284.12Z"/><path class="cls-3" d="M139.18,759.69c-1.53,6.09-2.23,21.37-2.23,21.37.73,6.29,8.3,13.52,21.38,21.16,0,0,7,6.57,6.35,8-1.67,3.87-3.46,3.62-7,3.23-9-1-9.92-4.78-18.39-6.71-4.32-1-12.9-2-15.67-5.87-3.39-4.77-.37-10.09.09-15.92l-.23-27Z"/><path class="cls-4" d="M158.33,802.22c5.52,3.26,9.9,6.46,10.25,8,1,4.61-6.5,4.92-10,4.53-9-1-35.63-13-35.63-13-3-4.18-2.06-10.57.53-14.62C127.25,796.68,152.18,808.75,158.33,802.22Z"/><path class="cls-5" d="M138.81,778c1.84-6.55,11.75-55.07,19.33-95.6,10.38-55.43.88-81.68,4.81-98.76-4.31-33.54-48.86-28.89-51.59,2.81-2.16,72.15,10.7,191.81,10.7,191.81s2.49,1.5,8,1.44A23,23,0,0,0,138.81,778Z"/><path class="cls-5" d="M107,370.39l61.1-3.08c19.39,53.53,25,117.73,8.94,179.71-4.38,16.88-13.87,31.08-15.08,50.84-1.16,19-48.82,23.91-50.33,5.09-3.52-44-.43-80.67-5.38-147.45Z"/><path class="cls-3" d="M74.17,759.69c1.54,6.09,2.23,21.37,2.23,21.37-.73,6.29-8.3,13.52-21.38,21.16,0,0-7,6.57-6.35,8,1.67,3.87,3.46,3.62,7,3.23,9-1,9.92-4.78,18.39-6.71,4.32-1,12.9-2,15.67-5.87,3.39-4.77.37-10.09-.09-15.92l.24-27Z"/><path class="cls-4" d="M55,802.22c-5.52,3.26-9.9,6.46-10.25,8-1,4.61,6.5,4.92,10,4.53,9-1,35.63-13,35.63-13,3-4.18,2.06-10.57-.53-14.62C86.1,796.68,61.17,808.75,55,802.22Z"/><path class="cls-6" d="M74.54,778c-1.84-6.55-11.75-55.07-19.33-95.6-10.37-55.43-.88-81.68-4.81-98.76,4.32-33.54,48.86-28.89,51.6,2.81,2.15,72.15-10.7,191.81-10.7,191.81s-2.5,1.5-8,1.44A23,23,0,0,1,74.54,778Z"/><path class="cls-6" d="M168.73,370.39,45.61,367.31C26.22,420.84,20.21,485,36.29,547c4.37,16.88,13.87,31.08,15.08,50.84,1.15,19,48.82,23.91,50.33,5.09,3.53-44,.43-80.67,5.38-147.45,0,0,26.93-21.6,40.37-35.9S168.73,370.39,168.73,370.39Z"/><path class="cls-7" d="M27,404.61c3.47-35.89,24.86-157,24.86-157-11.38-35.35,2.48-63.81,13.31-77.24,0,0,26.37-7.58,33.63-13.86,5.35-4.62,5,1.2,8.11-2.79v-.16l.07.08.06-.08v.16c3.07,4,2.76-1.83,8.11,2.79,7.26,6.28,33.64,13.86,33.64,13.86,10.74,13.32,22.42,36.77,12.59,77.24,0,0,19.73,123.59,23.22,159.71-23.64,9.52-62,13.46-77.62,12.27C91.36,420.79,50.68,414.13,27,404.61Z"/><path class="cls-3" d="M84,164.06c5.05-6.06,17.08-11.55,7-43.13l-2-7.7c6.07,1,12.28,1.92,18.28,3.2,6-1.28,12.21-2.23,18.28-3.2l6.12,4.89c-15.21,29.71-2.1,43.41-.94,46.23,7.78,3,15.63,5.32,17.58,5.89a51.31,51.31,0,0,1-2.6,5.27A39.69,39.69,0,0,1,132,189.13c-9.34,5.53-20.43,8.32-31.27,6.1-15.26-3.14-25.91-13-34.13-25.27C69.63,169.06,76.92,166.8,84,164.06Z"/><path class="cls-8" d="M93.63,152.11c1.31-8.86,2.6-17.05-2.63-31.18l-2-7.7c6.07,1,12.28,1.92,18.28,3.2l21.52,8.17a67,67,0,0,0-4.39,23.16C113.55,145.26,102.78,146.43,93.63,152.11Z"/><path class="cls-9" d="M101.71,36.75c18.75-13.24,54.54-7.41,63.55,21.88,10.41,33.91-6.45,90-58.54,74.94S71.46,58.13,101.71,36.75Z"/><path class="cls-10" d="M130.21,37.42c5.9-2.1,9.28-10.81,9.32-16.45.07-7.61-5.56-13.3-12.61-15.49A39.37,39.37,0,0,0,111,3.75c-4.5.58-11,1.26-14.33,4.6-2.57,2.56-3.09,7.7-2.72,11.1.81,7.33,6.54,14.67,11.83,19.45Z"/><path class="cls-10" d="M141.21,18.72A21.89,21.89,0,0,0,129.52,3c-4.87-2.37-13-2.39-15.74,3.13a.52.52,0,0,0,.71.71c3-1.44,4.92-3.65,8.45-3.76a15,15,0,0,1,7.95,2.36c4.79,2.86,8.94,7.85,10.28,13.33,0,0,.05,0,0,0Z"/><path class="cls-10" d="M95.05,30.59C93.4,25,91.58,19.66,94,13.94c2-4.68,5.7-6.1,10.19-7.7a.48.48,0,0,0-.13-.94c-4.91-.36-9.28,3-11.26,7.35-2.78,6.1-.7,12.33,2.14,18,0,.05.1,0,.08,0Z"/><path class="cls-10" d="M90.19,16C92.1,10.55,96,4.4,101.9,2.94c4.9-1.2,9.51.07,14,2,.22.1.58-.13.39-.38-3-3.86-10.4-3.83-14.69-2.84-6.7,1.54-10.22,8-11.42,14.25,0,0,0,0,0,0Z"/><path class="cls-3" d="M96.35,64.71c11-13.54,24.36-11.77,24.36-11.77a77.61,77.61,0,0,1,8.17.89l.09-.29c.5.18,1,.38,1.5.58s1.06.19,1.59.31l-.09.29a72.91,72.91,0,0,1,7.38,3.62s12.24,5.62,14.32,23c1.33,11-2.14,15-5.4,24.09-3.11,8.68-3.33,10.53-7,17.24-4.68,8.56-14.57,13.93-24.1,17.36a18.3,18.3,0,0,1-11.55.07,18.3,18.3,0,0,1-9.73-6.23c-6.23-8-11.73-17.81-11.12-27.54C85.25,98.64,86.05,97,88.06,88,90.16,78.54,89.32,73.35,96.35,64.71Z"/><path class="cls-9" d="M89.82,92.83c-1.26-.21-10.27,2.94-10.27,2.94-1.8-39.9,18-67.13,44.5-65.72,38.4,2,56.34,35.13,39.34,76-2,4.88-14.17,16.78-20.27,15,3.89-14.65,6.63-36.74-14-54.64C113.91,53.29,98.13,75.39,89.82,92.83Z"/><path class="cls-3" d="M89.82,92.83c.27-6.73-7.76-15.21-11.86-5.69-3.38,7.84,1.15,27.37,9.79,13.21Z"/><path class="cls-9" d="M143.78,113.21c4.28-19.72-5.27-42.48-22.51-53.33-.52-.32-1,.38-.62.8,6.33,7.55,13.53,13.88,18.07,22.82A47,47,0,0,1,142.84,113c-.1.61.81.88.94.26Z"/><path class="cls-9" d="M124.06,62.45c-4-1.36-9,3-11.79,5.43a44.42,44.42,0,0,0-10.39,12.75.55.55,0,0,0,.86.66c3.27-3.23,6.13-6.82,9.49-10a41.57,41.57,0,0,1,6.23-5.07c1.81-1.15,4-1.77,5.71-3a.44.44,0,0,0-.11-.78Z"/><path class="cls-9" d="M121.44,61.79c-6-1-14.11,6.61-17.85,10.65-5.36,5.81-10.32,14.2-10.48,22.29,0,.54.71.57.88.12,3-8,5.1-15.3,11.3-21.66a43.39,43.39,0,0,1,8.55-6.78c2.44-1.49,5.77-2.31,7.62-4.51,0,0,0-.1,0-.11Z"/><path class="cls-11" d="M120.14,122.87a60.72,60.72,0,0,1-15-4.45s-.62,5.64,5.93,7.54S120.14,122.87,120.14,122.87Z"/><g class="cls-12"><path class="cls-13" d="M112.36,129.35c-.76-1.23-2.32-2.64-3.89-2a.28.28,0,0,0,0,.53,12.54,12.54,0,0,1,1.76.68,7.43,7.43,0,0,1,1.57,1.22.36.36,0,0,0,.56-.43Z"/></g><path class="cls-14" d="M103.54,97.25h0a1.84,1.84,0,0,0-3.31-1.59"/><path class="cls-10" d="M110.38,89.75c.27-2.13-2.74-4.28-4.55-4.88s-5.57-.88-6.76.88A1.06,1.06,0,0,0,99.23,87c1.23,1.43,3.87.56,5.57.88,2,.38,3,2.4,4.81,2.63.45,0,.73-.4.77-.78Z"/><path class="cls-15" d="M93.84,97.14c6.23-1.35,16.15,12.2,6.34,14.43S87.61,98.49,93.84,97.14Z"/><path class="cls-14" d="M132.33,105.92h0a1.84,1.84,0,0,1,3.44,1.3"/><path class="cls-10" d="M131.4,96.86c1.81.64,3.61-.46,5.53.39,1.7.75,3,2.37,5,2.08a1.05,1.05,0,0,0,.72-1.28c-.36-2-3.55-3.72-5.45-4.1s-5.09-.08-6.23,1.77a.79.79,0,0,0,.47,1.14Z"/><path class="cls-15" d="M141,110.78c-4.54-4.47-20.16,1.69-13.06,8.82S145.54,115.25,141,110.78Z"/><g class="cls-12"><path class="cls-16" d="M128.25,95.65c-2.31,1.32-5.43,3.1-6.49,5.67,0,.11.13.21.2.12,1.8-2.31,4.25-3.75,6.3-5.77a0,0,0,1,0,0,0Z"/></g><g class="cls-12"><path class="cls-16" d="M118.9,106a14.62,14.62,0,0,0-1.43,6.66c0,1.34,0,2.41-1.54,2.44a7,7,0,0,1-3.77-1c-.08,0-.18.08-.11.14,1,.84,4.47,2.41,5.59,1,.5-.64.31-2.21.32-2.94A16.78,16.78,0,0,1,119,106c0-.07-.1-.13-.13,0Z"/></g><path class="cls-7" d="M52.49,247.62H161.42c.77,36.18,16,33.53,22.62,78.06,6.45,43.05-34.63,78.93-77.36,78.93s-77.36-30.73-77.36-74.32C29.32,298.47,54,275.6,52.49,247.62Z"/><path class="cls-8" d="M107,397.68c44.63,0,63-29.59,63-29.59-10.7,26.52-34.88,36.52-63,36.52s-52.14-9.91-62.9-36.24C44.06,368.37,62.33,397.68,107,397.68Z"/><g class="cls-12"><path class="cls-13" d="M107,246.75h0c7.4,0,28.76,20.15,54.51.87-24.38,22.18-44.67,5.57-54.52,3.3-9.86,2.27-30.15,18.88-54.53-3.3C78.24,266.9,99.6,246.75,107,246.75Z"/></g><path class="cls-3" d="M96.54,374.35c9.65-6.3,15-11.14,18.68-16.39-1.63,1.37-4.65,2.39-5.49,3-3.09,2.28-5,3.48-6.15,1-.66-1.37,2.43-4.47,4.26-5.86,4.93-3.76,9.8-5.53,15.93-6.58,5.31-.91,9.14-3.52,12.88-5.43a78.36,78.36,0,0,0,7-5.37l-2.35,10.27,8.93,2c-5.16,3.18-8.71,5.4-9.34,6-2.74,2.58-6.6,7.88-9.6,11.72-2.36,3-20.35,21.3-33,15.09C93.68,381.61,92.59,376.94,96.54,374.35Z"/><path class="cls-2" d="M127.12,342.27c30.9-23.48,38.5-41.11,54.28-66.46,4.29-7.46,12.31-12.9,23.95-4.57,7.1,5.08,7.23,14,2,31.6-5.14,17.25-43,52.63-65,56C136.66,356.22,131.89,348,127.12,342.27Z"/><path class="cls-17" d="M149.89,266.31c4-4.5,17.32-13.27,22.48-16.91,6.19-4.36,7.23-6,11.62-12s7-8.37,11.75-14c3.93-4.66,8.29-11.37,14-14.12,6.75-3.21,14.4-.28,19.12,5.34,9.44,11.22,17,24.74,7.43,38.44-4.65,6.62-13.1,10.93-19.84,15.21a139.34,139.34,0,0,0-14.42,10.56c-11.16,9.17-21.66,17.37-35.74,21.78-11.52,3.61-26.93,2.55-37.34-3.81-8-4.9-.24-17.14,7.49-18.75Z"/><path class="cls-3" d="M182.75,291.93c5.12-4.12,2.55-14.2,2.55-14.2,2.75-2.73,5.19-3.51,12.5-4.6l1.45-2.62c-2.73-3.71-6.74-13.56-10.12-10.05-3.83,4-6.7,5.49-9.52,6.15,0,0-6.44-8.71-13.57-5.55-10.78,4.79-13.92,9.4-25.7,13.73-4.4,1.62-11,7.15-8.54,18.6s7.47,21.85,19.23,17.52C162.51,306.68,175.83,297.49,182.75,291.93Z"/><path class="cls-18" d="M177.14,270.27a9.38,9.38,0,0,1,.47-5.86c-2.45-2.35-6.86-5.45-11.57-3.35-10.78,4.79-13.92,9.4-25.7,13.73-4.4,1.62-11,7.15-8.54,18.6s7.47,21.85,19.23,17.52c11.48-4.23,24.8-13.42,31.72-19,3.94-3.16,3.33-9.84,2.84-12.76C182.13,277,178.1,274.16,177.14,270.27Z"/><path class="cls-8" d="M185.3,277.73c2.74-2.73,5.19-3.51,12.5-4.6L199,271c-2.58-4.12-5.28-8.23-8.67-11.21a2.06,2.06,0,0,0-1.2.71,21.58,21.58,0,0,1-6.78,5.2C186.46,273.54,186,275.58,185.3,277.73Z"/><path class="cls-3" d="M242.55,264.49c18.72-20.73,1-57.47-26.73-54.1-8.76,1.06-13.59,4.77-19.09,8.89-5.82,4.37-8,4.61-12.62,8.45-5.88,4.89-8.88,12.88-8.62,20.24s3.81,16.3,12.49,21.11c7.27,4.34,16.7,5.74,24.34,6.09,6.77.32,4.41,1.9,11.08-.79C230.4,271.55,236.63,271.05,242.55,264.49Z"/><g class="cls-12"><path class="cls-13" d="M242.55,264.49a29.88,29.88,0,0,0,7-13.56,40.58,40.58,0,0,1-23.73,18.38c-2.15-1.56-4.33-2.85-9.08-2-.23.41-5.13,2-5.72,2.4-5.85,3.62-7.77,3.54-11.66,3.75h0c.86.21,1.72.38,2.58.54l.31.06c.86.16,1.72.29,2.57.41l.21,0c1.82.25,3.61.42,5.33.55,0,0,.66,0,1.21.08l.7,0c6.77.32,4.41,1.9,11.08-.79,3.43-1.39,7.5-2.59,11.47-4.21A23.21,23.21,0,0,0,242.55,264.49Z"/></g><g class="cls-19"><path class="cls-20" d="M198.72,224.72c.9.63,1.72,1.07,2,2.22a4.08,4.08,0,0,1-.2,1.59,1.23,1.23,0,0,0,2,1.18c1-.76,1.08-2.48.8-3.59a4.78,4.78,0,0,0-3.82-3.22,1,1,0,0,0-.77,1.82Z"/></g><g class="cls-19"><path class="cls-20" d="M214.31,257.27c2,.07,2.39-3.52,1.93-4.89s-2-3-3.51-2.58a1.25,1.25,0,0,0-.55,2.07c.35.39.87.49,1.25,1a2.6,2.6,0,0,1,.38,2.1c-.13.63-.73,2.25.5,2.29Z"/></g><path class="cls-15" d="M209.79,266.74c.25-5.82-13.49-12.64-14-3.46S209.54,272.56,209.79,266.74Z"/><path class="cls-15" d="M189.67,223.88a38,38,0,0,0-5.56,3.85,21.9,21.9,0,0,0-4.37,4.94,16.63,16.63,0,0,0,2.92,3.16C189.08,240.34,191.86,229.18,189.67,223.88Z"/><g class="cls-12"><path class="cls-16" d="M196.24,240.3c-1.13.68-2,.16-3.19.28a2,2,0,0,0-1.6,1.24,2.5,2.5,0,0,0,1.69,3.09c.08,0,.1-.12,0-.14-1.63-.41-2-3.51-.09-3.8.61-.09,1.22.12,1.83.05a2.73,2.73,0,0,0,1.41-.62c.05-.05,0-.13-.07-.1Z"/></g><path class="cls-21" d="M139,296.1c-12.12.55-14.86-10.73-19.83-10-3.28.49-12.92,11.33-15,13.8-.39.46.26,2.25-2.94,4.05-4,2.29-15.21-7.23-12.22-10.42s8.76,4.19,10.81,2.28c4.68-4.33,7.17-20.05,12.94-24.45,8.23-6.28,14.67-1,28.49,3.71C156,280.12,153.72,295.44,139,296.1Z"/><path class="cls-8" d="M142.92,292.67c-5.63-5.83-14.56-9.84-21.27-5.95C125.4,289,129,296.54,139,296.1a16,16,0,0,0,7.16-1.89A4.85,4.85,0,0,1,142.92,292.67Z"/><path class="cls-21" d="M147.1,311.89c-11.92,2.29-15.53-5.93-20.35-4.47-3.17.95-10.19,13.89-11.93,16.64-.33.52.57,2.2-2.33,4.44-3.67,2.84-16.09-5-13.59-8.55s9.27,2.88,11,.71c4-5,3.24-21.7,8.32-26.89,7.23-7.4,14.44-5.75,28.67-2.51C161.46,294.59,161.56,309.12,147.1,311.89Z"/><path class="cls-21" d="M216.49,267c4.74-.74,12.31,5.24,6.29,9.38-5,3.41-19.74,1.19-11.27-7.07Z"/><g class="cls-19"><path class="cls-20" d="M226.59,225.14c2.16.57,4.37.67,6.52,1.4a37.63,37.63,0,0,1,6.73,3.26c.25.14.55-.22.32-.41-3.28-2.69-9.21-5.72-13.57-4.36a.06.06,0,0,0,0,.11Z"/><path class="cls-20" d="M227.51,230.42a25.61,25.61,0,0,1,6.83.07,25.78,25.78,0,0,1,6.35,2.59c.26.13.59-.22.33-.44-3.5-3-9.27-4.35-13.56-2.39a.09.09,0,0,0,0,.17Z"/><path class="cls-20" d="M230.64,233.53a24.63,24.63,0,0,1,6.6,1.14.11.11,0,0,0,.08-.2c-2-1.15-4.39-1.24-6.68-1.24a.15.15,0,0,0,0,.3Z"/></g><path class="cls-22" d="M146.73,272s.15,11.2,17.55,32.42c0,0-11.06,8.46-16.74,7.34,0,0-.35-18.58-12-22.87,0,0,3.88-11.58,3.35-14.67A44.21,44.21,0,0,1,146.73,272Z"/><path class="cls-23" d="M164.28,304.46c-2.06-2.52-3.88-4.9-5.49-7.13-1.56-1.28-3.74-2.32-6.09-1.05-4.5,2.42-7.65,1.23-6.57,6.46h0a41.38,41.38,0,0,1,1.41,9.06C153.22,312.92,164.28,304.46,164.28,304.46Z"/><path class="cls-24" d="M138.86,274.26a14.52,14.52,0,0,1-.48,4.47c1.35-.29,3-1.25,5.47-1.75a4.62,4.62,0,0,0,3.26-2.48,14.48,14.48,0,0,1-.38-2.46A44.21,44.21,0,0,0,138.86,274.26Z"/><path class="cls-23" d="M141.2,276.32a12.08,12.08,0,0,1-.14,3.88c-.08.72-.07,1.46-.17,2.16,1.16-.53,2.74-.29,3.86-.79-.42-.65-.23-2.28-.18-3.08s.17-1.83.17-2.75c-.88-.35-2,.54-2.83.61-.15-.06,0,0,0-.09Z"/><path class="cls-25" d="M154.48,298.83a35.88,35.88,0,0,0-3.78-5.26c-.22-.25-.22-.45-.56-.48s-1.49.63-1.95.8a11.31,11.31,0,0,0-2.09.64c.92.69,1.38,2.26,2.08,3.2s1.45,2.3,2.29,3.36c.2-.38.84-.56,1.24-.76a5,5,0,0,1,2.14-.88Z"/><path class="cls-26" d="M196,230.28a1.46,1.46,0,1,0-1.46-1.46,1.48,1.48,0,0,0,1.46,1.46Z"/><path class="cls-26" d="M209.45,256.51a1.46,1.46,0,1,0-1.46-1.46,1.48,1.48,0,0,0,1.46,1.46Z"/><path class="cls-27" d="M256.62,239.41c-.87-15.88-20-34.64-36.34-34.27-3,.07-9.36,1.75-10.5,4.11,3.9.94,8.71.73,12.34,2.88,11,6.5,15.16,16.83,13,29.23-2.7,15.8-15.39,25.09-30.18,28.81-7,1.77-10,9.22-20.45,6.21-28-8.08-12.16-27-12.16-27-6.69.12-23.21,12.42-27.31,12.93-6.9.87-17.05,5.81-24,4.82-9.09-1.28-16.78,3.91-24.09,9-6.19,4.31-15.07,9.52-18.28,16.72-2.94,6.58,1,15.88,1.87,22.52,1,7.67,1.23,14.21,8.34,18.73,9.1,5.79,21.15,4.66,29.92-1.08a91.08,91.08,0,0,1,23.83-11.19c9-2.81,19.21-4.42,27.76-8.57,8-3.9,18.23-11.37,21.43-20,2.49-6.77,4.82-10.31,12.3-11.56,8.7-1.45,17.65-1.56,26.28-3.89C245.51,273.73,257.47,254.86,256.62,239.41Z"/><path class="cls-28" d="M187.73,245a12.77,12.77,0,0,0,3.56,5.46c1.25,1.18-1.36,1.62-2.36,1.44-2.8-.52-4.26-4.31-2.82-6.24C187,244.56,187.67,244.88,187.73,245Z"/><path class="cls-29" d="M188.93,251.94a1.27,1.27,0,0,0,.28,0c-.14-1.4-1.14-4.53-3.54-5.24A4.48,4.48,0,0,0,188.93,251.94Z"/><g class="cls-12"><path class="cls-13" d="M181.58,250.64a8.12,8.12,0,0,1,1.56,1.75,14.67,14.67,0,0,1,.91,1.92c.12.25.48.16.56-.08.61-1.8-1.11-3.48-2.55-4.21-.38-.2-.84.31-.48.62Z"/></g><path class="cls-3" d="M148.7,306c-11.52.23-18.65-.76-24.68-3,2.13.21,5.2-.66,6.24-.61,3.84.14,6.09.06,5.67-2.6-.23-1.51-4.53-2.32-6.82-2.44-6.2-.32-11.21,1-16.87,3.56-4.9,2.24-9.53,2.25-13.7,2.78a76.75,76.75,0,0,1-8.8-.48l7.73,7.15-6.22,6.73c6-.29,10.24-.46,11.1-.32,3.71.58,9.9,2.79,14.54,4.25,3.65,1.16,28.82,6.11,35.73-6.15C155.16,310.39,153.42,305.91,148.7,306Z"/><path class="cls-2" d="M105.35,296.78c-38.76-1.94-55-12.21-82.32-24.22-7.75-3.75-17.44-3.72-22.35,9.74-3,8.2,1.95,15.67,16.18,27.21,14,11.35,65.17,19.2,85.3,9.58C105.35,313.68,104.63,304.17,105.35,296.78Z"/></g></g></svg>