<svg xmlns="http://www.w3.org/2000/svg" viewBox="0 0 213 841"><defs><style>.cls-1{isolation:isolate;}.cls-2{fill:#8786bb;}.cls-3{fill:#c37367;}.cls-18,.cls-21,.cls-4{fill:#f6b49a;}.cls-10,.cls-5{fill:#e4dfdd;}.cls-18,.cls-21,.cls-5,.cls-9{mix-blend-mode:multiply;}.cls-6{fill:#0e1224;}.cls-7{fill:#19223c;}.cls-8{fill:#f4f4f4;}.cls-11{fill:none;stroke:#54160e;stroke-linecap:round;stroke-linejoin:round;stroke-width:0.91px;}.cls-12{fill:#a56258;}.cls-13{fill:#f4a492;}.cls-14{fill:#c8c2bd;}.cls-15{fill:#8d8cc3;}.cls-16{fill:#dbd5d2;}.cls-17{fill:#f6bec6;}.cls-18{opacity:0.5;}.cls-19{opacity:0.27;}.cls-20{fill:#733133;}.cls-22{fill:#d58f83;}.cls-23{fill:#eee6e3;}.cls-24{fill:#f5f2b9;}.cls-25{fill:#e2dbd9;}.cls-26{fill:#fcf5f3;}.cls-27{fill:#310f08;}.cls-28{fill:#bce3f4;}.cls-29{fill:#7d4546;}.cls-30{fill:#ed7660;}</style></defs><title>Zeichenfläche 1</title><g class="cls-1"><g id="Ebene_1" data-name="Ebene 1"><path class="cls-2" d="M7.74,268.38c.42-1.12.85-2.29,1.28-3.54,3-8.69,4-14.43,7.38-28.42,2.16-9,4.19-17.47,5.79-23.21a124.87,124.87,0,0,0,2.42-13.61c2.94-20.15,12.27-47.54,32.22-47.54.75,0,11.25,8.94,7,30.34C60.19,201.11,40.7,264,32.2,283.59c-1.81,4.17-5.86,8.61-11.79,8.61a14.76,14.76,0,0,1-9.31-3.75C2.78,281.69,5.19,275.23,7.74,268.38Z"/><path class="cls-2" d="M210.83,268.38c-.42-1.12-.86-2.29-1.28-3.54-3-8.69-4-14.43-7.39-28.42-2.15-9-4.18-17.47-5.79-23.21A129.94,129.94,0,0,1,194,199.6c-2.94-20.15-13.37-47.54-33.32-47.54-.76,0-10.15,8.94-5.93,30.34,3.68,18.71,23.17,81.63,31.67,101.19,1.81,4.17,5.85,8.61,11.79,8.61a14.78,14.78,0,0,0,9.31-3.75C215.79,281.69,213.38,275.23,210.83,268.38Z"/><path class="cls-3" d="M163.23,92.75C146.88,71.93,145.64,30.4,113.44,7.48c-20-14.2-64.24,3.44-71.33,28.7-10.25,36.53,11.48,76.58,8.1,90.51,0,0,13.63,1.61,58.08-11.73S163.23,92.75,163.23,92.75Z"/><path class="cls-3" d="M44.86,123.56c2.53-6.6,1.1-14-.28-20.75-1.73-8.46-4.15-16.82-4.44-25.5-.32-9.32-.58-18.65.74-27.91A87.19,87.19,0,0,1,44,35.65c1.3-4.16,3.75-8,4.72-12.24a.71.71,0,0,0-1.29-.54C37.38,36.9,36,56.49,37.16,73.23A112.73,112.73,0,0,0,41.57,96.4c2.55,8.92,4.81,17.81,3.16,27.13a.07.07,0,0,0,.13,0Z"/><path class="cls-3" d="M83,1.56a57.06,57.06,0,0,1,25.31,2.66c8.91,3.17,15.76,9.54,21.46,16.91,10.51,13.58,15,30.39,24.68,44.38a.54.54,0,0,0,.94-.55c-3.68-8.51-8-16.85-12.28-25.07-4.19-8-8.79-15.93-14.82-22.76-5.46-6.19-11.87-11.06-19.8-13.58C100.11.86,91.75,1.19,83,1.37c-.13,0-.12.2,0,.19Z"/><path class="cls-3" d="M145.67,57.94c4.07,9.72,8.71,22.94,17.85,29.08.35.24.76-.22.56-.55-2.89-4.89-7.17-8.89-10.15-13.8s-5.43-9.86-8.06-14.82c-.06-.11-.25,0-.2.09Z"/><path class="cls-4" d="M142.26,147c-3.74,0-18-7.65-19.34-19.06,0,0-12.76,10.76-13.73,10.91-1-.15-13.73-10.91-13.73-10.91C94.09,139.3,79.86,147,76.12,147c0,0,.46,40.1,33.07,40.1S142.26,147,142.26,147Z"/><path class="cls-4" d="M130.21,84.73c-6.21,12-9.41,65.68-8.52,77.3-7.64,11.45-30.7,9-32.49,6.56-1.46-2,12.25-44.6,2.94-56.2-8-9.91-12-13.92-6.12-19,10.54-9.16,24.89-11.91,38.48-14.89Z"/><path class="cls-5" d="M95.4,125.43c4.55.83,8.16.31,13.12,1.32a37.34,37.34,0,0,1,17.9,9.53s-3.71-6-3.5-8.39c1.77-20.16,4.51-37.77,7.29-43.16l-5.71-6.25c-13.59,3-27.94,5.73-38.48,14.89-5.87,5.1-1.83,9.11,6.12,19C93.05,113.52,95.4,118,95.4,125.43Z"/><path class="cls-6" d="M93.29,811.54c0-.08.15-3.87.45-10.46H76.45l.35,3.85c-.77,6.61-13.42,14.45-27.17,22.49h0c-5.8,3.44-10.4,6.8-10.77,8.45-1.06,4.84,6.84,5.17,10.54,4.76,9.45-1,18.09-5.19,27-7.21,4.54-1,14.55-2.39,17.46-6.5,3.12-4.4,2.17-11.11-.56-15.38Z"/><path class="cls-6" d="M168.76,827.42h0c-13.75-8-26.4-15.88-27.17-22.49l.36-3.85H124.68c.27,6.59.42,10.38.41,10.46h0c-2.72,4.27-3.69,11-.56,15.38,2.91,4.11,12.92,5.47,17.47,6.5,8.9,2,17.54,6.18,27,7.21,3.7.41,11.6.08,10.54-4.76C179.17,834.22,174.55,830.86,168.76,827.42Z"/><path class="cls-7" d="M60.47,808.33c3.24,19,39-2.23,39-2.23s.58-206.13,2.37-221c-.13-7.31,14.18-199,14.18-199V339.48H61.33c-6.28,20.82-19.09,45.53-19.09,91C42.24,500.87,59.31,797.48,60.47,808.33Z"/><path class="cls-7" d="M157.11,800.52c-3.25,19-36.81,5-36.81,5s-1-205.56-2.78-220.47c.13-7.31-14.18-199-14.18-199l-44.59-36.6,2.58-9.93h96.74c6.28,20.82,19.09,45.53,19.09,91C177.16,500.87,158.26,789.67,157.11,800.52Z"/><path class="cls-4" d="M118.44,42.65c-11.7-14.08-25.67-12.08-25.67-12.08a79.73,79.73,0,0,0-8.56,1l-.09-.3-1.57.63c-.55.11-1.11.21-1.66.34l.09.3a78.06,78.06,0,0,0-7.7,3.87s-12.77,6-14.77,24.23c-1.27,11.6,2.41,15.69,5.93,25.2,3.34,9.05,3.59,11,7.51,18,5,8.93,15.43,14.45,25.46,17.94a19.26,19.26,0,0,0,12.11,0,19.23,19.23,0,0,0,10.13-6.64c6.46-8.44,12.11-18.79,11.37-29-.59-8-1.44-9.76-3.64-19.16C125.08,57.08,125.9,51.63,118.44,42.65Z"/><path class="cls-2" d="M192.41,436c-.47-8.12-8.65-52.83-12.63-84.41-7-55.61-32.21-99.81-21-121.77,19.79-38.85,1.87-77.8,1.87-77.8-6.1-2.18-11.22-1.36-25.52-8.4a30.37,30.37,0,0,1-25.92,17.13,30.37,30.37,0,0,1-25.92-17.13c-14.3,7-20.34,6.22-26.44,8.4,0,0-17.33,49.41.19,77.8,12.52,20.3-16.61,67.2-22,123.51C31.83,386.88,23.73,428,23.17,436c0,0,20.38,20.49,89.78,20.49S192.41,436,192.41,436Z"/><path class="cls-8" d="M94.47,103c8.21,1.23,17.79-4.91,17.79-4.91s.8,6.71-7.1,9.09S94.47,103,94.47,103Z"/><g class="cls-9"><path class="cls-10" d="M104.41,111.25a7.89,7.89,0,0,1,1.64-1.3,13.46,13.46,0,0,1,1.85-.74.29.29,0,0,0,0-.56c-1.66-.66-3.3.85-4.07,2.15a.37.37,0,0,0,.58.45Z"/></g><path class="cls-11" d="M112.23,75.91h0a1.94,1.94,0,0,1,3.71-1.11"/><path class="cls-12" d="M105.82,68.37c2-.26,3-2.39,5-2.81,1.78-.36,4.59.5,5.86-1a1.12,1.12,0,0,0,.17-1.33c-1.28-1.86-5.16-1.53-7.1-.87s-5.05,2.94-4.76,5.18c0,.39.34.88.82.82Z"/><path class="cls-13" d="M122.47,75.15c-6.56-1.35-16.84,13-6.51,15.24S129,76.5,122.47,75.15Z"/><path class="cls-11" d="M78.31,86.09h0A1.93,1.93,0,0,1,82,85"/><path class="cls-12" d="M83.47,74.06c-1.21-1.93-4.47-2.25-6.56-1.81s-5.34,2.23-5.7,4.36A1.12,1.12,0,0,0,72.26,78c1.89.25,3.45-1.66,5.11-2.37,1.92-.81,3.78.29,5.61-.37a.84.84,0,0,0,.49-1.2Z"/><path class="cls-13" d="M73.05,90c4.73-4.75,21.22,1.56,13.83,9.13S68.31,94.74,73.05,90Z"/><g class="cls-9"><path class="cls-14" d="M86.27,74c2.17,2.11,4.77,3.6,6.69,6,.09.12.24,0,.19-.15C92,77.14,88.7,75.3,86.29,73.94c0,0,0,0,0,0Z"/></g><g class="cls-9"><path class="cls-14" d="M96.09,84.76A17.18,17.18,0,0,1,97.27,91c0,.8-.2,2.62.37,3.31,1.22,1.48,4.76-.19,5.86-1.09.09-.07,0-.21-.11-.15a7.24,7.24,0,0,1-3.94,1.14c-1.64,0-1.59-1.14-1.65-2.54a15.64,15.64,0,0,0-1.57-7c0-.08-.18,0-.14.06Z"/></g><path class="cls-3" d="M69.8,48.66c2.78,4.2,10,9,14.6,11,6.78,2.84,14.28,1,21.15,3.78.45.19.79-.48.46-.79-5.08-4.86-12.63-2.15-18.81-4.06-4.26-1.31-7.5-4.5-11-7.15-1.94-1.49-3.76-3-6.26-3.09a.23.23,0,0,0-.19.34Z"/><path class="cls-3" d="M121.7,15.14C99-13.49,44.76,2.78,41.67,39.6c-1.79,21.34,9.95,50,17.29,50.69,2.64.25-.62-4.69,5.26-2.87C78.42,91.79,58.48,68.8,70,48.55c23,18.19,41.41-.94,55.83,23.77,3.1,5.32,7-3.16,9.08-4.83C140.64,62.89,135,31.91,121.7,15.14Z"/><path class="cls-4" d="M68.7,89.47c-3.6-6.08-15.5-9-13.69,1.73,1.49,8.83,16.57,23.45,16.13,6.07Z"/><path class="cls-4" d="M125.82,72.32c-.36-7.06,8-16,12.37-6.1,3.63,8.19-.91,28.7-10.12,14Z"/><path class="cls-3" d="M74.1,104.82c3.6-7.67.73-18.47-1.45-26.21-1.24-4.42-2.73-8.74-3.43-13.3-1-6.41.47-12.23,1.22-18.54,0-.33-.5-.46-.63-.17C65.73,55.33,66.43,66,69.23,75c1.33,4.25,2.55,8.5,3.53,12.85,1.3,5.77,1.25,11.09,1.13,16.94a.11.11,0,0,0,.21,0Z"/><path class="cls-2" d="M159,229.86H57c0,35.06-21.5,41.8-25,92.69s33.05,89.34,76,89.34,74.49-38.55,75.75-90C184.91,274.73,159,259.65,159,229.86Z"/><path class="cls-5" d="M107.79,389.06c-37.9,0-62.2-15.44-62.2-15.44s18.82,26.52,62.26,26.52S170,373.83,170,373.83,145.69,389.06,107.79,389.06Z"/><g class="cls-9"><path class="cls-10" d="M107.81,228.82h0c-6.92,0-26.88,24.14-50.95,1,22.79,26.58,41.75,6.69,51,4,9.21,2.73,28.18,22.62,51-4C134.69,253,114.72,228.82,107.81,228.82Z"/></g><path class="cls-4" d="M40,333.62c14.2,16.84,20.09,20.1,25.75,20.23,6.54.15,11.88,1.22,17.59,4.38,2.11,1.17,5.81,3.9,5.34,5.44-.83,2.7-3,1.75-6.56-.15-1-.52-4.27-1.11-6.18-2.29,4.67,4.89,16.75,7.85,22,14.17,3.16,3.83,4.09,7.08-.37,10.2-5.46,3.81-8.49-.86-14-1.25-2.22-.16-5.78,1.78-12.14-1.77-3.55-2-10.14-9.78-13.05-12.54-3.72-3.53-14.91-9.68-22.3-22.07Z"/><path class="cls-15" d="M57.94,349s-25-37.91-26.06-70.64c-.58-17-23.61-7.4-25.6-5.81,0,0-8.46,18.44,11.85,54.5a167.42,167.42,0,0,0,28.92,36.86C52.1,359.81,55,354.74,57.94,349Z"/><path class="cls-16" d="M103.23,234.83c-3.89-4.34-16.68-12.79-21.65-16.29-6-4.21-7-5.79-11.19-11.6s-6.76-8.06-11.32-13.47c-3.78-4.5-8-11-13.52-13.6-6.51-3.1-13.87-.28-18.43,5.14C18,195.82,10.71,208.83,20,222c4.48,6.38,12.62,10.54,19.11,14.65A133.2,133.2,0,0,1,53,246.86c10.74,8.83,20.86,16.73,34.43,21,11.09,3.47,25.93,2.45,36-3.67,7.75-4.73.24-16.51-7.21-18.07Z"/><path class="cls-4" d="M71.58,259.5c-4.93-4-2.46-13.68-2.46-13.68-2.64-2.62-5-3.38-12-4.42l-1.4-2.53c2.63-3.58,6.49-13.06,9.75-9.68,3.68,3.82,6.46,5.29,9.16,5.92,0,0,6.21-8.4,13.08-5.34,10.38,4.61,13.41,9,24.75,13.22,4.24,1.56,10.6,6.89,8.23,17.93s-7.2,21-18.53,16.86C91.08,273.71,78.24,264.86,71.58,259.5Z"/><path class="cls-17" d="M77,238.63a9,9,0,0,0-.46-5.64c2.36-2.26,6.61-5.24,11.15-3.22,10.38,4.61,13.41,9,24.75,13.22,4.24,1.56,10.6,6.89,8.23,17.93s-7.2,21-18.53,16.86c-11-4.07-23.89-12.92-30.55-18.28-3.79-3-3.21-9.47-2.73-12.29C72.18,245.09,76.06,242.39,77,238.63Z"/><path class="cls-18" d="M69.12,245.82c-2.64-2.63-5-3.38-12-4.42l-1.16-2.09c2.48-4,5.08-7.93,8.35-10.8a2,2,0,0,1,1.16.68,20.7,20.7,0,0,0,6.53,5C68,241.79,68.43,243.76,69.12,245.82Z"/><path class="cls-4" d="M14,233.07c-18-20-1-55.35,25.74-52.11,8.45,1,13.1,4.59,18.39,8.57,5.61,4.2,7.72,4.44,12.16,8.13,5.67,4.71,8.56,12.41,8.3,19.5s-3.67,15.7-12,20.33c-7,4.18-16.09,5.53-23.45,5.87-6.52.31-4.25,1.83-10.67-.76C25.68,239.87,19.69,239.39,14,233.07Z"/><g class="cls-9"><path class="cls-10" d="M14,233.07A28.8,28.8,0,0,1,7.18,220,39.06,39.06,0,0,0,30,237.71c2.07-1.49,4.17-2.74,8.75-1.92.22.39,4.94,2,5.51,2.31,5.63,3.49,7.48,3.41,11.24,3.62h0c-.82.19-1.66.36-2.49.51l-.29.06c-.83.15-1.66.29-2.48.4a1.2,1.2,0,0,0-.2,0c-1.75.24-3.48.41-5.13.52l-1.17.08c-.22,0-.46,0-.68,0-6.52.31-4.25,1.83-10.67-.76-3.3-1.34-7.22-2.5-11-4A22.72,22.72,0,0,1,14,233.07Z"/></g><g class="cls-19"><path class="cls-20" d="M55.46,193a4.59,4.59,0,0,0-3.68,3.11c-.26,1.08-.18,2.7.77,3.45a1.18,1.18,0,0,0,2-1.13,4,4,0,0,1-.19-1.54c.23-1.1,1-1.53,1.89-2.13a1,1,0,0,0-.74-1.76Z"/></g><g class="cls-19"><path class="cls-20" d="M41.73,225.81c.57-.86-.24-1.83-.14-2.79a2.4,2.4,0,0,1,.82-1.53c.44-.36,1.09-.55,1.16-1.31.1-1-.89-1.44-1.75-1.22a3.89,3.89,0,0,0-2.67,3.31,5.13,5.13,0,0,0,.62,2.79c.31.59,1.33,1.69,2,.75Z"/></g><path class="cls-21" d="M45.53,235.24c-.23-5.6,13-12.18,13.46-3.34S45.77,240.84,45.53,235.24Z"/><path class="cls-21" d="M64.92,194a37.82,37.82,0,0,1,5.35,3.71,21.7,21.7,0,0,1,4.21,4.76,16.38,16.38,0,0,1-2.81,3.05C65.48,209.81,62.81,199.06,64.92,194Z"/><g class="cls-9"><path class="cls-14" d="M58.52,209.86a2.52,2.52,0,0,0,1.34.6c.59.07,1.19-.13,1.78,0,1.81.28,1.48,3.25-.09,3.65-.07,0-.06.15,0,.14a2.41,2.41,0,0,0,1.63-3,1.87,1.87,0,0,0-1.51-1.18c-1.14-.13-2,.38-3.1-.28-.05,0-.12,0-.07.09Z"/></g><path class="cls-22" d="M113.71,263.52c11.67.52,14.3-10.34,19.09-9.62,3.16.47,12.45,10.91,14.5,13.3.38.44-.25,2.16,2.83,3.9,3.9,2.2,14.65-7,11.77-10s-8.44,4-10.41,2.2c-4.5-4.17-6.9-19.31-12.46-23.55-7.93-6.05-14.14-1-27.45,3.58C97.37,248.13,99.54,262.88,113.71,263.52Z"/><path class="cls-5" d="M110,260.21c5.42-5.6,14-9.48,20.48-5.74-3.61,2.18-7.09,9.48-16.72,9a15.39,15.39,0,0,1-6.9-1.83A4.61,4.61,0,0,0,110,260.21Z"/><path class="cls-22" d="M105.92,278.73c11.48,2.2,15-5.71,19.59-4.31,3.06.92,9.82,13.38,11.51,16,.31.5-.56,2.12,2.24,4.28,3.54,2.73,15.5-4.78,13.09-8.24s-8.93,2.77-10.62.68c-3.85-4.78-3.12-20.9-8-25.89-7-7.13-13.91-5.55-27.61-2.42C92.09,262.06,92,276.06,105.92,278.73Z"/><path class="cls-22" d="M39.09,235.45c-4.58-.72-11.87,5-6.07,9,4.78,3.29,19,1.15,10.85-6.8Z"/><g class="cls-19"><path class="cls-20" d="M29.35,195.06c-4.2-1.31-9.91,1.61-13.07,4.21-.22.18.07.53.31.39a36,36,0,0,1,6.46-3.14c2.07-.71,4.21-.8,6.3-1.36a.05.05,0,0,0,0-.1Z"/><path class="cls-20" d="M28.51,200.09c-4.13-1.89-9.69-.62-13.06,2.3-.24.21.07.54.32.42a24.45,24.45,0,0,1,6.12-2.49,24.57,24.57,0,0,1,6.58-.06.09.09,0,0,0,0-.17Z"/><path class="cls-20" d="M25.45,203A12.81,12.81,0,0,0,19,204.15c-.1.06,0,.24.09.2a23.25,23.25,0,0,1,6.35-1.1.15.15,0,0,0,0-.29Z"/></g><path class="cls-23" d="M106.27,240.34s-.13,10.79-16.9,31.23c0,0,10.66,8.16,16.12,7.07,0,0,.34-17.9,11.59-22,0,0-3.73-11.16-3.23-14.12A43.28,43.28,0,0,0,106.27,240.34Z"/><path class="cls-24" d="M89.37,271.57c2-2.43,3.74-4.71,5.29-6.87,1.49-1.22,3.6-2.23,5.87-1,4.33,2.33,7.35,1.19,6.33,6.22h0a39.7,39.7,0,0,0-1.37,8.73C100,279.73,89.37,271.57,89.37,271.57Z"/><path class="cls-25" d="M113.85,242.49a14.36,14.36,0,0,0,.47,4.3c-1.3-.27-2.89-1.2-5.27-1.68a4.49,4.49,0,0,1-3.15-2.4,12.67,12.67,0,0,0,.37-2.37A43.28,43.28,0,0,1,113.85,242.49Z"/><path class="cls-24" d="M111.6,244.47a12,12,0,0,0,.13,3.73c.08.7.08,1.4.18,2.09-1.13-.52-2.65-.28-3.73-.77.41-.62.23-2.19.18-3s-.16-1.76-.17-2.63c.85-.35,1.88.52,2.74.58.13-.05,0,0-.05-.09Z"/><path class="cls-26" d="M98.81,266.15a34.67,34.67,0,0,1,3.64-5.06c.21-.25.21-.44.54-.47s1.43.61,1.87.77a11.32,11.32,0,0,1,2,.61c-.89.67-1.33,2.18-2,3.09s-1.41,2.22-2.2,3.23c-.2-.36-.82-.54-1.2-.73a4.81,4.81,0,0,0-2.06-.85Z"/><path class="cls-27" d="M58.87,200.12a1.41,1.41,0,1,0-1.41-1.4,1.43,1.43,0,0,0,1.41,1.4Z"/><path class="cls-27" d="M45.86,225.39A1.41,1.41,0,1,0,44.45,224a1.43,1.43,0,0,0,1.41,1.41Z"/><path class="cls-28" d="M.42,208.91c.84-15.3,19.27-33.35,35-33,2.88.06,9,1.68,10.12,4-3.77.89-8.4.7-11.89,2.76-10.6,6.27-14.61,16.21-12.56,28.17C23.7,226,35.92,235,50.17,238.55c6.76,1.7,9.67,8.88,19.7,6,26.95-7.79,11.71-26,11.71-26,6.44.11,22.36,12,26.3,12.46,6.65.83,16.42,5.58,23.14,4.64,8.76-1.24,16.16,3.77,23.21,8.67,6,4.15,14.51,9.17,17.6,16.11,2.83,6.33-1,15.3-1.8,21.7-1,7.38-1.18,13.68-8,18-8.76,5.58-20.37,4.48-28.82-1a88.11,88.11,0,0,0-23-10.78c-8.67-2.71-18.51-4.26-26.73-8.25-7.74-3.76-17.56-11-20.64-19.3-2.41-6.52-4.65-9.93-11.85-11.13-8.39-1.4-17-1.5-25.32-3.74C11.13,242-.39,223.8.42,208.91Z"/><path class="cls-29" d="M66.78,214.33a12.24,12.24,0,0,1-3.43,5.27c-1.2,1.13,1.31,1.56,2.27,1.38,2.7-.5,4.11-4.14,2.72-6C67.51,213.87,66.84,214.18,66.78,214.33Z"/><path class="cls-30" d="M65.62,221l-.26,0c.13-1.35,1.1-4.36,3.41-5.05A4.32,4.32,0,0,1,65.62,221Z"/><g class="cls-9"><path class="cls-10" d="M72.24,219.13c-1.38.71-3,2.32-2.45,4.06a.3.3,0,0,0,.54.07,15.46,15.46,0,0,1,.87-1.84,7.85,7.85,0,0,1,1.51-1.69c.34-.29-.1-.79-.47-.6Z"/></g><path class="cls-4" d="M142.26,288.44c-21.84-2.86-27.76-6.06-30.93-10.76-3.65-5.43-7.44-9.34-13.17-12.45-2.13-1.15-6.43-2.78-7.47-1.55-1.82,2.15.14,3.46,3.67,5.43,1,.54,3.24,3,5.26,4C93,271.79,84,263.22,75.84,262.24c-4.93-.6-8.17.37-8.39,5.81-.26,6.65,5.3,6.69,8.61,11.12,1.33,1.79,1.63,5.83,8,9.26,3.59,1.92,13.7,3.26,17.6,4.22,5,1.23,16.2,7.33,30.62,6.87Z"/><path class="cls-15" d="M119.65,281.66s45.38.56,73.53-16.18c14.65-8.7,19,15.88,18.71,18.42,0,0-10.95,17.08-52.28,19.43A167.26,167.26,0,0,1,113,298.88C113.7,292.41,116.38,287.2,119.65,281.66Z"/></g></g></svg>